SplineFontDB: 3.2
FontName: MahoneSansBold
FullName: Mahone Sans Bold
FamilyName: Mahone Sans
Weight: Bold
Copyright: Copyright (c) 2022, Marco G Mahone
UComments: "2022-4-21: Created with FontForge (http://fontforge.org)"
Version: 001.000
ItalicAngle: 0
UnderlinePosition: -100
UnderlineWidth: 50
Ascent: 800
Descent: 200
InvalidEm: 0
LayerCount: 2
Layer: 0 0 "Back" 1
Layer: 1 0 "Fore" 0
XUID: [1021 174 643576185 19666]
FSType: 0
OS2Version: 0
OS2_WeightWidthSlopeOnly: 0
OS2_UseTypoMetrics: 1
CreationTime: 1650580350
ModificationTime: 1651412964
PfmFamily: 33
TTFWeight: 700
TTFWidth: 5
LineGap: 90
VLineGap: 0
Panose: 2 0 8 3 0 0 0 0 0 0
OS2TypoAscent: 0
OS2TypoAOffset: 1
OS2TypoDescent: 0
OS2TypoDOffset: 1
OS2TypoLinegap: 90
OS2WinAscent: 0
OS2WinAOffset: 1
OS2WinDescent: 0
OS2WinDOffset: 1
HheadAscent: 0
HheadAOffset: 1
HheadDescent: 0
HheadDOffset: 1
OS2Vendor: 'PfEd'
OS2UnicodeRanges: 0000000f.00000000.00000000.00000000
Lookup: 1 0 0 "Single Substitution lookup 25" { "Single Substitution lookup 25 subtable"  } []
Lookup: 1 0 0 "Single Substitution lookup 24" { "Single Substitution lookup 24 subtable"  } []
Lookup: 1 0 0 "'ss09' Style Set 9 lookup 17" { "'ss09' Style Set 9 lookup 17-1" ("salt") } ['ss09' ('DFLT' <'dflt' > 'cyrl' <'dflt' > 'grek' <'dflt' > 'latn' <'dflt' > ) ]
Lookup: 1 0 0 "'ss08' Style Set 8 lookup 16" { "'ss08' Style Set 8 lookup 16-1" ("salt") } ['ss08' ('DFLT' <'dflt' > 'cyrl' <'dflt' > 'grek' <'dflt' > 'latn' <'dflt' > ) ]
Lookup: 1 0 0 "'ss01' Style Set 1 lookup 9" { "'ss01' Style Set 1 lookup 9-1" ("salt") } ['ss01' ('DFLT' <'dflt' > 'cyrl' <'dflt' > 'grek' <'dflt' > 'latn' <'dflt' > ) ]
Lookup: 1 0 0 "'ss02' Style Set 2 lookup 10" { "'ss02' Style Set 2 lookup 10-1" ("salt") } ['ss02' ('DFLT' <'dflt' > 'cyrl' <'dflt' > 'grek' <'dflt' > 'latn' <'dflt' > ) ]
Lookup: 1 0 0 "'ss03' Style Set 3 lookup 11" { "'ss03' Style Set 3 lookup 11-1" ("salt") } ['ss03' ('DFLT' <'dflt' > 'cyrl' <'dflt' > 'grek' <'dflt' > 'latn' <'dflt' > ) ]

StartChar: one
Encoding: 49 49 0
Width: 393
Flags: HW
LayerCount: 2
Fore
SplineSet
202 474 m 5
 104 394 l 5
 30 506 l 5
 202 628 l 5
 202 474 l 5
202 0 m 1
 202 628 l 1
 344 628 l 1
 344 0 l 1
 202 0 l 1
EndSplineSet
Substitution2: "'frac' Diagonal Fractions in Latin lookup 22 subtable" one.numr
Substitution2: "'sups' Superscript lookup 0 subtable" one.sups
Substitution2: "'subs' Subscript lookup 0 subtable" one.subs
Substitution2: "'sinf' Scientific Inferiors lookup 0 subtable" one.sinf
Substitution2: "'tnum' Tabular Numbers in Latin lookup 5-1" one.tf
Substitution2: "'onum' Oldstyle Figures in Latin lookup 4-1" one.osf
Substitution2: "'dnom' Denominators lookup 0 subtable" one.dnom
Substitution2: "'numr' Numerators lookup 0 subtable" one.numr
EndChar

StartChar: two
Encoding: 50 50 1
Width: 534
Flags: HW
LayerCount: 2
Fore
SplineSet
36 121 m 1
 107 131 l 1
 493 131 l 1
 493 0 l 1
 36 0 l 1
 36 121 l 1
271.888671875 363.90234375 m 0
 338.837581916 392.581391736 358.928710938 416.182617188 358.928710938 450 c 0
 358.928710938 483.817382812 320.73046875 502.09765625 241.888671875 502.09765625 c 0
 160.770507812 502.09765625 90.107421875 460 90.107421875 460 c 1
 46.77734375 592 l 1
 46.77734375 592 131.19140625 640.559570312 241.888671875 640.559570312 c 0
 393.48828125 640.559570312 495.77734375 581.599609375 495.77734375 464 c 0
 495.77734375 326.400390625 394 261 291.888671875 224.440429688 c 0
 188.471585051 187.413350258 181 143 170 101 c 1
 163 30 l 1
 36 121 l 1
 81 290 178.783203125 324.018554688 271.888671875 363.90234375 c 0
EndSplineSet
Substitution2: "'frac' Diagonal Fractions in Latin lookup 22 subtable" two.numr
Substitution2: "'sups' Superscript lookup 0 subtable" two.sups
Substitution2: "'subs' Subscript lookup 0 subtable" two.subs
Substitution2: "'sinf' Scientific Inferiors lookup 0 subtable" two.sinf
Substitution2: "'tnum' Tabular Numbers in Latin lookup 5-1" two.tf
Substitution2: "'onum' Oldstyle Figures in Latin lookup 4-1" two.osf
Substitution2: "'dnom' Denominators lookup 0 subtable" two.dnom
Substitution2: "'numr' Numerators lookup 0 subtable" two.numr
EndChar

StartChar: O
Encoding: 79 79 2
Width: 687
Flags: W
HStem: -12.5596 138.462<256.356 423.421> 502.098 138.462<256.356 423.421>
VStem: 36 136.849<217.23 410.77> 506.929 136.849<217.23 410.77>
LayerCount: 2
Fore
SplineSet
172.848632812 314 m 4
 172.848632812 200.182617188 241.046875 125.90234375 339.888671875 125.90234375 c 4
 438.73046875 125.90234375 506.928710938 200.182617188 506.928710938 314 c 4
 506.928710938 427.817382812 438.73046875 502.09765625 339.888671875 502.09765625 c 0
 241.046875 502.09765625 172.848632812 427.817382812 172.848632812 314 c 4
36 314 m 4
 36 511.599609375 168.2890625 640.559570312 339.888671875 640.559570312 c 0
 511.48828125 640.559570312 643.77734375 511.599609375 643.77734375 314 c 4
 643.77734375 116.400390625 511.48828125 -12.5595703125 339.888671875 -12.5595703125 c 4
 168.2890625 -12.5595703125 36 116.400390625 36 314 c 4
EndSplineSet
EndChar

StartChar: A
Encoding: 65 65 3
Width: 607
Flags: W
HStem: 0 21G<32 179.414 426.586 574> 116 132<170 424> 608 20G<225.631 380.369>
LayerCount: 2
Fore
SplineSet
424 116 m 1
 170 116 l 1
 170 248 l 1
 424 248 l 1
 424 116 l 1
574 0 m 1
 432 0 l 1
 262 628 l 1
 374 628 l 1
 574 0 l 1
32 0 m 5
 232 628 l 5
 344 628 l 5
 174 0 l 5
 32 0 l 5
EndSplineSet
EndChar

StartChar: I
Encoding: 73 73 4
Width: 344
Flags: W
HStem: 0 132<43 99 241 297> 30 102<99 241> 496 132<43 99 241 297> 496 102<99 241>
VStem: 43 254<0 132 496 628> 99 142<30 598>
LayerCount: 2
Fore
SplineSet
297 0 m 1x88
 43 0 l 1
 43 132 l 1
 297 132 l 1
 297 0 l 1x88
297 496 m 1x28
 43 496 l 1
 43 628 l 1
 297 628 l 1
 297 496 l 1x28
99 30 m 5x54
 99 598 l 5
 241 598 l 5
 241 30 l 5
 99 30 l 5x54
EndSplineSet
EndChar

StartChar: T
Encoding: 84 84 5
Width: 552
Flags: W
HStem: 0 21G<202 344> 496 132<39 202 344 507> 496 102<202 344>
VStem: 202 142<0 598>
LayerCount: 2
Fore
SplineSet
507 496 m 1xd0
 39 496 l 5
 39 628 l 5
 507 628 l 1
 507 496 l 1xd0
202 0 m 1
 202 598 l 1
 344 598 l 1xb0
 344 0 l 1
 202 0 l 1
EndSplineSet
EndChar

StartChar: Q
Encoding: 81 81 6
Width: 719
Flags: HW
LayerCount: 2
Fore
SplineSet
340 138.461914062 m 0
 438.841796875 138.461914062 506.928710938 200.182617188 506.928710938 314 c 0
 506.928710938 427.817382812 438.73046875 502.09765625 339.888671875 502.09765625 c 0
 241.046875 502.09765625 172.848632812 427.817382812 172.848632812 314 c 0
 172.848632812 200.182617188 241.158203125 138.461914062 340 138.461914062 c 0
36 314 m 0
 36 511.599609375 168.2890625 640.559570312 339.888671875 640.559570312 c 0
 511.48828125 640.559570312 643.77734375 511.599609375 643.77734375 314 c 0
 643.77734375 212.192375458 572 141.362304688 572 141.362304688 c 1
 686 162 l 1
 702 30 l 1
 702 30 552 0 340 0 c 0
 168.400390625 0 36 116.400390625 36 314 c 0
EndSplineSet
EndChar

StartChar: D
Encoding: 68 68 7
Width: 588
Flags: HW
LayerCount: 2
Fore
SplineSet
48 0 m 1
 48 628 l 1
 190 628 l 1
 190 0 l 1
 48 0 l 1
241 489.538085938 m 2
 190 489.538085938 l 1
 190 628 l 1
 241 628 l 2
 412.599609375 628 544.888671875 504.040039062 544.888671875 306.440429688 c 0
 544.888671875 108.840820312 412.599609375 0 241 0 c 2
 190 0 l 1
 190 138.461914062 l 1
 241 138.461914062 l 2
 339.841796875 138.461914062 408.040039062 192.623046875 408.040039062 306.440429688 c 0
 408.040039062 420.2578125 339.841796875 489.538085938 241 489.538085938 c 2
EndSplineSet
EndChar

StartChar: B
Encoding: 66 66 8
Width: 536
Flags: HW
LayerCount: 2
Fore
SplineSet
245 250 m 2
 174 250 l 1
 174 388.461914062 l 1
 312 334 l 1
 355 333.461914062 l 2
 435.735351562 332.451171875 508.888671875 274.040039062 508.888671875 176.440429688 c 0
 508.888671875 64.8408203125 395.599609375 0 275 0 c 2
 174 0 l 1
 174 138.461914062 l 1
 245 138.461914062 l 2
 292.841796875 138.461914062 362.040039062 138.623046875 362.040039062 196.440429688 c 0
 362.040039062 250.2578125 292.841796875 250 245 250 c 2
32 0 m 1
 32 628 l 1
 174 628 l 1
 174 0 l 1
 32 0 l 1
215 489.538085938 m 2
 174 489.538085938 l 1
 174 628 l 1
 235 628 l 2
 355.599609375 628 458.888671875 574.040039062 458.888671875 456.440429688 c 0
 458.888671875 384.840820312 410 314 327 314 c 2
 270 314 l 1
 174 250 l 1
 174 388.461914062 l 1
 215 388.461914062 l 2
 262.841796875 388.461914062 312.040039062 398.623046875 312.040039062 436.440429688 c 0
 312.040039062 480.2578125 262.841796875 489.538085938 215 489.538085938 c 2
EndSplineSet
EndChar

StartChar: P
Encoding: 80 80 9
Width: 597
Flags: HW
LayerCount: 2
Fore
SplineSet
48 0 m 1
 48 628 l 1
 190 628 l 1
 190 0 l 1
 48 0 l 1
301 489.538085938 m 2
 190 489.538085938 l 1
 190 628 l 1
 301 628 l 2
 421.599609375 628 554.888671875 564.040039062 554.888671875 396.440429688 c 0
 554.888671875 234.840820312 421.599609375 180 301 180 c 2
 190 180 l 1
 190 318.461914062 l 1
 301 318.461914062 l 2
 348.841796875 318.461914062 418.040039062 321.623046875 418.040039062 399.440429688 c 4
 418.040039062 483.2578125 348.841796875 489.538085938 301 489.538085938 c 2
EndSplineSet
EndChar

StartChar: R
Encoding: 82 82 10
Width: 611
Flags: HW
LayerCount: 2
Fore
SplineSet
321 489.538085938 m 2
 190 489.538085938 l 1
 190 628 l 1
 321 628 l 2
 441.599609375 628 554.888671875 569.040039062 554.888671875 421.440429688 c 0
 554.888671875 279.840820312 441.599609375 230 321 230 c 2
 190 230 l 1
 190 358.461914062 l 1
 321 358.461914062 l 2
 368.841796875 358.461914062 418.040039062 361.623046875 418.040039062 419.440429688 c 0
 418.040039062 483.2578125 368.841796875 489.538085938 321 489.538085938 c 2
48 0 m 1
 48 628 l 1
 190 628 l 1
 190 0 l 1
 48 0 l 1
582 0 m 1
 400 0 l 1
 200 296 l 1
 289 349 l 1
 582 0 l 1
EndSplineSet
EndChar

StartChar: C
Encoding: 67 67 11
Width: 566
Flags: HW
LayerCount: 2
Fore
SplineSet
36 314 m 0
 36 511.599609375 168.2890625 640.559570312 339.888671875 640.559570312 c 0
 450.5859375 640.559570312 507.673828125 618.524414062 507.673828125 618.524414062 c 1
 494.958984375 481.094726562 l 1
 494.958984375 481.094726562 451.006835938 502.09765625 359.888671875 502.09765625 c 0
 241.046875 502.09765625 172.848632812 427.817382812 172.848632812 314 c 0
 172.848632812 200.182617188 241.046875 125.90234375 359.888671875 125.90234375 c 0
 450.981445312 125.90234375 498.901367188 146.872070312 498.901367188 146.872070312 c 1
 526.940429688 9.2666015625 l 1
 526.940429688 9.2666015625 450.314453125 -12.5595703125 339.888671875 -12.5595703125 c 0
 168.2890625 -12.5595703125 36 116.400390625 36 314 c 0
EndSplineSet
EndChar

StartChar: E
Encoding: 69 69 12
Width: 498
Flags: HW
LayerCount: 2
Fore
SplineSet
382 256 m 1
 68 256 l 1
 68 388 l 1
 382 388 l 1
 382 256 l 1
449 0 m 1
 48 0 l 1
 48 132 l 1
 449 132 l 1
 449 0 l 1
449 496 m 1
 48 496 l 1
 48 628 l 1
 449 628 l 1
 449 496 l 1
48 30 m 1
 48 598 l 1
 190 598 l 5
 190 30 l 5
 48 30 l 1
EndSplineSet
EndChar

StartChar: F
Encoding: 70 70 13
Width: 494
Flags: HW
LayerCount: 2
Fore
SplineSet
382 215 m 1
 68 215 l 1
 68 347 l 1
 382 347 l 1
 382 215 l 1
449 496 m 5
 48 496 l 5
 48 628 l 5
 449 628 l 5
 449 496 l 5
48 0 m 1
 48 598 l 1
 190 598 l 1
 190 0 l 1
 48 0 l 1
EndSplineSet
EndChar

StartChar: G
Encoding: 71 71 14
Width: 658
Flags: HW
LayerCount: 2
Fore
SplineSet
613.77734375 224 m 1
 359.77734375 224 l 1
 359.77734375 356 l 1
 613.77734375 356 l 1
 613.77734375 224 l 1
446.928710938 234 m 1
 553.77734375 254 l 1
 606 96 491.48828125 -12.5595703125 319.888671875 -12.5595703125 c 0
 148.2890625 -12.5595703125 36 116.400390625 36 314 c 0
 36 511.599609375 168.2890625 640.559570312 359.888671875 640.559570312 c 0
 470.5859375 640.559570312 537.673828125 618.524414062 537.673828125 618.524414062 c 1
 524.958984375 481.094726562 l 1
 524.958984375 481.094726562 471.006835938 502.09765625 379.888671875 502.09765625 c 0
 241.046875 502.09765625 172.668945312 426.53515625 172.848632812 314 c 0
 173 219 221.046875 125.90234375 319.888671875 125.90234375 c 0
 418.73046875 125.90234375 468 153 446.928710938 234 c 1
EndSplineSet
EndChar

StartChar: H
Encoding: 72 72 15
Width: 604
Flags: W
HStem: 0 21G<48 190 410 552> 256 132<68 532> 608 20G<48 190 410 552>
VStem: 48 142<0 256 388 628> 68 122<256 388> 410 142<0 256 388 628> 410 122<256 388>
LayerCount: 2
Fore
SplineSet
48 0 m 1xf0
 48 628 l 1
 190 628 l 1
 190 0 l 1
 48 0 l 1xf0
552 0 m 1xe4
 410 0 l 1
 410 628 l 1
 552 628 l 1
 552 0 l 1xe4
532 256 m 5xea
 68 256 l 5
 68 388 l 5
 532 388 l 5
 532 256 l 5xea
EndSplineSet
EndChar

StartChar: K
Encoding: 75 75 16
Width: 561
Flags: HW
LayerCount: 2
Fore
SplineSet
542 628 m 5
 149 135 l 4
 68 208 l 5
 360 628 l 5
 542 628 l 5
48 0 m 1
 48 628 l 1
 190 628 l 1
 190 0 l 1
 48 0 l 1
552 0 m 1
 370 0 l 1
 200 246 l 1
 299 329 l 1
 552 0 l 1
EndSplineSet
EndChar

StartChar: L
Encoding: 76 76 17
Width: 501
Flags: W
HStem: 0 132<48 456> 608 20G<48 190>
VStem: 48 142<132 628>
LayerCount: 2
Fore
SplineSet
48 0 m 1
 48 628 l 1
 190 628 l 1
 190 0 l 5
 48 0 l 1
456 0 m 5
 48 0 l 1
 48 132 l 1
 456 132 l 5
 456 0 l 5
EndSplineSet
EndChar

StartChar: M
Encoding: 77 77 18
Width: 704
Flags: HW
LayerCount: 2
Fore
SplineSet
400 170 m 1
 350 342 l 1
 510 628 l 1
 510 376 l 5
 400 170 l 1
48 0 m 1
 48 628 l 1
 190 628 l 1
 190 0 l 1
 48 0 l 1
652 0 m 1
 510 0 l 1
 510 628 l 1
 652 628 l 1
 652 0 l 1
300 170 m 1
 190 376 l 5
 190 628 l 1
 350 342 l 1
 400 170 l 1
 300 170 l 1
EndSplineSet
EndChar

StartChar: N
Encoding: 78 78 19
Width: 634
Flags: HW
LayerCount: 2
Fore
SplineSet
48 0 m 1
 48 628 l 1
 190 628 l 1
 190 0 l 1
 48 0 l 1
582 0 m 5
 440 0 l 5
 440 628 l 5
 582 628 l 5
 582 0 l 5
440 0 m 5
 190 376 l 1
 190 628 l 1
 440 242 l 5
 440 0 l 5
EndSplineSet
EndChar

StartChar: S
Encoding: 83 83 21
Width: 562
Flags: HW
LayerCount: 2
Fore
SplineSet
276.888671875 390.90234375 m 0
 444 353 522.77734375 298.599609375 522.77734375 181 c 0
 522.77734375 63.400390625 410.48828125 -12.5595703125 268.888671875 -12.5595703125 c 0
 138.19140625 -12.5595703125 31 58 31 58 c 1
 96 179 l 1
 96 179 157.770507812 125.90234375 268.888671875 125.90234375 c 0
 337.73046875 125.90234375 385.928710938 143.182617188 385.928710938 181 c 0
 385.928710938 214.817382812 364 236 256.888671875 262.440429688 c 0
 149.23046875 289.015625 53 336.400390625 53 454 c 0
 53 571.599609375 155.2890625 640.559570312 306.888671875 640.559570312 c 0
 427.5859375 640.559570312 502 602 502 602 c 1
 458.669921875 470 l 1
 458.669921875 470 398.006835938 502.09765625 306.888671875 502.09765625 c 0
 228.046875 502.09765625 189.848632812 483.817382812 189.848632812 450 c 0
 189.848632812 426.182617188 205.126249852 407.17870286 276.888671875 390.90234375 c 0
EndSplineSet
EndChar

StartChar: U
Encoding: 85 85 22
Width: 581
Flags: HW
LayerCount: 2
Fore
SplineSet
394.928710938 274 m 2
 394.927734375 628 l 1
 531.927734375 628 l 1
 531.776367188 274 l 2
 531.708984375 116.400390625 459.48828125 -12.5595703125 287.888671875 -12.5595703125 c 0
 116.2890625 -12.5595703125 44.4453125 116.401367188 44 274 c 6
 43 628 l 5
 181 628 l 5
 180.848632812 274 l 6
 180.817382812 200.182617188 189.046875 125.90234375 287.888671875 125.90234375 c 0
 386.73046875 125.90234375 395.137695312 200.18359375 394.928710938 274 c 2
EndSplineSet
EndChar

StartChar: V
Encoding: 86 86 23
Width: 607
Flags: HW
LayerCount: 2
Fore
SplineSet
32 628 m 1
 174 628 l 1
 344 0 l 1
 232 0 l 1
 32 628 l 1
574 628 m 1
 374 0 l 1
 262 0 l 1
 432 628 l 1
 574 628 l 1
EndSplineSet
EndChar

StartChar: W
Encoding: 87 87 24
Width: 842
Flags: HW
LayerCount: 2
Fore
SplineSet
808 628 m 1
 638 0 l 1
 526 0 l 1
 666 628 l 1
 808 628 l 1
379 526 m 1
 491 526 l 1
 608 0 l 1
 496 0 l 1
 379 526 l 1
32 628 m 1
 174 628 l 1
 314 0 l 1
 202 0 l 1
 32 628 l 1
461 526 m 5
 344 0 l 5
 232 0 l 5
 349 526 l 5
 461 526 l 5
EndSplineSet
EndChar

StartChar: X
Encoding: 88 88 25
Width: 569
Flags: HW
LayerCount: 2
Fore
SplineSet
32 628 m 1
 174 628 l 1
 280 436 l 5
 534 0 l 1
 392 0 l 1
 284 210 l 1
 32 628 l 1
534 628 m 1
 284 210 l 1
 174 0 l 1
 32 0 l 1
 280 436 l 5
 392 628 l 1
 534 628 l 1
EndSplineSet
EndChar

StartChar: Y
Encoding: 89 89 26
Width: 603
Flags: HW
LayerCount: 2
Fore
SplineSet
230 230 m 1
 372 230 l 1
 372 0 l 1
 230 0 l 1
 230 230 l 1
30 628 m 1
 182 628 l 1
 336 250 l 1
 372 230 l 1
 230 230 l 1
 30 628 l 1
572 628 m 1
 372 230 l 1
 254 250 l 1
 420 628 l 5
 572 628 l 1
EndSplineSet
EndChar

StartChar: Z
Encoding: 90 90 27
Width: 523
Flags: HW
LayerCount: 2
Fore
SplineSet
478 0 m 1
 40 0 l 1
 40 132 l 1
 478 132 l 1
 478 0 l 1
468 496 m 1
 50 496 l 1
 50 628 l 1
 468 628 l 1
 468 496 l 1
40 132 m 1
 316 496 l 1
 468 496 l 1
 202 132 l 5
 40 132 l 1
EndSplineSet
EndChar

StartChar: J
Encoding: 74 74 28
Width: 504
Flags: HW
LayerCount: 2
Fore
SplineSet
317.928710938 204 m 2
 316.927734375 598 l 1
 454.927734375 598 l 1
 454.776367188 204 l 2
 454.734375 86 382.684800986 -12.6531918631 246.888671875 -12.55859375 c 0
 123.122979514 -12.4723762632 55 78 55 78 c 1
 154 176 l 1
 203 94 318.163934886 104.36234819 317.928710938 204 c 2
454.927734375 496 m 1
 200.927734375 496 l 1
 200.927734375 628 l 1
 454.927734375 628 l 1
 454.927734375 496 l 1
EndSplineSet
EndChar

StartChar: zero
Encoding: 48 48 29
Width: 608
Flags: W
HStem: -12.5596 138.462<231.968 379.81> 502.098 138.462<231.968 379.81>
VStem: 42 136.849<187.008 440.992> 432.929 136.849<187.008 440.992>
LayerCount: 2
Fore
SplineSet
178.848632812 314 m 0
 178.848632812 200.182617188 207.046875 125.90234375 305.888671875 125.90234375 c 0
 404.73046875 125.90234375 432.928710938 200.182617188 432.928710938 314 c 4
 432.928710938 427.817382812 404.73046875 502.09765625 305.888671875 502.09765625 c 0
 207.046875 502.09765625 178.848632812 427.817382812 178.848632812 314 c 0
42 314 m 0
 42 511.599609375 134.2890625 640.559570312 305.888671875 640.559570312 c 0
 477.48828125 640.559570312 569.77734375 511.599609375 569.77734375 314 c 4
 569.77734375 116.400390625 477.48828125 -12.5595703125 305.888671875 -12.5595703125 c 0
 134.2890625 -12.5595703125 42 116.400390625 42 314 c 0
EndSplineSet
Substitution2: "'frac' Diagonal Fractions in Latin lookup 22 subtable" zero.numr
Substitution2: "'sups' Superscript lookup 0 subtable" zero.sups
Substitution2: "'subs' Subscript lookup 0 subtable" zero.subs
Substitution2: "'sinf' Scientific Inferiors lookup 0 subtable" zero.sinf
Substitution2: "'tnum' Tabular Numbers in Latin lookup 5-1" zero.tf
Substitution2: "'onum' Oldstyle Figures in Latin lookup 4-1" zero.osf
Substitution2: "'dnom' Denominators lookup 0 subtable" zero.dnom
Substitution2: "'numr' Numerators lookup 0 subtable" zero.numr
EndChar

StartChar: three
Encoding: 51 51 30
Width: 535
Flags: HW
LayerCount: 2
Fore
SplineSet
224 357 m 1
 453 351 498.22265625 231.743164062 498.22265625 164.143554688 c 0
 498.22265625 46.5439453125 385.93359375 -12.416015625 234.333984375 -12.416015625 c 0
 123.63671875 -12.416015625 30 45 30 45 c 5
 82.552734375 168.143554688 l 5
 82.552734375 168.143554688 153.215820312 126.045898438 234.333984375 126.045898438 c 0
 313.17578125 126.045898438 361.374023438 154.326171875 361.374023438 188.143554688 c 0
 361.374023438 241.9609375 291 267 224 267 c 1
 224 357 l 1
224 317 m 1
 224 387 l 1
 288 387 351.928710938 401.182617188 351.928710938 445 c 0
 351.928710938 478.817382812 313.73046875 502.09765625 234.888671875 502.09765625 c 0
 153.770507812 502.09765625 113.107421875 470 113.107421875 470 c 5
 59.77734375 592 l 5
 59.77734375 592 124.19140625 640.559570312 234.888671875 640.559570312 c 0
 386.48828125 640.559570312 488.77734375 581.599609375 488.77734375 464 c 0
 488.77734375 346.400390625 355 301 224 317 c 1
EndSplineSet
Substitution2: "'frac' Diagonal Fractions in Latin lookup 22 subtable" three.numr
Substitution2: "'sups' Superscript lookup 0 subtable" three.sups
Substitution2: "'subs' Subscript lookup 0 subtable" three.subs
Substitution2: "'sinf' Scientific Inferiors lookup 0 subtable" three.sinf
Substitution2: "'tnum' Tabular Numbers in Latin lookup 5-1" three.tf
Substitution2: "'onum' Oldstyle Figures in Latin lookup 4-1" three.osf
Substitution2: "'dnom' Denominators lookup 0 subtable" three.dnom
Substitution2: "'numr' Numerators lookup 0 subtable" three.numr
EndChar

StartChar: four
Encoding: 52 52 31
Width: 598
Flags: HW
LayerCount: 2
Fore
SplineSet
560 145 m 5
 46 145 l 5
 46 277 l 5
 560 277 l 5
 560 145 l 5
317 446 m 1
 196 277 l 5
 46 277 l 5
 317 628 l 1
 317 446 l 1
317 0 m 1
 317 628 l 1
 459 628 l 1
 459 0 l 1
 317 0 l 1
EndSplineSet
Substitution2: "'frac' Diagonal Fractions in Latin lookup 22 subtable" four.numr
Substitution2: "'sups' Superscript lookup 0 subtable" four.sups
Substitution2: "'subs' Subscript lookup 0 subtable" four.subs
Substitution2: "'sinf' Scientific Inferiors lookup 0 subtable" four.sinf
Substitution2: "'tnum' Tabular Numbers in Latin lookup 5-1" four.tf
Substitution2: "'onum' Oldstyle Figures in Latin lookup 4-1" four.osf
Substitution2: "'dnom' Denominators lookup 0 subtable" four.dnom
Substitution2: "'numr' Numerators lookup 0 subtable" four.numr
EndChar

StartChar: five
Encoding: 53 53 32
Width: 542
Flags: HW
LayerCount: 2
Fore
SplineSet
81.22265625 628.0546875 m 1
 205.22265625 628.0546875 l 1
 159 321 l 1
 44.22265625 343.0546875 l 1
 81.22265625 628.0546875 l 1
81.22265625 628.0546875 m 1
 475.22265625 628.0546875 l 1
 475.22265625 497.0546875 l 1
 162.22265625 497.0546875 l 1
 81.22265625 628.0546875 l 1
97 261 m 1
 44.22265625 343.0546875 l 0
 144 356 l 1
 215 441 505.111328125 442.590375552 505.111328125 212 c 0
 505.111328125 74.400390625 397.7109375 -12.5048828125 246.111328125 -12.5048828125 c 0
 135.4140625 -12.5048828125 31 36.0546875 31 36.0546875 c 1
 74.330078125 168.0546875 l 1
 74.330078125 168.0546875 164.993164062 125.95703125 246.111328125 125.95703125 c 0
 324.953125 125.95703125 363.151367188 164.237304688 363.151367188 218.0546875 c 0
 363.151367188 271.872070312 317 346 97 261 c 1
EndSplineSet
Substitution2: "'frac' Diagonal Fractions in Latin lookup 22 subtable" five.numr
Substitution2: "'sups' Superscript lookup 0 subtable" five.sups
Substitution2: "'subs' Subscript lookup 0 subtable" five.subs
Substitution2: "'sinf' Scientific Inferiors lookup 0 subtable" five.sinf
Substitution2: "'tnum' Tabular Numbers in Latin lookup 5-1" five.tf
Substitution2: "'onum' Oldstyle Figures in Latin lookup 4-1" five.osf
Substitution2: "'dnom' Denominators lookup 0 subtable" five.dnom
Substitution2: "'numr' Numerators lookup 0 subtable" five.numr
EndChar

StartChar: six
Encoding: 54 54 33
Width: 589
Flags: HW
LayerCount: 2
Fore
SplineSet
306.322265625 126.081054688 m 0
 365.173828125 126.081054688 400.408203125 156.01953125 401 206 c 0
 401.369140625 237.16015625 381.706054688 276.2421875 307 276 c 0
 244.390625 275.796875 213 247.536132812 213 208 c 0
 213 149.8046875 256 126.081054688 306.322265625 126.081054688 c 0
178.864249268 317.8421894 m 1
 197.145028415 357.598160663 237.303155914 397.882026312 325 397.760742188 c 0
 472.113253905 397.557285568 552.193359375 314.1875 552 194 c 0
 551.826171875 86.140625 466.889648438 -12.5595703125 305.888671875 -12.5595703125 c 0
 134.2890625 -12.5595703125 42 116.400390625 42 314 c 0
 42 511.599609375 134.2890625 640.559570312 325.888671875 640.559570312 c 0
 466.5859375 640.559570312 537 572 537 572 c 1
 468 455 l 1
 468 455 417.006835938 502.09765625 335.888671875 502.09765625 c 0
 228.290256954 502.09765625 179.862318896 428.251710062 178.864249268 317.8421894 c 1
EndSplineSet
Substitution2: "'frac' Diagonal Fractions in Latin lookup 22 subtable" six.numr
Substitution2: "'ss03' Style Set 3 lookup 11-1" six.salt
Substitution2: "'sups' Superscript lookup 0 subtable" six.sups
Substitution2: "'subs' Subscript lookup 0 subtable" six.subs
Substitution2: "'sinf' Scientific Inferiors lookup 0 subtable" six.sinf
Substitution2: "'tnum' Tabular Numbers in Latin lookup 5-1" six.tf
Substitution2: "'onum' Oldstyle Figures in Latin lookup 4-1" six.osf
Substitution2: "'salt' Stylistic Alternatives in Latin lookup 3-1" six.salt
Substitution2: "'dnom' Denominators lookup 0 subtable" six.dnom
Substitution2: "'numr' Numerators lookup 0 subtable" six.numr
EndChar

StartChar: seven
Encoding: 55 55 34
Width: 528
Flags: HW
LayerCount: 2
Fore
SplineSet
494 496 m 1
 36 496 l 1
 36 628 l 1
 494 628 l 1
 494 496 l 1
129 0 m 1
 149 345 352 496 352 496 c 1
 494 496 l 1
 494 496 301 362 281 0 c 1
 129 0 l 1
EndSplineSet
Substitution2: "'frac' Diagonal Fractions in Latin lookup 22 subtable" seven.numr
Substitution2: "'sups' Superscript lookup 0 subtable" seven.sups
Substitution2: "'subs' Subscript lookup 0 subtable" seven.subs
Substitution2: "'sinf' Scientific Inferiors lookup 0 subtable" seven.sinf
Substitution2: "'tnum' Tabular Numbers in Latin lookup 5-1" seven.tf
Substitution2: "'onum' Oldstyle Figures in Latin lookup 4-1" seven.osf
Substitution2: "'dnom' Denominators lookup 0 subtable" seven.dnom
Substitution2: "'numr' Numerators lookup 0 subtable" seven.numr
EndChar

StartChar: eight
Encoding: 56 56 35
Width: 566
Flags: HW
LayerCount: 2
Fore
SplineSet
201.552734375 455.65625 m 0
 201.552734375 428.856445312 226.930664062 404.368164062 285.888671875 404.368164062 c 0
 344.846679688 404.368164062 370.224609375 427.220703125 370.224609375 455.65625 c 0
 370.224609375 489.091796875 344.846679688 515.944335938 285.888671875 515.944335938 c 0
 226.930664062 515.944335938 201.552734375 489.091796875 201.552734375 455.65625 c 0
68.388671875 474.65625 m 0
 68.388671875 578.49609375 151.44921875 640.559570312 285.888671875 640.559570312 c 0
 420.328125 640.559570312 503.388671875 578.49609375 503.388671875 474.65625 c 0
 503.388671875 360.81640625 420.328125 309.752929688 285.888671875 309.752929688 c 0
 151.44921875 309.752929688 68.388671875 362.452148438 68.388671875 474.65625 c 0
177.848632812 202 m 0
 177.848632812 160 207.046875 125.90234375 285.888671875 125.90234375 c 0
 364.73046875 125.90234375 392.928710938 158.182617188 392.928710938 202 c 0
 392.928710938 235.817382812 364.73046875 272.09765625 285.888671875 272.09765625 c 0
 207.046875 272.09765625 177.848632812 235.817382812 177.848632812 202 c 0
42 184 m 0
 42 301.599609375 134.2890625 360.559570312 285.888671875 360.559570312 c 0
 437.48828125 360.559570312 529.77734375 301.599609375 529.77734375 184 c 0
 529.77734375 66.400390625 437.48828125 -12.5595703125 285.888671875 -12.5595703125 c 0
 134.2890625 -12.5595703125 42 68.2177734375 42 184 c 0
EndSplineSet
Substitution2: "'frac' Diagonal Fractions in Latin lookup 22 subtable" eight.numr
Substitution2: "'sups' Superscript lookup 0 subtable" eight.sups
Substitution2: "'subs' Subscript lookup 0 subtable" eight.subs
Substitution2: "'sinf' Scientific Inferiors lookup 0 subtable" eight.sinf
Substitution2: "'tnum' Tabular Numbers in Latin lookup 5-1" eight.tf
Substitution2: "'onum' Oldstyle Figures in Latin lookup 4-1" eight.osf
Substitution2: "'dnom' Denominators lookup 0 subtable" eight.dnom
Substitution2: "'numr' Numerators lookup 0 subtable" eight.numr
EndChar

StartChar: nine
Encoding: 57 57 36
Width: 584
Flags: W
HStem: -12.5596 138.462<95.3958 337.87> 230.239 121.842<204.95 344.268> 502 138.56<210.369 344.524>
VStem: 36 147<375.524 473.843> 409.151 136.849<199.571 414.622>
LayerCount: 2
Fore
SplineSet
277.677734375 502 m 4
 218.826171875 502 183.591796875 472.061523438 183 422.081054688 c 4
 182.630859375 390.920898438 202.293945312 351.838867188 277 352.081054688 c 4
 339.609375 352.284179688 371 380.544921875 371 420.081054688 c 4
 371 478.276367188 328 502 277.677734375 502 c 4
409.140741602 317.645243606 m 1
 409.140741602 317.645243606 369.9081481 230.119064727 263 230.239257812 c 0
 115.886698379 230.404652142 35.806640625 313.8125 36 434 c 0
 36.173828125 541.859375 121.110351562 640.559570312 282.111328125 640.559570312 c 0
 453.7109375 640.559570312 546 511.599609375 546 314 c 0
 546 116.400390625 453.7109375 -12.5595703125 262.111328125 -12.5595703125 c 0
 151.4140625 -12.5595703125 84.326171875 9.4755859375 84.326171875 9.4755859375 c 1
 97.041015625 146.905273438 l 1
 97.041015625 146.905273438 150.993164062 125.90234375 242.111328125 125.90234375 c 0
 380.953125 125.90234375 409.151367188 207 409.151367188 314 c 0
 409.151367188 315.223077572 409.140741602 317.645243606 409.140741602 317.645243606 c 1
EndSplineSet
Substitution2: "'frac' Diagonal Fractions in Latin lookup 22 subtable" nine.numr
Substitution2: "'ss03' Style Set 3 lookup 11-1" nine.salt
Substitution2: "'sups' Superscript lookup 0 subtable" nine.sups
Substitution2: "'subs' Subscript lookup 0 subtable" nine.subs
Substitution2: "'sinf' Scientific Inferiors lookup 0 subtable" nine.sinf
Substitution2: "'tnum' Tabular Numbers in Latin lookup 5-1" nine.tf
Substitution2: "'onum' Oldstyle Figures in Latin lookup 4-1" nine.osf
Substitution2: "'salt' Stylistic Alternatives in Latin lookup 3-1" nine.salt
Substitution2: "'dnom' Denominators lookup 0 subtable" nine.dnom
Substitution2: "'numr' Numerators lookup 0 subtable" nine.numr
EndChar

StartChar: period
Encoding: 46 46 37
Width: 273
Flags: HW
LayerCount: 2
Fore
SplineSet
48 91.5625 m 0
 48 149.181640625 86.57421875 186.787109375 136.612304688 186.787109375 c 0
 186.651367188 186.787109375 225.2265625 149.181640625 225.2265625 91.5625 c 0
 225.2265625 33.9423828125 186.651367188 -3.662109375 136.612304688 -3.662109375 c 0
 86.57421875 -3.662109375 48 33.9423828125 48 91.5625 c 0
EndSplineSet
EndChar

StartChar: comma
Encoding: 44 44 38
Width: 271
Flags: HW
LayerCount: 2
Fore
SplineSet
47 91.5625 m 0
 47 149.181640625 85.57421875 186.787109375 135.612304688 186.787109375 c 0
 185.65234375 186.787109375 224.227539062 149.181640625 224.227539062 91.5625 c 0
 224.227539062 10.7900390625 130.834960938 -86.0224609375 130.834960938 -86.0224609375 c 1
 65.9541015625 -47.3857421875 l 1
 118.624023438 0.6298828125 l 1
 71.5978016827 5.10777904277 47 45.5497463629 47 91.5625 c 0
EndSplineSet
EndChar

StartChar: colon
Encoding: 58 58 39
Width: 273
Flags: HW
LayerCount: 2
Fore
SplineSet
48 332.1328125 m 4
 48 389.752929688 86.57421875 427.357421875 136.612304688 427.357421875 c 4
 186.651367188 427.357421875 225.2265625 389.752929688 225.2265625 332.1328125 c 4
 225.2265625 274.512695312 186.651367188 236.907226562 136.612304688 236.907226562 c 4
 86.57421875 236.907226562 48 274.512695312 48 332.1328125 c 4
48 91.5625 m 0
 48 149.181640625 86.57421875 186.787109375 136.612304688 186.787109375 c 0
 186.651367188 186.787109375 225.2265625 149.181640625 225.2265625 91.5625 c 0
 225.2265625 33.9423828125 186.651367188 -3.662109375 136.612304688 -3.662109375 c 0
 86.57421875 -3.662109375 48 33.9423828125 48 91.5625 c 0
EndSplineSet
EndChar

StartChar: semicolon
Encoding: 59 59 40
Width: 272
Flags: HW
LayerCount: 2
Fore
SplineSet
47 91.5625 m 0
 47 149.181640625 85.57421875 186.787109375 135.612304688 186.787109375 c 0
 185.65234375 186.787109375 224.227539062 149.181640625 224.227539062 91.5625 c 4
 224.227539062 10.7900390625 130.834960938 -86.0224609375 130.834960938 -86.0224609375 c 1
 65.9541015625 -47.3857421875 l 1
 118.624023438 0.6298828125 l 1
 71.5978016827 5.10777904277 47 45.5497463629 47 91.5625 c 0
48 332.1328125 m 0
 48 389.752929688 86.57421875 427.357421875 136.612304688 427.357421875 c 0
 186.65234375 427.357421875 225.227539062 389.752929688 225.227539062 332.1328125 c 0
 225.227539062 274.512695312 186.65234375 236.907226562 136.612304688 236.907226562 c 0
 86.57421875 236.907226562 48 274.512695312 48 332.1328125 c 0
EndSplineSet
EndChar

StartChar: exclam
Encoding: 33 33 41
Width: 255
Flags: HW
LayerCount: 2
Fore
SplineSet
76 230 m 5
 56 628 l 5
 198 628 l 5
 178 230 l 5
 76 230 l 5
39 91.5625 m 0
 39 149.181640625 77.57421875 186.787109375 127.612304688 186.787109375 c 0
 177.651367188 186.787109375 216.2265625 149.181640625 216.2265625 91.5625 c 0
 216.2265625 33.9423828125 177.651367188 -3.662109375 127.612304688 -3.662109375 c 0
 77.57421875 -3.662109375 39 33.9423828125 39 91.5625 c 0
EndSplineSet
EndChar

StartChar: question
Encoding: 63 63 42
Width: 541
Flags: HW
LayerCount: 2
Fore
SplineSet
207.22265625 368 m 1
 207.22265625 368 364.151367188 340.182617188 364.151367188 434 c 0
 364.151367188 487.817382812 325.953125 502.09765625 247.111328125 502.09765625 c 0
 165.993164062 502.09765625 75.330078125 460 75.330078125 460 c 1
 32 592 l 1
 32 592 136.4140625 640.559570312 247.111328125 640.559570312 c 0
 398.7109375 640.559570312 506.111328125 563.654296875 506.111328125 446.0546875 c 0
 506.111328125 328.455078125 395.22265625 262 257.22265625 283 c 0
 207.22265625 368 l 1
202.22265625 230 m 1
 207.22265625 368 l 1
 299.22265625 321 l 1
 304.22265625 230 l 1
 202.22265625 230 l 1
165.22265625 91.5625 m 0
 165.22265625 149.181640625 203.796875 186.787109375 253.834960938 186.787109375 c 0
 303.874023438 186.787109375 342.44921875 149.181640625 342.44921875 91.5625 c 0
 342.44921875 33.9423828125 303.874023438 -3.662109375 253.834960938 -3.662109375 c 0
 203.796875 -3.662109375 165.22265625 33.9423828125 165.22265625 91.5625 c 0
EndSplineSet
EndChar

StartChar: at
Encoding: 64 64 43
Width: 687
Flags: HW
HStem: -72.5596 119.652<265.09 509.901> 127.5 103.407<476.807 525.627> 127.5 89.0244<309.146 367.431> 291.668 89.0244<309.146 375.462> 471.907 108.652<256.792 450.289>
VStem: 36 115.145<158.486 364.214> 195.416 111.485<218.212 289.981> 533.633 110.145<233.891 393.073>
LayerCount: 2
Fore
SplineSet
342.513671875 214.983398438 m 0xbf
 365.790039062 213.759765625 375.354492188 229.474609375 377.596679688 250.8671875 c 0
 379.838867188 272.258789062 372.560546875 288.858398438 350.37890625 290.0234375 c 0
 327.103515625 291.247070312 317.178710938 275.551757812 314.936523438 254.16015625 c 0
 312.694335938 232.767578125 319.237304688 216.206054688 342.513671875 214.983398438 c 0xbf
313.844726562 127.09765625 m 0
 245.174804688 130.70703125 195.430664062 179.099609375 203.909179688 259.995117188 c 0
 212.388671875 340.888671875 271.609375 381.880859375 340.34765625 379.943359375 c 4
 411.435546875 377.939453125 428.373046875 303 428.373046875 238.198242188 c 0
 428.373046875 167.90625 378.1328125 123.719726562 313.844726562 127.09765625 c 0
359.888671875 -72.5595703125 m 0
 168.2890625 -72.5595703125 36 56.400390625 36 254 c 0
 36 451.599609375 178.2890625 580.559570312 349.888671875 580.559570312 c 0
 521.48828125 580.559570312 643.77734375 481.599609375 643.77734375 324 c 0
 643.77734375 224.541992188 609.510742188 127.5 506.111328125 127.5 c 0
 400.129882812 127.5 342.333984375 235.982421875 403.435546875 377.939453125 c 1
 489.7421875 377.939453125 l 1
 454.303710938 268.162109375 476.424804688 230.907226562 501.111328125 230.907226562 c 0xdf
 521.611328125 230.907226562 533.6328125 254.734375 533.6328125 303.5 c 0
 533.6328125 416.69921875 459.614257812 471.907226562 350.888671875 471.907226562 c 0
 242.163085938 471.907226562 151.14453125 399.19921875 151.14453125 264 c 0
 151.14453125 128.80078125 231.163085938 47.0927734375 372.888671875 47.0927734375 c 0
 527.614257812 47.0927734375 583.123046875 102.951171875 583.123046875 102.951171875 c 1
 629.47265625 -11.8828125 l 1
 629.47265625 -11.8828125 521.48828125 -72.5595703125 359.888671875 -72.5595703125 c 0
EndSplineSet
Substitution2: "'case' Case-Sensitive Forms in Latin lookup 6-1" at.case
EndChar

StartChar: a
Encoding: 97 97 44
Width: 496
Flags: W
HStem: -10.0479 136.865<196.478 299.698> 0 21G<319.622 460.222> 295.582 136.865<196.478 299.698> 402.4 20G<319.622 460.222>
VStem: 33 144.206<145.746 276.654> 319.622 140.6<211.2 422.4> 319.622 43.5996<63.1201 359.279>
LayerCount: 2
Fore
SplineSet
248.111328125 295.58203125 m 4xa8
 208.852539062 295.58203125 177.206054688 274.04296875 177.206054688 211.200195312 c 4
 177.206054688 148.357421875 208.852539062 126.817382812 248.111328125 126.817382812 c 4
 287.370117188 126.817382812 319.016601562 148.357421875 319.016601562 211.200195312 c 4
 319.016601562 274.04296875 287.370117188 295.58203125 248.111328125 295.58203125 c 4xa8
218.111328125 -10.0478515625 m 4
 104.831054688 -10.0478515625 33 63.1201171875 33 211.200195312 c 4
 33 359.279296875 104.831054688 432.447265625 218.111328125 432.447265625 c 4
 331.391601562 432.447265625 363.221679688 359.279296875 363.221679688 211.200195312 c 4xaa
 363.221679688 63.1201171875 331.391601562 -10.0478515625 218.111328125 -10.0478515625 c 4
460.221679688 0 m 1x5c
 319.622070312 0 l 1x5a
 319.622070312 422.400390625 l 1
 460.221679688 422.400390625 l 1
 460.221679688 0 l 1x5c
EndSplineSet
Substitution2: "'ss01' Style Set 1 lookup 9-1" a.salt
Substitution2: "'salt' Stylistic Alternatives in Latin lookup 3-1" a.salt
EndChar

StartChar: o
Encoding: 111 111 45
Width: 489
Flags: W
HStem: -10.0479 136.865<190.893 295.33> 295.582 136.865<190.893 295.33>
VStem: 28 144.206<145.746 276.654> 314.017 144.206<145.746 276.654>
LayerCount: 2
Fore
SplineSet
243.111328125 -10.0478515625 m 0
 129.831054688 -10.0478515625 28 63.1201171875 28 211.200195312 c 0
 28 359.279296875 129.831054688 432.447265625 243.111328125 432.447265625 c 0
 356.391601562 432.447265625 458.22265625 359.279296875 458.22265625 211.200195312 c 0
 458.22265625 63.1201171875 356.391601562 -10.0478515625 243.111328125 -10.0478515625 c 0
243.111328125 295.58203125 m 0
 203.852539062 295.58203125 172.206054688 274.04296875 172.206054688 211.200195312 c 0
 172.206054688 148.357421875 203.852539062 126.817382812 243.111328125 126.817382812 c 0
 282.370117188 126.817382812 314.016601562 148.357421875 314.016601562 211.200195312 c 0
 314.016601562 274.04296875 282.370117188 295.58203125 243.111328125 295.58203125 c 0
EndSplineSet
EndChar

StartChar: i
Encoding: 105 105 46
Width: 215
Flags: HW
LayerCount: 2
Fore
SplineSet
27 571.5625 m 0
 27 609.181640625 45.57421875 646.787109375 105.612304688 646.787109375 c 0
 165.651367188 646.787109375 184.2265625 609.181640625 184.2265625 571.5625 c 0
 184.2265625 533.942382812 165.651367188 496.337890625 105.612304688 496.337890625 c 0
 45.57421875 496.337890625 27 533.942382812 27 571.5625 c 0
36.11328125 0 m 5
 36.11328125 422.400390625 l 5
 176.712890625 422.400390625 l 5
 176.712890625 0 l 5
 36.11328125 0 l 5
EndSplineSet
EndChar

StartChar: l
Encoding: 108 108 47
Width: 290
Flags: W
HStem: -10.041 137.366<176.167 258.964> 625.4 20G<27.1064 167.711>
VStem: 27 140.711<137.173 645.4>
LayerCount: 2
Fore
SplineSet
167.7109375 645.400390625 m 1
 167.7109375 180.400390625 l 2
 167.7109375 131.557617188 205.852539062 127.325195312 225.111328125 127.325195312 c 0
 244.220703125 127.325195312 258.111328125 136 258.111328125 136 c 1
 267.111328125 2.3115234375 l 1
 267.111328125 2.3115234375 246.2734375 -10.041015625 207.111328125 -10.041015625 c 0
 113.831054688 -10.041015625 27 33.126953125 27 191.206054688 c 2
 27.111328125 645.400390625 l 1
 167.7109375 645.400390625 l 1
EndSplineSet
Substitution2: "'ss02' Style Set 2 lookup 10-1" l.salt
Substitution2: "'salt' Stylistic Alternatives in Latin lookup 3-1" l.salt
EndChar

StartChar: j
Encoding: 106 106 48
Width: 215
Flags: HW
LayerCount: 2
Fore
SplineSet
27 571.5625 m 0
 27 609.181640625 45.57421875 646.787109375 105.612304688 646.787109375 c 0
 165.651367188 646.787109375 184.2265625 609.181640625 184.2265625 571.5625 c 0
 184.2265625 533.942382812 165.651367188 496.337890625 105.612304688 496.337890625 c 0
 45.57421875 496.337890625 27 533.942382812 27 571.5625 c 0
36.11328125 422.400390625 m 5
 176.712890625 422.400390625 l 5
 176.712890625 5.376953125 l 6
 176.712890625 -152.702148438 74.8818359375 -215.870117188 -38.3984375 -215.870117188 c 4
 -85.560546875 -215.870117188 -102.243164062 -209 -102.243164062 -209 c 5
 -92.482421875 -70.501953125 l 5
 -92.482421875 -70.501953125 -75.5078125 -79.0048828125 -38.3984375 -79.0048828125 c 4
 0.8603515625 -79.0048828125 36.11328125 -67.4658203125 36.11328125 5.376953125 c 6
 36.11328125 422.400390625 l 5
EndSplineSet
EndChar

StartChar: b
Encoding: 98 98 49
Width: 496
Flags: HW
LayerCount: 2
Fore
SplineSet
280.110351562 -10.0478515625 m 0
 166.830078125 -10.0478515625 135 63.1201171875 135 211.200195312 c 0
 135 359.279296875 166.830078125 432.447265625 280.110351562 432.447265625 c 0
 393.390625 432.447265625 465.221679688 359.279296875 465.221679688 211.200195312 c 0
 465.221679688 63.1201171875 393.390625 -10.0478515625 280.110351562 -10.0478515625 c 0
250.110351562 295.58203125 m 0
 210.8515625 295.58203125 179.205078125 274.04296875 179.205078125 211.200195312 c 0
 179.205078125 148.357421875 210.8515625 126.817382812 250.110351562 126.817382812 c 0
 289.369140625 126.817382812 321.015625 148.357421875 321.015625 211.200195312 c 0
 321.015625 274.04296875 289.369140625 295.58203125 250.110351562 295.58203125 c 0
33 0 m 1
 33 645.400390625 l 5
 173.599609375 645.400390625 l 5
 173.599609375 85 l 1
 163.599609375 0 l 1
 33 0 l 1
EndSplineSet
Substitution2: "'ss06' Style Set 6 lookup 14-1" b.salt
Substitution2: "'salt' Stylistic Alternatives in Latin lookup 3-1" b.salt
EndChar

StartChar: t
Encoding: 116 116 50
Width: 377
Flags: W
HStem: -10.0479 136.865<248.525 382.096> 290.4 132<27 345>
VStem: 92 140.6<143.36 538.223>
LayerCount: 2
Fore
SplineSet
345 422.400390625 m 1
 345 290.400390625 l 1
 27 290.400390625 l 1
 27 422.400390625 l 1
 345 422.400390625 l 1
232.599609375 558.22265625 m 5
 232.599609375 201.19921875 l 6
 232.599609375 138.356445312 267.852539062 126.817382812 307.111328125 126.817382812 c 4
 344.220703125 126.817382812 381.1953125 140.3203125 381.1953125 140.3203125 c 5
 390.956054688 2.822265625 l 5
 390.956054688 2.822265625 364.2734375 -10.0478515625 307.111328125 -10.0478515625 c 4
 193.831054688 -10.0478515625 92 33.1201171875 92 191.19921875 c 6
 92 538.22265625 l 5
 232.599609375 558.22265625 l 5
EndSplineSet
Substitution2: "'ss09' Style Set 9 lookup 17-1" t.salt
Substitution2: "'salt' Stylistic Alternatives in Latin lookup 3-1" t.salt
EndChar

StartChar: c
Encoding: 99 99 51
Width: 423
Flags: HW
LayerCount: 2
Fore
SplineSet
28 211.200195312 m 4
 28 359.279296875 129.831054688 432.447265625 263.111328125 432.447265625 c 4
 340.2734375 432.447265625 386.956054688 409.577148438 386.956054688 409.577148438 c 5
 377.1953125 272.079101562 l 5
 377.1953125 272.079101562 320.220703125 295.58203125 263.111328125 295.58203125 c 4
 203.852539062 295.58203125 172.206054688 274.04296875 172.206054688 211.200195312 c 4
 172.206054688 148.357421875 203.852539062 126.817382812 263.111328125 126.817382812 c 4
 318.465820312 126.817382812 375 148 375 148 c 1
 396.404296875 12.552734375 l 1
 396.404296875 12.552734375 340.0546875 -10.0478515625 243.111328125 -10.0478515625 c 4
 149.831054688 -10.0478515625 28 63.1201171875 28 211.200195312 c 4
EndSplineSet
EndChar

StartChar: d
Encoding: 100 100 52
Width: 500
Flags: HW
LayerCount: 2
Fore
SplineSet
239.111328125 295.58203125 m 0
 199.852539062 295.58203125 168.206054688 274.04296875 168.206054688 211.200195312 c 0
 168.206054688 148.357421875 199.852539062 126.817382812 239.111328125 126.817382812 c 0
 278.370117188 126.817382812 310.016601562 148.357421875 310.016601562 211.200195312 c 0
 310.016601562 274.04296875 278.370117188 295.58203125 239.111328125 295.58203125 c 0
209.111328125 -10.0478515625 m 0
 95.8310546875 -10.0478515625 24 63.1201171875 24 211.200195312 c 0
 24 359.279296875 95.8310546875 432.447265625 209.111328125 432.447265625 c 0
 322.391601562 432.447265625 354.221679688 359.279296875 354.221679688 211.200195312 c 0
 354.221679688 63.1201171875 322.391601562 -10.0478515625 209.111328125 -10.0478515625 c 0
476.221679688 0 m 5
 325.622070312 0 l 5
 325.622070312 0 315.622070312 31 315.622070312 89 c 6
 315.622070312 645.400390625 l 5
 456.221679688 645.400390625 l 5
 456.221679688 145 l 6
 456.221679688 82 476.221679688 0 476.221679688 0 c 5
EndSplineSet
Substitution2: "'ss06' Style Set 6 lookup 14-1" d.salt
Substitution2: "'salt' Stylistic Alternatives in Latin lookup 3-1" d.salt
EndChar

StartChar: e
Encoding: 101 101 53
Width: 466
Flags: HW
LayerCount: 2
Fore
SplineSet
454.221679688 199 m 5
 320.775390625 170.426757812 189 162 50.2216796875 174 c 5
 50.2216796875 256 l 5
 197 249 288.860351562 259.397460938 366.221679688 281 c 5
 454.221679688 199 l 5
172.206054688 211 m 0
 172.284179688 148.311523438 183.915039062 126.817382812 273.111328125 126.817382812 c 0
 348.465820312 126.817382812 395 148 395 148 c 1
 426.404296875 22.552734375 l 1
 426.404296875 22.552734375 370.0546875 -10.0478515625 253.111328125 -10.0478515625 c 0
 129.873046875 -10.0478515625 28.109375 63.0537109375 28 211 c 0
 27.890625 359.079101562 137.831054688 432.247070312 241.111328125 432.247070312 c 0
 346.390625 432.247070312 454.221679688 357.079101562 454.221679688 199 c 1
 310 199 l 1
 320 288 277.370117188 295.381835938 241.111328125 295.381835938 c 0
 206.852539062 295.381835938 172.206054688 273.842773438 172.206054688 211 c 0
EndSplineSet
Substitution2: "'ss07' Style Set 7 lookup 15-1" e.salt
Substitution2: "'salt' Stylistic Alternatives in Latin lookup 3-1" e.salt
EndChar

StartChar: f
Encoding: 102 102 54
Width: 370
Flags: W
HStem: 0 21G<97 237.6> 290.4 132<26 344> 531.405 136.865<253.525 387.096>
VStem: 97 140.6<0 511.486>
LayerCount: 2
Fore
SplineSet
344 290.400390625 m 1
 26 290.400390625 l 1
 26 422.400390625 l 1
 344 422.400390625 l 1
 344 290.400390625 l 1
237.599609375 0 m 5
 97 0 l 5
 97 457.0234375 l 6
 97 615.102539062 198.831054688 668.270507812 312.111328125 668.270507812 c 4
 369.2734375 668.270507812 395.956054688 655.400390625 395.956054688 655.400390625 c 5
 386.1953125 517.90234375 l 5
 386.1953125 517.90234375 349.220703125 531.405273438 312.111328125 531.405273438 c 4
 272.852539062 531.405273438 237.599609375 519.866210938 237.599609375 457.0234375 c 6
 237.599609375 0 l 5
EndSplineSet
EndChar

StartChar: p
Encoding: 112 112 55
Width: 496
Flags: HW
LayerCount: 2
Fore
SplineSet
280.110351562 -10.0478515625 m 0
 166.830078125 -10.0478515625 135 63.1201171875 135 211.200195312 c 0
 135 359.279296875 166.830078125 432.447265625 280.110351562 432.447265625 c 0
 393.390625 432.447265625 465.221679688 359.279296875 465.221679688 211.200195312 c 0
 465.221679688 63.1201171875 393.390625 -10.0478515625 280.110351562 -10.0478515625 c 0
250.110351562 295.58203125 m 0
 210.8515625 295.58203125 179.205078125 274.04296875 179.205078125 211.200195312 c 0
 179.205078125 148.357421875 210.8515625 126.817382812 250.110351562 126.817382812 c 0
 289.369140625 126.817382812 321.015625 148.357421875 321.015625 211.200195312 c 0
 321.015625 274.04296875 289.369140625 295.58203125 250.110351562 295.58203125 c 0
33 -193 m 5
 33 422.400390625 l 5
 173.599609375 422.400390625 l 5
 173.599609375 -193 l 5
 33 -193 l 5
EndSplineSet
Substitution2: "'ss06' Style Set 6 lookup 14-1" p.salt
Substitution2: "'salt' Stylistic Alternatives in Latin lookup 3-1" p.salt
EndChar

StartChar: q
Encoding: 113 113 56
Width: 497
Flags: HW
LayerCount: 2
Fore
SplineSet
471.221679688 -193 m 5
 330.622070312 -193 l 5
 330.622070312 -193 324.622070312 -140 324.622070312 -72 c 6
 324.622070312 422.400390625 l 5
 465.221679688 422.400390625 l 5
 465.221679688 -73 l 6
 465.221679688 -146 471.221679688 -193 471.221679688 -193 c 5
248.111328125 295.58203125 m 0
 208.852539062 295.58203125 177.206054688 274.04296875 177.206054688 211.200195312 c 0
 177.206054688 148.357421875 208.852539062 126.817382812 248.111328125 126.817382812 c 0
 287.370117188 126.817382812 319.016601562 148.357421875 319.016601562 211.200195312 c 0
 319.016601562 274.04296875 287.370117188 295.58203125 248.111328125 295.58203125 c 0
218.111328125 -10.0478515625 m 0
 104.831054688 -10.0478515625 33 63.1201171875 33 211.200195312 c 0
 33 359.279296875 104.831054688 432.447265625 218.111328125 432.447265625 c 0
 331.391601562 432.447265625 363.221679688 359.279296875 363.221679688 211.200195312 c 0
 363.221679688 63.1201171875 331.391601562 -10.0478515625 218.111328125 -10.0478515625 c 0
EndSplineSet
Substitution2: "'ss06' Style Set 6 lookup 14-1" q.salt
Substitution2: "'salt' Stylistic Alternatives in Latin lookup 3-1" q.salt
EndChar

StartChar: g
Encoding: 103 103 57
Width: 496
Flags: HW
LayerCount: 2
Fore
SplineSet
248.111328125 295.58203125 m 0
 208.852539062 295.58203125 177.206054688 274.04296875 177.206054688 211.200195312 c 0
 177.206054688 148.357421875 208.852539062 126.817382812 248.111328125 126.817382812 c 0
 287.370117188 126.817382812 319.016601562 148.357421875 319.016601562 211.200195312 c 0
 319.016601562 274.04296875 287.370117188 295.58203125 248.111328125 295.58203125 c 0
218.111328125 -10.0478515625 m 0
 104.831054688 -10.0478515625 33 63.1201171875 33 211.200195312 c 0
 33 359.279296875 104.831054688 432.447265625 218.111328125 432.447265625 c 0
 331.391601562 432.447265625 363.221679688 359.279296875 363.221679688 211.200195312 c 0
 363.221679688 63.1201171875 331.391601562 -10.0478515625 218.111328125 -10.0478515625 c 0
324.622070312 422.400390625 m 1
 465.221679688 422.400390625 l 1
 465.221679688 5.376953125 l 2
 465.221679688 -152.702148438 363.390625 -215.870117188 220.110351562 -215.870117188 c 0
 132.948242188 -215.870117188 96.265625 -193 96.265625 -193 c 1
 116.026367188 -61.501953125 l 1
 116.026367188 -61.501953125 153.000976562 -79.0048828125 220.110351562 -79.0048828125 c 0
 289.369140625 -79.0048828125 324.622070312 -57.4658203125 324.622070312 5.376953125 c 2
 324.622070312 422.400390625 l 1
EndSplineSet
EndChar

StartChar: n
Encoding: 110 110 58
Width: 497
Flags: HW
LayerCount: 2
Fore
SplineSet
33 0 m 1
 33 422.400390625 l 1
 173.599609375 422.400390625 l 1
 173.599609375 0 l 1
 33 0 l 1
133 218.200195312 m 6
 133 366.279296875 176.831054688 432.447265625 290.111328125 432.447265625 c 4
 385.390625 432.447265625 463.221679688 366.279296875 463.221679688 218.200195312 c 6
 463.221679688 0 l 5
 322.622070312 0 l 5
 322.622070312 218.200195312 l 6
 322.622070312 281.04296875 289.370117188 295.58203125 248.111328125 295.58203125 c 4
 208.852539062 295.58203125 173.599609375 281.04296875 173.599609375 218.200195312 c 6
 173.599609375 0 l 5
 133 0 l 5
 133 218.200195312 l 6
EndSplineSet
EndChar

StartChar: h
Encoding: 104 104 59
Width: 497
Flags: HW
LayerCount: 2
Fore
SplineSet
33 0 m 1
 33 645.400390625 l 1
 173.599609375 645.400390625 l 1
 173.599609375 0 l 1
 33 0 l 1
133 218.200195312 m 2
 133 366.279296875 176.831054688 432.447265625 290.111328125 432.447265625 c 4
 385.390625 432.447265625 463.221679688 366.279296875 463.221679688 218.200195312 c 2
 463.221679688 0 l 1
 322.622070312 0 l 1
 322.622070312 218.200195312 l 2
 322.622070312 281.04296875 289.370117188 295.58203125 248.111328125 295.58203125 c 0
 208.852539062 295.58203125 173.599609375 281.04296875 173.599609375 218.200195312 c 2
 173.599609375 0 l 1
 133 0 l 1
 133 218.200195312 l 2
EndSplineSet
EndChar

StartChar: k
Encoding: 107 107 60
Width: 530
Flags: HW
LayerCount: 2
Fore
SplineSet
33 0 m 1
 33 645.400390625 l 5
 173.599609375 645.400390625 l 5
 173.599609375 0 l 1
 33 0 l 1
497 422.400390625 m 1
 123 53 l 0
 63 124 l 1
 315 422.400390625 l 1
 497 422.400390625 l 1
507 0 m 1
 325 0 l 1
 180 226 l 1
 269 279 l 1
 507 0 l 1
EndSplineSet
EndChar

StartChar: m
Encoding: 109 109 61
Width: 747
Flags: HW
HStem: 0 21G<33 173.6 302.622 443.222 572.244 712.844> 295.582 136.865<197.179 287.798 459.759 557.42> 402.4 20G<33 173.6>
VStem: 33 140.6<0 422.4> 133 40.5996<0 366.279> 302.622 140.6<0 281.043> 362.622 80.5996<0 366.279> 572.244 140.6<0 281.511>
LayerCount: 2
Fore
SplineSet
362.622070312 218.200195312 m 2xc3
 362.622070312 366.279296875 446.453125 432.447265625 549.733398438 432.447265625 c 0
 635.012695312 432.447265625 712.84375 366.279296875 712.84375 218.200195312 c 2
 712.84375 0 l 1
 572.244140625 0 l 1
 572.244140625 218.200195312 l 2
 572.244140625 281.04296875 538.9921875 295.58203125 507.733398438 295.58203125 c 0
 478.474609375 295.58203125 443.221679688 281.04296875 443.221679688 218.200195312 c 2
 443.221679688 0 l 1xc5
 362.622070312 0 l 1
 362.622070312 218.200195312 l 2xc3
33 0 m 1xb1
 33 422.400390625 l 1
 173.599609375 422.400390625 l 1
 173.599609375 0 l 1
 33 0 l 1xb1
133 218.200195312 m 2xc9
 133 366.279296875 176.831054688 432.447265625 280.111328125 432.447265625 c 0
 365.390625 432.447265625 443.221679688 366.279296875 443.221679688 218.200195312 c 2
 443.221679688 0 l 1
 302.622070312 0 l 1
 302.622070312 218.200195312 l 2
 302.622070312 281.04296875 269.370117188 295.58203125 238.111328125 295.58203125 c 0
 208.852539062 295.58203125 173.599609375 281.04296875 173.599609375 218.200195312 c 2
 173.599609375 0 l 1xd5
 133 0 l 1
 133 218.200195312 l 2xc9
EndSplineSet
EndChar

StartChar: s
Encoding: 115 115 62
Width: 437
Flags: HW
LayerCount: 2
Fore
SplineSet
228.844726562 268.391601562 m 0
 341.308115029 242.7501121 409.956054688 211.223632812 409.956054688 133.143554688 c 0
 409.956054688 25.064453125 318.125 -8.103515625 184.844726562 -8.103515625 c 0
 107.682617188 -8.103515625 31 14.7666015625 31 14.7666015625 c 1
 50.7607421875 142.264648438 l 1
 50.7607421875 142.264648438 127.735351562 118.76171875 184.844726562 118.76171875 c 0
 244.103515625 118.76171875 263.75 126.30078125 263.75 143.143554688 c 0
 263.75 157.986328125 239.374023438 162.83984375 218.844726562 167.526367188 c 0
 129.500152099 187.922362471 40.8447265625 209.120117188 40.8447265625 303.200195312 c 0
 40.8447265625 401.279296875 132.67578125 432.447265625 245.956054688 432.447265625 c 0
 343.118164062 432.447265625 397.844726562 404 397.844726562 404 c 1
 375.844726562 288 l 1
 375.844726562 288 333.065429688 305.58203125 265.956054688 305.58203125 c 0
 199.697265625 305.58203125 185.844726562 299.842773438 185.844726562 289 c 0
 185.844726562 279.157226562 195.287000156 276.042714513 228.844726562 268.391601562 c 0
EndSplineSet
EndChar

StartChar: r
Encoding: 114 114 63
Width: 376
Flags: HW
LayerCount: 2
Fore
SplineSet
33 0 m 1
 33 422.400390625 l 1
 173.599609375 422.400390625 l 1
 173.599609375 0 l 1
 33 0 l 1
348.111328125 422.440429688 m 1
 329 282 l 1
 329 282 302.849609375 295.58203125 268.111328125 295.58203125 c 0
 228.852539062 295.58203125 173.599609375 281.04296875 173.599609375 178.200195312 c 2
 173.599609375 0 l 1
 133 0 l 1
 133 218.200195312 l 2
 133 360.513671875 190.670898438 432.37890625 278.111328125 432.440429688 c 0
 321.805664062 432.471679688 348.111328125 422.440429688 348.111328125 422.440429688 c 1
EndSplineSet
EndChar

StartChar: u
Encoding: 117 117 64
Width: 501
Flags: HW
LayerCount: 2
Fore
SplineSet
476.221679688 0 m 1
 325.622070312 0 l 1
 325.622070312 0 315.622070312 31 315.622070312 89 c 2
 315.622070312 422.400390625 l 1
 456.221679688 422.400390625 l 1
 456.221679688 145 l 2
 456.221679688 82 476.221679688 0 476.221679688 0 c 1
356.221679688 204.200195312 m 2
 356.221679688 56.12109375 312.390625 -10.046875 199.110351562 -10.046875 c 0
 103.831054688 -10.046875 26 56.12109375 26 204.200195312 c 2
 26 422.400390625 l 1
 166.599609375 422.400390625 l 1
 166.599609375 204.200195312 l 2
 166.599609375 141.357421875 199.8515625 126.818359375 241.110351562 126.818359375 c 0
 280.369140625 126.818359375 315.622070312 141.357421875 315.622070312 204.200195312 c 2
 315.622070312 422.400390625 l 1
 356.221679688 422.400390625 l 1
 356.221679688 204.200195312 l 2
EndSplineSet
Substitution2: "'ss10' Style Set 10 lookup 18-1" u.salt
Substitution2: "'salt' Stylistic Alternatives in Latin lookup 3-1" u.salt
EndChar

StartChar: v
Encoding: 118 118 65
Width: 520
Flags: HW
LayerCount: 2
Fore
SplineSet
330.599609375 0 m 1
 210 0 l 1
 340 422.400390625 l 1
 490.599609375 422.400390625 l 1
 330.599609375 0 l 1
190 0 m 1
 30 422.400390625 l 1
 180.599609375 422.400390625 l 1
 310.599609375 0 l 1
 190 0 l 1
EndSplineSet
EndChar

StartChar: w
Encoding: 119 119 66
Width: 751
Flags: HW
LayerCount: 2
Fore
SplineSet
590.599609375 0 m 1
 470 0 l 1
 570 422.400390625 l 5
 720.599609375 422.400390625 l 5
 590.599609375 0 l 1
450 0 m 1
 320 422.400390625 l 5
 450.599609375 422.400390625 l 5
 570.599609375 0 l 1
 450 0 l 1
300.599609375 0 m 1
 180 0 l 1
 300 422.400390625 l 5
 430.599609375 422.400390625 l 5
 300.599609375 0 l 1
160 0 m 1
 30 422.400390625 l 5
 180.599609375 422.400390625 l 5
 280.599609375 0 l 1
 160 0 l 1
EndSplineSet
EndChar

StartChar: x
Encoding: 120 120 67
Width: 529
VWidth: 999
Flags: W
HStem: 0 21G<29 191.977 336.023 500> 403 20G<39 201.397 334.95 500>
LayerCount: 2
Fore
SplineSet
179 0 m 1
 29 0 l 1
 264 302 l 5
 349 423 l 1
 500 423 l 1
 264 131 l 5
 179 0 l 1
349 0 m 1
 264 131 l 5
 39 423 l 1
 189 423 l 1
 264 302 l 5
 500 0 l 1
 349 0 l 1
EndSplineSet
EndChar

StartChar: y
Encoding: 121 121 68
Width: 530
Flags: HW
HStem: 0 21G<192.781 300.956> 402.4 20G<40.3564 196.423 344.143 500.956>
LayerCount: 2
Fore
SplineSet
200.356445312 0 m 1
 40.3564453125 422.400390625 l 1
 190.956054688 422.400390625 l 1
 300.956054688 20 l 1
 200.356445312 0 l 1
350.356445312 422.400390625 m 1
 500.956054688 422.400390625 l 1
 442 269 l 2
 286.250025235 -136.252812375 185.844726562 -215.870117188 185.844726562 -215.870117188 c 1
 82 -131 l 1
 82 -131 213.595507557 -17.8063575782 294 241 c 2
 350.356445312 422.400390625 l 1
EndSplineSet
Substitution2: "'ss04' Style Set 4 lookup 12-1" y.salt
Substitution2: "'salt' Stylistic Alternatives in Latin lookup 3-1" y.salt
EndChar

StartChar: z
Encoding: 122 122 69
Width: 420
Flags: HW
LayerCount: 2
Fore
SplineSet
388 0 m 1
 30 0 l 5
 30 132 l 5
 388 132 l 1
 388 0 l 1
388 290.400390625 m 1
 30 290.400390625 l 5
 30 422.400390625 l 5
 388 422.400390625 l 1
 388 290.400390625 l 1
30 132 m 5
 216 290.400390625 l 1
 388 290.400390625 l 1
 192 132 l 1
 30 132 l 5
EndSplineSet
EndChar

StartChar: parenleft
Encoding: 40 40 70
Width: 315
Flags: W
HStem: -112.56 138.462<221.792 289.444> 562.098 138.462<221.792 289.444>
VStem: 25.5557 136.849<101.916 486.084>
LayerCount: 2
Fore
SplineSet
289.444335938 25.90234375 m 1
 289.444335938 -112.559570312 l 1
 117.844726562 -112.559570312 25.5556640625 16.400390625 25.5556640625 294 c 0
 25.5556640625 571.599609375 117.844726562 700.559570312 289.444335938 700.559570312 c 1
 289.444335938 562.09765625 l 1
 190.602539062 562.09765625 162.404296875 487.817382812 162.404296875 294 c 0
 162.404296875 100.182617188 190.602539062 25.90234375 289.444335938 25.90234375 c 1
EndSplineSet
Substitution2: "'case' Case-Sensitive Forms in Latin lookup 6-1" parenleft.case
EndChar

StartChar: parenright
Encoding: 41 41 71
Width: 315
Flags: W
HStem: -112.56 138.462<25.5557 93.208> 562.098 138.462<25.5557 93.208>
VStem: 152.596 136.849<101.916 486.084>
LayerCount: 2
Fore
SplineSet
25.5556640625 25.90234375 m 1
 124.397460938 25.90234375 152.595703125 100.182617188 152.595703125 294 c 0
 152.595703125 487.817382812 124.397460938 562.09765625 25.5556640625 562.09765625 c 1
 25.5556640625 700.559570312 l 1
 197.155273438 700.559570312 289.444335938 571.599609375 289.444335938 294 c 0
 289.444335938 16.400390625 197.155273438 -112.559570312 25.5556640625 -112.559570312 c 1
 25.5556640625 25.90234375 l 1
EndSplineSet
Substitution2: "'case' Case-Sensitive Forms in Latin lookup 6-1" parenright.case
EndChar

StartChar: parenleft.case
Encoding: 1114112 -1 72
Width: 315
Flags: W
HStem: -102.56 138.462<221.792 289.444> 572.098 138.462<221.792 289.444>
VStem: 25.5557 136.849<111.916 496.084>
LayerCount: 2
Fore
SplineSet
289.444335938 35.90234375 m 1
 289.444335938 -102.559570312 l 1
 117.844726562 -102.559570312 25.5556640625 26.400390625 25.5556640625 304 c 0
 25.5556640625 581.599609375 117.844726562 710.559570312 289.444335938 710.559570312 c 1
 289.444335938 572.09765625 l 1
 190.602539062 572.09765625 162.404296875 497.817382812 162.404296875 304 c 0
 162.404296875 110.182617188 190.602539062 35.90234375 289.444335938 35.90234375 c 1
EndSplineSet
EndChar

StartChar: parenright.case
Encoding: 1114113 -1 73
Width: 315
Flags: W
HStem: -102.56 138.462<25.5557 93.208> 572.098 138.462<25.5557 93.208>
VStem: 152.596 136.849<111.916 496.084>
LayerCount: 2
Fore
SplineSet
25.5556640625 35.90234375 m 1
 124.397460938 35.90234375 152.595703125 110.182617188 152.595703125 304 c 0
 152.595703125 497.817382812 124.397460938 572.09765625 25.5556640625 572.09765625 c 1
 25.5556640625 710.559570312 l 1
 197.155273438 710.559570312 289.444335938 581.599609375 289.444335938 304 c 0
 289.444335938 26.400390625 197.155273438 -102.559570312 25.5556640625 -102.559570312 c 1
 25.5556640625 35.90234375 l 1
EndSplineSet
EndChar

StartChar: hyphen
Encoding: 45 45 74
Width: 370
Flags: HW
LayerCount: 2
Fore
SplineSet
344 230.400390625 m 1
 26 230.400390625 l 1
 26 362.400390625 l 1
 344 362.400390625 l 1
 344 230.400390625 l 1
EndSplineSet
EndChar

StartChar: slash
Encoding: 47 47 75
Width: 432
Flags: W
LayerCount: 2
Fore
SplineSet
25 -80 m 5
 265 708 l 1
 407 708 l 1
 167 -80 l 5
 25 -80 l 5
EndSplineSet
Substitution2: "'frac' Diagonal Fractions in Latin lookup 21 subtable" fraction
EndChar

StartChar: backslash
Encoding: 92 92 76
Width: 432
Flags: HW
LayerCount: 2
Fore
SplineSet
407 -80 m 5
 265 -80 l 5
 25 708 l 1
 167 708 l 1
 407 -80 l 5
EndSplineSet
EndChar

StartChar: bracketleft
Encoding: 91 91 77
Width: 333
Flags: W
HStem: -112.56 138.462<176.5 298.5> 562.098 138.462<176.5 298.5>
VStem: 34.5 264<-112.56 25.9023 562.098 700.56> 34.5 142<25.9023 562.098>
LayerCount: 2
Fore
SplineSet
176.5 25.90234375 m 1xd0
 298.5 25.90234375 l 1
 298.5 -112.559570312 l 1
 34.5 -112.559570312 l 1
 34.5 700.559570312 l 1
 298.5 700.559570312 l 1
 298.5 562.09765625 l 1xe0
 176.5 562.09765625 l 1
 176.5 25.90234375 l 1xd0
EndSplineSet
Substitution2: "'case' Case-Sensitive Forms in Latin lookup 6-1" bracketleft.case
EndChar

StartChar: bracketright
Encoding: 93 93 78
Width: 333
Flags: W
HStem: -112.56 138.462<34.5 156.5> 562.098 138.462<34.5 156.5>
VStem: 34.5 264<-112.56 25.9023 562.098 700.56> 156.5 142<25.9023 562.098>
LayerCount: 2
Fore
SplineSet
156.5 25.90234375 m 1xd0
 156.5 562.09765625 l 1xd0
 34.5 562.09765625 l 1
 34.5 700.559570312 l 1
 298.5 700.559570312 l 1
 298.5 -112.559570312 l 1
 34.5 -112.559570312 l 1
 34.5 25.90234375 l 1xe0
 156.5 25.90234375 l 1xd0
EndSplineSet
Substitution2: "'case' Case-Sensitive Forms in Latin lookup 6-1" bracketright.case
EndChar

StartChar: bracketleft.case
Encoding: 1114114 -1 79
Width: 333
Flags: W
HStem: -102.56 138.462<176.5 298.5> 572.098 138.462<176.5 298.5>
VStem: 34.5 264<-102.56 35.9023 572.098 710.56> 34.5 142<35.9023 572.098>
LayerCount: 2
Fore
SplineSet
176.5 35.90234375 m 1xd0
 298.5 35.90234375 l 1
 298.5 -102.559570312 l 1
 34.5 -102.559570312 l 1
 34.5 710.559570312 l 1
 298.5 710.559570312 l 1
 298.5 572.09765625 l 1xe0
 176.5 572.09765625 l 1
 176.5 35.90234375 l 1xd0
EndSplineSet
EndChar

StartChar: bracketright.case
Encoding: 1114115 -1 80
Width: 333
Flags: W
HStem: -102.56 138.462<34.5 156.5> 572.098 138.462<34.5 156.5>
VStem: 34.5 264<-102.56 35.9023 572.098 710.56> 156.5 142<35.9023 572.098>
LayerCount: 2
Fore
SplineSet
156.5 35.90234375 m 1xd0
 156.5 572.09765625 l 1xd0
 34.5 572.09765625 l 1
 34.5 710.559570312 l 1
 298.5 710.559570312 l 1
 298.5 -102.559570312 l 1
 34.5 -102.559570312 l 1
 34.5 35.90234375 l 1xe0
 156.5 35.90234375 l 1xd0
EndSplineSet
EndChar

StartChar: braceleft
Encoding: 123 123 81
Width: 375
Flags: W
HStem: -112.56 138.462<280.792 348.444> 230.4 132<25 113> 562.098 138.462<280.792 348.444>
VStem: 84.5557 28.4443<230.4 362.4>
LayerCount: 2
Fore
SplineSet
113 230.400390625 m 1
 25 230.400390625 l 1
 25 362.400390625 l 1
 113 362.400390625 l 1
 113 230.400390625 l 1
348.444335938 25.90234375 m 1
 348.444335938 -112.559570312 l 1
 176.844726562 -112.559570312 84.5556640625 16.400390625 84.5556640625 294 c 0
 84.5556640625 571.599609375 176.844726562 700.559570312 348.444335938 700.559570312 c 1
 348.444335938 562.09765625 l 1
 262.205078125 562.09765625 227.993164062 505.63671875 222.8671875 382.400390625 c 0
 219.604492188 303.962890625 135 290.400390625 135 290.400390625 c 5
 135 290.400390625 220.094726562 281.067382812 222.647460938 210.400390625 c 0
 227.225585938 83.6328125 261.247070312 25.90234375 348.444335938 25.90234375 c 1
EndSplineSet
Substitution2: "'case' Case-Sensitive Forms in Latin lookup 6-1" braceleft.case
EndChar

StartChar: braceright
Encoding: 125 125 82
Width: 375
Flags: W
HStem: -112.56 138.462<25 92.6523> 230.4 132<260.444 348.444> 562.098 138.462<25 92.6523>
VStem: 260.444 28.4443<230.4 362.4>
LayerCount: 2
Fore
SplineSet
260.444335938 230.400390625 m 1
 260.444335938 362.400390625 l 1
 348.444335938 362.400390625 l 1
 348.444335938 230.400390625 l 1
 260.444335938 230.400390625 l 1
25 25.90234375 m 1
 112.197265625 25.90234375 146.21875 83.6328125 150.796875 210.400390625 c 0
 153.349609375 281.067382812 238.444335938 290.400390625 238.444335938 290.400390625 c 5
 238.444335938 290.400390625 153.83984375 303.962890625 150.577148438 382.400390625 c 0
 145.451171875 505.63671875 111.239257812 562.09765625 25 562.09765625 c 1
 25 700.559570312 l 1
 196.599609375 700.559570312 288.888671875 571.599609375 288.888671875 294 c 0
 288.888671875 16.400390625 196.599609375 -112.559570312 25 -112.559570312 c 1
 25 25.90234375 l 1
EndSplineSet
Substitution2: "'case' Case-Sensitive Forms in Latin lookup 6-1" braceright.case
EndChar

StartChar: braceleft.case
Encoding: 1114116 -1 83
Width: 375
Flags: W
HStem: -102.56 138.462<280.792 348.444> 240.4 132<25 113> 572.098 138.462<280.792 348.444>
VStem: 84.5557 28.4443<240.4 372.4>
LayerCount: 2
Fore
SplineSet
113 240.400390625 m 1
 25 240.400390625 l 1
 25 372.400390625 l 1
 113 372.400390625 l 1
 113 240.400390625 l 1
348.444335938 35.90234375 m 1
 348.444335938 -102.559570312 l 1
 176.844726562 -102.559570312 84.5556640625 26.400390625 84.5556640625 304 c 0
 84.5556640625 581.599609375 176.844726562 710.559570312 348.444335938 710.559570312 c 1
 348.444335938 572.09765625 l 1
 262.205078125 572.09765625 227.993164062 515.63671875 222.8671875 392.400390625 c 0
 219.604492188 313.962890625 135 300.400390625 135 300.400390625 c 5
 135 300.400390625 220.094726562 291.067382812 222.647460938 220.400390625 c 0
 227.225585938 93.6328125 261.247070312 35.90234375 348.444335938 35.90234375 c 1
EndSplineSet
EndChar

StartChar: braceright.case
Encoding: 1114117 -1 84
Width: 375
Flags: W
HStem: -102.56 138.462<25 92.6523> 240.4 132<260.444 348.444> 572.098 138.462<25 92.6523>
VStem: 260.444 28.4443<240.4 372.4>
LayerCount: 2
Fore
SplineSet
260.444335938 240.400390625 m 1
 260.444335938 372.400390625 l 1
 348.444335938 372.400390625 l 1
 348.444335938 240.400390625 l 1
 260.444335938 240.400390625 l 1
25 35.90234375 m 1
 112.197265625 35.90234375 146.21875 93.6328125 150.796875 220.400390625 c 0
 153.349609375 291.067382812 238.444335938 300.400390625 238.444335938 300.400390625 c 5
 238.444335938 300.400390625 153.83984375 313.962890625 150.577148438 392.400390625 c 0
 145.451171875 515.63671875 111.239257812 572.09765625 25 572.09765625 c 1
 25 710.559570312 l 1
 196.599609375 710.559570312 288.888671875 581.599609375 288.888671875 304 c 0
 288.888671875 26.400390625 196.599609375 -102.559570312 25 -102.559570312 c 1
 25 35.90234375 l 1
EndSplineSet
EndChar

StartChar: bar
Encoding: 124 124 85
Width: 192
Flags: HW
LayerCount: 2
Fore
SplineSet
157 -80 m 5
 35 -80 l 1
 35 708 l 1
 157 708 l 5
 157 -80 l 5
EndSplineSet
EndChar

StartChar: asciicircum
Encoding: 94 94 86
Width: 382
VWidth: 999
Flags: HW
LayerCount: 2
Fore
SplineSet
352 485 m 1
 230 475 l 1
 120 633 l 5
 262 633 l 5
 352 485 l 1
30 485 m 1
 120 633 l 5
 262 633 l 5
 152 475 l 1
 30 485 l 1
EndSplineSet
EndChar

StartChar: acute
Encoding: 180 180 87
Width: 292
VWidth: 999
Flags: HW
LayerCount: 2
Fore
SplineSet
30 485 m 5
 120 633 l 5
 262 623 l 5
 152 475 l 5
 30 485 l 5
EndSplineSet
EndChar

StartChar: grave
Encoding: 96 96 88
Width: 292
VWidth: 999
Flags: HW
LayerCount: 2
Fore
SplineSet
262 485 m 5
 140 475 l 5
 30 623 l 5
 172 633 l 5
 262 485 l 5
EndSplineSet
EndChar

StartChar: mu
Encoding: 181 181 89
Width: 497
Flags: HW
LayerCount: 2
Fore
SplineSet
31 -193 m 1
 31 422.400390625 l 1
 171.599609375 422.400390625 l 1
 171.599609375 -193 l 1
 31 -193 l 1
461.221679688 422.400390625 m 1
 461.221679688 0 l 1
 320.622070312 0 l 1
 320.622070312 422.400390625 l 1
 461.221679688 422.400390625 l 1
361.221679688 184.200195312 m 2
 361.221679688 36.12109375 313.390625 -10.046875 240.110351562 -10.046875 c 0
 164.831054688 -10.046875 141 36.12109375 141 184.200195312 c 2
 141 422.400390625 l 1
 171.599609375 422.400390625 l 1
 171.599609375 204.200195312 l 2
 171.599609375 141.357421875 204.8515625 126.818359375 246.110351562 126.818359375 c 0
 285.369140625 126.818359375 320.622070312 141.357421875 320.622070312 204.200195312 c 2
 320.622070312 422.400390625 l 1
 361.221679688 422.400390625 l 1
 361.221679688 184.200195312 l 2
EndSplineSet
EndChar

StartChar: paragraph
Encoding: 182 182 90
Width: 601
Flags: HW
LayerCount: 2
Fore
SplineSet
385.888671875 0 m 5
 243.888671875 0 l 5
 243.888671875 180 l 1
 163.2890625 180 30 234.840820312 30 396.440429688 c 0
 30 564.040039062 165.190429688 628 283.888671875 628 c 2
 567.888671875 628 l 1
 567.888671875 0 l 5
 425.888671875 0 l 5
 425.888671875 496 l 1
 385.888671875 496 l 1
 385.888671875 0 l 5
EndSplineSet
EndChar

StartChar: periodcentered
Encoding: 183 183 91
Width: 241
Flags: HW
LayerCount: 2
Fore
SplineSet
32 295.17578125 m 0
 32 352.794921875 70.57421875 390.400390625 120.612304688 390.400390625 c 0
 170.651367188 390.400390625 209.2265625 352.794921875 209.2265625 295.17578125 c 0
 209.2265625 237.555664062 170.651367188 199.951171875 120.612304688 199.951171875 c 0
 70.57421875 199.951171875 32 237.555664062 32 295.17578125 c 0
EndSplineSet
EndChar

StartChar: macron
Encoding: 175 175 92
Width: 364
VWidth: 999
Flags: HW
LayerCount: 2
Fore
SplineSet
327 496 m 1
 37 496 l 1
 37 628 l 1
 327 628 l 1
 327 496 l 1
EndSplineSet
EndChar

StartChar: cedilla
Encoding: 184 184 93
Width: 365
VWidth: 999
Flags: HW
LayerCount: 2
Fore
SplineSet
205 32 m 1
 183 -68 l 1
 143 -59 l 1
 136 -101 l 5
 82 -68 l 1
 95 32 l 1
 205 32 l 1
323 -125 m 0
 323 -209 245 -243 163 -243 c 0
 94 -243 41 -225 41 -225 c 1
 69 -127 l 1
 69 -127 87 -138 127 -138 c 0
 172 -138 184 -122 184 -108 c 0
 184 -94 175 -87 159 -87 c 0
 141 -87 136 -101 136 -101 c 5
 139 -59 l 1
 139 -59 155 -24 213 -24 c 0
 283 -24 323 -60 323 -125 c 0
EndSplineSet
EndChar

StartChar: exclamdown
Encoding: 161 161 94
Width: 255
Flags: W
HStem: 241.999 190.449<69.0628 185.938>
VStem: 38.8867 177.227<272.862 401.586> 57.1133 142<-199.214 -59.9139> 77.1133 102<59.4861 198.786>
LayerCount: 2
Fore
SplineSet
179.11328125 198.786132812 m 1x90
 199.11328125 -199.213867188 l 1
 57.11328125 -199.213867188 l 1xa0
 77.11328125 198.786132812 l 1
 179.11328125 198.786132812 l 1x90
216.11328125 337.223632812 m 0xc0
 216.11328125 279.604492188 177.5390625 241.999023438 127.500976562 241.999023438 c 0
 77.4619140625 241.999023438 38.88671875 279.604492188 38.88671875 337.223632812 c 0
 38.88671875 394.84375 77.4619140625 432.448242188 127.500976562 432.448242188 c 0
 177.5390625 432.448242188 216.11328125 394.84375 216.11328125 337.223632812 c 0xc0
EndSplineSet
Substitution2: "'case' Case-Sensitive Forms in Latin lookup 6-1" exclamdown.case
EndChar

StartChar: questiondown
Encoding: 191 191 95
Width: 541
Flags: W
HStem: -211.773 138.462<193.492 408.954> 241.999 190.449<227.283 344.158>
VStem: 33.4443 141.96<-54.2304 40.6413> 197.106 177.227<272.862 401.586> 235.333 102<145.786 198.786>
LayerCount: 2
Fore
SplineSet
332.333007812 60.7861328125 m 1xe0
 332.333007812 60.7861328125 175.404296875 88.603515625 175.404296875 -5.2138671875 c 0
 175.404296875 -59.03125 213.602539062 -73.3115234375 292.444335938 -73.3115234375 c 0
 373.5625 -73.3115234375 464.225585938 -31.2138671875 464.225585938 -31.2138671875 c 1
 507.555664062 -163.213867188 l 1
 507.555664062 -163.213867188 403.141601562 -211.7734375 292.444335938 -211.7734375 c 0
 140.844726562 -211.7734375 33.4443359375 -134.868164062 33.4443359375 -17.2685546875 c 0
 33.4443359375 100.331054688 144.333007812 166.786132812 282.333007812 145.786132812 c 0
 332.333007812 60.7861328125 l 1xe0
337.333007812 198.786132812 m 1xe8
 332.333007812 60.7861328125 l 1
 240.333007812 107.786132812 l 1
 235.333007812 198.786132812 l 1
 337.333007812 198.786132812 l 1xe8
374.333007812 337.223632812 m 0xf0
 374.333007812 279.604492188 335.758789062 241.999023438 285.720703125 241.999023438 c 0
 235.681640625 241.999023438 197.106445312 279.604492188 197.106445312 337.223632812 c 0
 197.106445312 394.84375 235.681640625 432.448242188 285.720703125 432.448242188 c 0
 335.758789062 432.448242188 374.333007812 394.84375 374.333007812 337.223632812 c 0xf0
EndSplineSet
Substitution2: "'case' Case-Sensitive Forms in Latin lookup 6-1" questiondown.case
EndChar

StartChar: exclamdown.case
Encoding: 1114118 -1 96
Width: 255
Flags: W
HStem: 437.551 190.449<69.1761 186.051>
VStem: 39 177.227<468.414 597.137> 57.2266 142<-3.66211 135.638> 77.2266 102<255.038 394.338>
LayerCount: 2
Fore
SplineSet
179.2265625 394.337890625 m 5x90
 199.2265625 -3.662109375 l 1
 57.2265625 -3.662109375 l 1xa0
 77.2265625 394.337890625 l 5
 179.2265625 394.337890625 l 5x90
216.2265625 532.775390625 m 0xc0
 216.2265625 475.15625 177.65234375 437.55078125 127.614257812 437.55078125 c 0
 77.5751953125 437.55078125 39 475.15625 39 532.775390625 c 0
 39 590.395507812 77.5751953125 628 127.614257812 628 c 0
 177.65234375 628 216.2265625 590.395507812 216.2265625 532.775390625 c 0xc0
EndSplineSet
EndChar

StartChar: questiondown.case
Encoding: 1114119 -1 97
Width: 541
Flags: W
HStem: -3.66211 138.462<192.048 407.509> 450.11 190.449<225.838 342.713>
VStem: 32 141.96<153.881 248.753> 195.662 177.227<480.973 609.697> 233.889 102<353.897 406.897>
LayerCount: 2
Fore
SplineSet
330.888671875 268.897460938 m 1xe0
 330.888671875 268.897460938 173.959960938 296.71484375 173.959960938 202.897460938 c 0
 173.959960938 149.080078125 212.158203125 134.799804688 291 134.799804688 c 0
 372.118164062 134.799804688 462.78125 176.897460938 462.78125 176.897460938 c 1
 506.111328125 44.8974609375 l 1
 506.111328125 44.8974609375 401.697265625 -3.662109375 291 -3.662109375 c 0
 139.400390625 -3.662109375 32 73.2431640625 32 190.842773438 c 0
 32 308.442382812 142.888671875 374.897460938 280.888671875 353.897460938 c 0
 330.888671875 268.897460938 l 1xe0
335.888671875 406.897460938 m 1xe8
 330.888671875 268.897460938 l 1
 238.888671875 315.897460938 l 1
 233.888671875 406.897460938 l 1
 335.888671875 406.897460938 l 1xe8
372.888671875 545.334960938 m 0xf0
 372.888671875 487.715820312 334.314453125 450.110351562 284.276367188 450.110351562 c 0
 234.237304688 450.110351562 195.662109375 487.715820312 195.662109375 545.334960938 c 0
 195.662109375 602.955078125 234.237304688 640.559570312 284.276367188 640.559570312 c 0
 334.314453125 640.559570312 372.888671875 602.955078125 372.888671875 545.334960938 c 0xf0
EndSplineSet
EndChar

StartChar: plus
Encoding: 43 43 98
Width: 466
Flags: HW
LayerCount: 2
Fore
SplineSet
299 495.400390625 m 5
 299 97.400390625 l 5
 167 97.400390625 l 5
 167 495.400390625 l 5
 299 495.400390625 l 5
432 230.400390625 m 1
 34 230.400390625 l 1
 34 362.400390625 l 1
 432 362.400390625 l 1
 432 230.400390625 l 1
EndSplineSet
EndChar

StartChar: multiply
Encoding: 215 215 99
Width: 422
Flags: HW
LayerCount: 2
Fore
SplineSet
117.337890625 483.783203125 m 5
 398.765625 202.35546875 l 5
 305.427734375 109.017578125 l 5
 24 390.4453125 l 5
 117.337890625 483.783203125 l 5
398.765625 390.4453125 m 1
 117.337890625 109.017578125 l 1
 24 202.35546875 l 1
 305.427734375 483.783203125 l 1
 398.765625 390.4453125 l 1
EndSplineSet
EndChar

StartChar: divide
Encoding: 247 247 100
Width: 464
Flags: HW
LayerCount: 2
Fore
SplineSet
148.388671875 131.775390625 m 0
 148.388671875 169.39453125 166.962890625 207 227.000976562 207 c 0
 287.040039062 207 305.615234375 169.39453125 305.615234375 131.775390625 c 0
 305.615234375 94.1552734375 287.040039062 56.55078125 227.000976562 56.55078125 c 0
 166.962890625 56.55078125 148.388671875 94.1552734375 148.388671875 131.775390625 c 0
148.38671875 462.344726562 m 0
 148.38671875 499.963867188 166.9609375 537.569335938 226.999023438 537.569335938 c 0
 287.038085938 537.569335938 305.61328125 499.963867188 305.61328125 462.344726562 c 0
 305.61328125 424.724609375 287.038085938 387.120117188 226.999023438 387.120117188 c 0
 166.9609375 387.120117188 148.38671875 424.724609375 148.38671875 462.344726562 c 0
431 230.400390625 m 5
 33 230.400390625 l 5
 33 362.400390625 l 5
 431 362.400390625 l 5
 431 230.400390625 l 5
EndSplineSet
EndChar

StartChar: Oslash
Encoding: 216 216 101
Width: 687
Flags: W
HStem: -12.5596 138.462<306.265 423.421> 502.098 138.462<256.356 379.504>
VStem: 36 136.849<217.23 410.77> 506.929 136.849<217.23 410.77>
LayerCount: 2
Fore
SplineSet
84 -20 m 1
 484 708 l 1
 598 643 l 1
 198 -85 l 1
 84 -20 l 1
172.848632812 314 m 0
 172.848632812 200.182617188 241.046875 125.90234375 339.888671875 125.90234375 c 0
 438.73046875 125.90234375 506.928710938 200.182617188 506.928710938 314 c 0
 506.928710938 427.817382812 438.73046875 502.09765625 339.888671875 502.09765625 c 0
 241.046875 502.09765625 172.848632812 427.817382812 172.848632812 314 c 0
36 314 m 0
 36 511.599609375 168.2890625 640.559570312 339.888671875 640.559570312 c 0
 511.48828125 640.559570312 643.77734375 511.599609375 643.77734375 314 c 0
 643.77734375 116.400390625 511.48828125 -12.5595703125 339.888671875 -12.5595703125 c 0
 168.2890625 -12.5595703125 36 116.400390625 36 314 c 0
EndSplineSet
EndChar

StartChar: oslash
Encoding: 248 248 102
Width: 489
Flags: W
HStem: -10.0479 442.495<129.831 356.392>
VStem: 28 430.223<63.1201 359.279>
LayerCount: 2
Fore
SplineSet
243.111328125 -10.0478515625 m 0
 129.831054688 -10.0478515625 28 63.1201171875 28 211.200195312 c 0
 28 359.279296875 129.831054688 432.447265625 243.111328125 432.447265625 c 0
 356.391601562 432.447265625 458.22265625 359.279296875 458.22265625 211.200195312 c 0
 458.22265625 63.1201171875 356.391601562 -10.0478515625 243.111328125 -10.0478515625 c 0
243.111328125 295.58203125 m 0
 203.852539062 295.58203125 172.206054688 274.04296875 172.206054688 211.200195312 c 0
 172.206054688 148.357421875 203.852539062 126.817382812 243.111328125 126.817382812 c 0
 282.370117188 126.817382812 314.016601562 148.357421875 314.016601562 211.200195312 c 0
 314.016601562 274.04296875 282.370117188 295.58203125 243.111328125 295.58203125 c 0
55 4 m 1
 315 482 l 1
 429 417 l 1
 169 -61 l 1
 55 4 l 1
EndSplineSet
EndChar

StartChar: AE
Encoding: 198 198 103
Width: 803
Flags: HW
LayerCount: 2
Fore
SplineSet
707 256 m 1
 413 256 l 1
 413 388 l 1
 707 388 l 1
 707 256 l 1
774 0 m 1
 393 0 l 1
 393 132 l 1
 774 132 l 1
 774 0 l 1
774 496 m 1
 393 496 l 1
 393 628 l 1
 774 628 l 1
 774 496 l 1
393 30 m 1
 393 598 l 1
 535 598 l 1
 535 30 l 1
 393 30 l 1
443 116 m 1
 189 116 l 1
 189 248 l 1
 443 248 l 1
 443 116 l 1
21 0 m 5
 331 628 l 5
 473 628 l 5
 163 0 l 5
 21 0 l 5
EndSplineSet
EndChar

StartChar: ae
Encoding: 230 230 104
Width: 673
Flags: HW
LayerCount: 2
Fore
SplineSet
172.938476562 171.19921875 m 2
 161.83984375 171 153.83984375 163 153.83984375 151 c 0
 153.83984375 138.319335938 164.15234375 126.817382812 183.37109375 126.817382812 c 0
 217.091796875 126.817382812 243.068359375 138.940429688 254.322265625 171.19921875 c 1
 172.938476562 171.19921875 l 2
395.045898438 211 m 0
 395.124023438 148.311523438 406.754882812 126.817382812 465.951171875 126.817382812 c 0
 541.305664062 126.817382812 587.83984375 148 587.83984375 148 c 1
 619.244140625 22.552734375 l 1
 619.244140625 22.552734375 592.89453125 -10.0478515625 475.951171875 -10.0478515625 c 0
 352.712890625 -10.0478515625 282.965820312 73.0537109375 282.83984375 221 c 0
 282.73046875 349.079101562 342.670898438 432.247070312 445.951171875 432.247070312 c 0
 551.23046875 432.247070312 646.543945312 359.278320312 646.543945312 171.19921875 c 5
 502.322265625 171.19921875 l 5
 502.322265625 280.19921875 482.209960938 295.381835938 445.951171875 295.381835938 c 0
 411.692382812 295.381835938 395.045898438 273.842773438 395.045898438 211 c 0
592.322265625 171.19921875 m 5
 254.322265625 171.19921875 l 1
 254.322265625 253.19921875 l 1
 514.322265625 253.19921875 l 5
 592.322265625 171.19921875 l 5
253.66796875 253.19921875 m 1
 241.171875 283.306640625 231.278320312 295.381835938 183.37109375 295.381835938 c 0
 108.016601562 295.381835938 71.482421875 279.19921875 71.482421875 279.19921875 c 1
 40.078125 404.646484375 l 1
 40.078125 404.646484375 66.427734375 432.247070312 183.37109375 432.247070312 c 0
 297.096679688 432.247070312 346.482421875 359 346.482421875 221.19921875 c 2
 338.482421875 111.19921875 l 1
 338.482421875 111.19921875 300.278320312 -10.0478515625 183.37109375 -10.0478515625 c 0
 68.6259765625 -10.0478515625 26 59.396484375 26 141 c 0
 26 210 78.53515625 253.19921875 158.260742188 253.19921875 c 2
 253.66796875 253.19921875 l 1
EndSplineSet
EndChar

StartChar: a.salt
Encoding: 1114120 -1 105
Width: 466
Flags: W
HStem: -10.0479 130.865<123.159 261.528> 0 21G<295.108 435.713> 295.382 136.865<74.2849 266.433>
VStem: 287.59 42<168.199 263.199>
LayerCount: 2
Fore
SplineSet
207.098632812 160.19921875 m 2xb0
 193.307060072 159.298479986 184 154 184 142 c 0
 184 128.319335938 195.3125 120.817382812 220.53125 120.817382812 c 0xb0
 266.145507812 120.817382812 287.58984375 149 287.58984375 213.19921875 c 0
 287.58984375 273 255.755332688 295.381835938 190.53125 295.381835938 c 0
 115.176757812 295.381835938 78.642578125 279.19921875 78.642578125 279.19921875 c 1
 47.23828125 404.646484375 l 1
 47.23828125 404.646484375 93.587890625 432.247070312 210.53125 432.247070312 c 0
 333.76953125 432.247070312 435.533203125 359.145507812 435.642578125 211.19921875 c 2
 435.712890625 0 l 1
 295.11328125 0 l 1x70
 295.1015625 45.3935546875 l 1
 295.1015625 45.3935546875 267.438476562 -10.0478515625 180.53125 -10.0478515625 c 0
 65.7861328125 -10.0478515625 33.1601624834 69.396695481 33.1601624834 140.999998131 c 0
 33.1601624834 220 99.9801621584 248.305837912 175.420898438 253.19921875 c 6
 329.58984375 263.19921875 l 1
 329.58984375 168.19921875 l 1
 207.098632812 160.19921875 l 2xb0
EndSplineSet
EndChar

StartChar: l.salt
Encoding: 1114121 -1 106
Width: 210
Flags: W
HStem: 0 21G<33 173.6> 625.4 20G<33 173.6>
VStem: 33 140.6<0 645.4>
LayerCount: 2
Fore
SplineSet
33 0 m 1
 33 645.400390625 l 5
 173.599609375 645.400390625 l 5
 173.599609375 0 l 1
 33 0 l 1
EndSplineSet
EndChar

StartChar: dollar
Encoding: 36 36 107
Width: 493
Flags: HW
LayerCount: 2
Fore
SplineSet
314 520 m 1
 192 520 l 1
 182 708 l 1
 324 708 l 1
 314 520 l 1
324 -80 m 1
 182 -80 l 1
 192 88 l 1
 314 88 l 1
 324 -80 l 1
238.888671875 390.90234375 m 4
 384.077148438 345.342773438 464.77734375 298.599609375 464.77734375 181 c 4
 464.77734375 63.400390625 372.48828125 -12.5595703125 230.888671875 -12.5595703125 c 4
 100.19140625 -12.5595703125 23 58 23 58 c 5
 88 179 l 5
 88 179 119.770507812 125.90234375 230.888671875 125.90234375 c 4
 299.73046875 125.90234375 327.928710938 143.182617188 327.928710938 181 c 4
 327.928710938 214.817382812 305.119140625 232.658203125 218.888671875 262.440429688 c 4
 132.838867188 292.16015625 45 336.400390625 45 454 c 4
 45 571.599609375 137.2890625 640.559570312 268.888671875 640.559570312 c 4
 389.5859375 640.559570312 444 602 444 602 c 5
 400.669921875 470 l 5
 400.669921875 470 360.006835938 502.09765625 268.888671875 502.09765625 c 4
 210.046875 502.09765625 181.848632812 483.817382812 181.848632812 450 c 4
 181.848632812 426.182617188 187.657226562 406.978515625 238.888671875 390.90234375 c 4
EndSplineSet
EndChar

StartChar: percent
Encoding: 37 37 108
Width: 729
Flags: HW
LayerCount: 2
Fore
SplineSet
68.255859375 111.19921875 m 1
 569.27734375 611.161132812 l 1
 656.44140625 531.12109375 l 1
 155.420898438 31.1591796875 l 1
 68.255859375 111.19921875 l 1
515.22265625 137.952148438 m 0
 515.22265625 104.952148438 533.22265625 91.9521484375 555.22265625 91.9521484375 c 0
 577.22265625 91.9521484375 596.22265625 104.952148438 596.22265625 137.952148438 c 0
 596.22265625 170.952148438 577.22265625 182.952148438 555.22265625 182.952148438 c 0
 533.22265625 182.952148438 515.22265625 170.952148438 515.22265625 137.952148438 c 0
407.22265625 137.952148438 m 0
 407.22265625 218.952148438 461.22265625 284.952148438 555.22265625 284.952148438 c 0
 649.22265625 284.952148438 703.22265625 218.952148438 703.22265625 137.952148438 c 0
 703.22265625 56.9521484375 649.22265625 -10.0478515625 555.22265625 -10.0478515625 c 0
 461.22265625 -10.0478515625 407.22265625 56.9521484375 407.22265625 137.952148438 c 0
135 505.361328125 m 0
 135 472.361328125 153 459.361328125 175 459.361328125 c 0
 197 459.361328125 216 472.361328125 216 505.361328125 c 0
 216 538.361328125 197 550.361328125 175 550.361328125 c 0
 153 550.361328125 135 538.361328125 135 505.361328125 c 0
27 505.361328125 m 0
 27 586.361328125 81 652.361328125 175 652.361328125 c 0
 269 652.361328125 323 586.361328125 323 505.361328125 c 0
 323 424.361328125 269 357.361328125 175 357.361328125 c 0
 81 357.361328125 27 424.361328125 27 505.361328125 c 0
EndSplineSet
EndChar

StartChar: Thorn
Encoding: 222 222 109
Width: 597
Flags: HW
LayerCount: 2
Fore
SplineSet
48 0 m 1
 48 628 l 1
 190 628 l 1
 190 0 l 1
 48 0 l 1
301 399.538085938 m 6
 190 399.538085938 l 5
 190 538 l 5
 301 538 l 6
 421.599609375 538 554.888671875 474.040039062 554.888671875 306.440429688 c 4
 554.888671875 144.840820312 421.599609375 90 301 90 c 6
 190 90 l 5
 190 228.461914062 l 5
 301 228.461914062 l 6
 348.841796875 228.461914062 418.040039062 228.623046875 418.040039062 306.440429688 c 4
 418.040039062 390.2578125 348.841796875 399.538085938 301 399.538085938 c 6
EndSplineSet
EndChar

StartChar: thorn
Encoding: 254 254 110
Width: 496
Flags: HW
LayerCount: 2
Fore
SplineSet
179.206054688 211.200195312 m 0
 179.206054688 148.357421875 210.852539062 126.817382812 250.111328125 126.817382812 c 0
 291.370117188 126.817382812 320.016601562 148.357421875 320.016601562 211.200195312 c 0
 320.016601562 274.04296875 291.370117188 295.58203125 250.111328125 295.58203125 c 0
 210.852539062 295.58203125 179.206054688 274.04296875 179.206054688 211.200195312 c 0
135 211.200195312 m 0
 135 359.279296875 176.831054688 432.447265625 290.111328125 432.447265625 c 0
 385.390625 432.447265625 465.221679688 359.279296875 465.221679688 211.200195312 c 0
 465.221679688 63.1201171875 385.390625 -10.0478515625 290.111328125 -10.0478515625 c 0
 176.831054688 -10.0478515625 135 63.1201171875 135 211.200195312 c 0
33 -193 m 5
 33 645.400390625 l 5
 173.599609375 645.400390625 l 5
 173.599609375 -193 l 5
 33 -193 l 5
EndSplineSet
EndChar

StartChar: Oslash.varAlt01
Encoding: 1114122 -1 111
Width: 687
Flags: W
HStem: -12.5596 138.462<284.44 423.421> 502.098 138.462<256.356 419.761>
VStem: 36 136.849<217.23 410.77> 506.929 136.849<217.23 410.77>
LayerCount: 2
Fore
SplineSet
36 314 m 0
 36 511.599609375 168.2890625 640.559570312 339.888671875 640.559570312 c 0
 511.48828125 640.559570312 643.77734375 511.599609375 643.77734375 314 c 0
 643.77734375 116.400390625 511.48828125 -12.5595703125 339.888671875 -12.5595703125 c 0
 168.2890625 -12.5595703125 36 116.400390625 36 314 c 0
172.848632812 314 m 0
 172.848632812 200.182617188 241.046875 125.90234375 339.888671875 125.90234375 c 0
 438.73046875 125.90234375 506.928710938 200.182617188 506.928710938 314 c 0
 506.928710938 427.817382812 438.73046875 502.09765625 339.888671875 502.09765625 c 0
 241.046875 502.09765625 172.848632812 427.817382812 172.848632812 314 c 0
84 -20 m 1
 157.626373626 114 l 1
 280.967032967 66 l 1
 198 -85 l 1
 84 -20 l 1
522.725274725 506 m 1
 422.461538462 596 l 1
 484 708 l 1
 598 643 l 1
 522.725274725 506 l 1
EndSplineSet
EndChar

StartChar: oslash.varAlt01
Encoding: 1114123 -1 112
Width: 489
Flags: W
HStem: -10.0479 136.865<231.531 295.33> 295.582 136.865<190.893 265.863>
VStem: 28 144.206<145.746 276.654> 314.017 144.206<145.746 276.654>
LayerCount: 2
Fore
SplineSet
243.111328125 -10.0478515625 m 0
 129.831054688 -10.0478515625 28 63.1201171875 28 211.200195312 c 0
 28 359.279296875 129.831054688 432.447265625 243.111328125 432.447265625 c 0
 356.391601562 432.447265625 458.22265625 359.279296875 458.22265625 211.200195312 c 0
 458.22265625 63.1201171875 356.391601562 -10.0478515625 243.111328125 -10.0478515625 c 0
243.111328125 295.58203125 m 4
 203.852539062 295.58203125 172.206054688 274.04296875 172.206054688 211.200195312 c 4
 172.206054688 148.357421875 203.852539062 126.817382812 243.111328125 126.817382812 c 4
 282.370117188 126.817382812 314.016601562 148.357421875 314.016601562 211.200195312 c 4
 314.016601562 274.04296875 282.370117188 295.58203125 243.111328125 295.58203125 c 4
392.012552301 349 m 1
 267.677824268 395 l 1
 315 482 l 1
 429 417 l 1
 392.012552301 349 l 1
104.49790795 95 m 1
 229.920502092 51 l 1
 169 -61 l 1
 55 4 l 1
 104.49790795 95 l 1
EndSplineSet
EndChar

StartChar: equal
Encoding: 61 61 113
Width: 466
Flags: HW
LayerCount: 2
Fore
SplineSet
432 138.400390625 m 5
 34 138.400390625 l 5
 34 270.400390625 l 5
 432 270.400390625 l 5
 432 138.400390625 l 5
432 322.400390625 m 1
 34 322.400390625 l 1
 34 454.400390625 l 1
 432 454.400390625 l 1
 432 322.400390625 l 1
EndSplineSet
EndChar

StartChar: less
Encoding: 60 60 114
Width: 466
Flags: HW
LayerCount: 2
Fore
SplineSet
432 478.400390625 m 1
 432 336.400390625 l 1
 34 262.400390625 l 1
 34 354.400390625 l 1
 432 478.400390625 l 1
432 98.400390625 m 1
 34 222.400390625 l 1
 34 314.400390625 l 1
 432 240.400390625 l 1
 432 98.400390625 l 1
EndSplineSet
EndChar

StartChar: greater
Encoding: 62 62 115
Width: 466
Flags: HW
LayerCount: 2
Fore
SplineSet
34 98.400390625 m 1
 34 240.400390625 l 1
 432 314.400390625 l 1
 432 222.400390625 l 1
 34 98.400390625 l 1
34 478.400390625 m 1
 432 354.400390625 l 1
 432 262.400390625 l 1
 34 336.400390625 l 1
 34 478.400390625 l 1
EndSplineSet
EndChar

StartChar: yen
Encoding: 165 165 116
Width: 493
Flags: HW
HStem: 0 21G<175.5 317.5> 48.4004 132<74 420> 202.4 132<74 420> 608 20G<5.5 167.112 324.957 487.5>
VStem: 74 346<48.4004 180.4 202.4 334.4> 175.5 142<0 350>
LayerCount: 2
Fore
SplineSet
420 58.400390625 m 1xf8
 74 58.400390625 l 1
 74 170.400390625 l 1
 420 170.400390625 l 1
 420 58.400390625 l 1xf8
420 212.400390625 m 1
 74 212.400390625 l 1
 74 324.400390625 l 1
 420 324.400390625 l 1
 420 212.400390625 l 1
175.5 340 m 1xf4
 317.5 340 l 1
 317.5 0 l 1
 175.5 0 l 1
 175.5 340 l 1xf4
5.5 628 m 1
 157.5 628 l 1
 281.5 360 l 1
 317.5 340 l 1
 175.5 340 l 1
 5.5 628 l 1
487.5 628 m 1
 317.5 340 l 1
 199.5 360 l 1
 335.5 628 l 1
 487.5 628 l 1
EndSplineSet
EndChar

StartChar: yen.varAlt01
Encoding: 1114124 -1 117
Width: 493
Flags: HW
HStem: 0 21G<175.5 317.5> 48.4004 132<74 420> 202.4 132<74 420> 608 20G<5.5 167.112 324.957 487.5>
VStem: 74 346<48.4004 180.4 202.4 334.4> 175.5 142<0 350>
LayerCount: 2
Fore
SplineSet
487.5 628 m 1
 317.5 340 l 1
 199.5 360 l 1
 335.5 628 l 1
 487.5 628 l 1
5.5 628 m 1
 157.5 628 l 1
 281.5 360 l 1
 317.5 340 l 1
 175.5 340 l 1
 5.5 628 l 1
420 212.400390625 m 1
 74 212.400390625 l 1
 74 324.400390625 l 1
 420 324.400390625 l 1
 420 212.400390625 l 1
420 58.400390625 m 1xf8
 74 58.400390625 l 1
 74 170.400390625 l 1
 420 170.400390625 l 1
 420 58.400390625 l 1xf8
175.5 340 m 1
 317.5 340 l 1
 317.5 255 l 1
 175.5 260 l 1
 175.5 340 l 1
317.5 120 m 1
 317.5 0 l 1
 175.5 0 l 1
 175.5 129 l 1
 317.5 120 l 1
EndSplineSet
EndChar

StartChar: six.salt
Encoding: 1114125 -1 118
Width: 589
Flags: W
HStem: -12.5596 138.641<237.953 375.631> 276 121.761<247.931 379.483>
VStem: 42 171<156.993 354.324> 401 151<154.157 252.477>
LayerCount: 2
Fore
SplineSet
306.322265625 126.081054688 m 0
 365.173828125 126.081054688 400.408203125 156.01953125 401 206 c 0
 401.369140625 237.16015625 381.706054688 276.2421875 307 276 c 0
 244.390625 275.796875 213 247.536132812 213 208 c 0
 213 149.8046875 256 126.081054688 306.322265625 126.081054688 c 0
489 529 m 5
 489 529 391.877929688 508.833984375 305 471 c 4
 181 417 178.934135064 317.993947235 178.934135064 317.993947235 c 1
 178.934135064 317.993947235 227.415060078 397.900762974 345 397.760742188 c 0
 472.11328125 397.609375 552.193359375 314.1875 552 194 c 0
 551.826171875 86.140625 466.889648438 -12.5595703125 305.888671875 -12.5595703125 c 0
 134.2890625 -12.5595703125 42 116.400390625 42 294 c 0
 42 426.390802491 111 531 240 588 c 4
 353.946289062 638.348632812 457 657 457 657 c 5
 489 529 l 5
EndSplineSet
Substitution2: "'sups' Superscript lookup 0 subtable" six.salt.sups
Substitution2: "'sinf' Scientific Inferiors lookup 0 subtable" six.salt.sinf
Substitution2: "'subs' Subscript lookup 0 subtable" six.salt.subs
Substitution2: "'tnum' Tabular Numbers in Latin lookup 5-1" six.stf
Substitution2: "'onum' Oldstyle Figures in Latin lookup 4-1" six.ssf
Substitution2: "'dnom' Denominators lookup 0 subtable" six.salt.dnom
Substitution2: "'numr' Numerators lookup 0 subtable" six.salt.numr
EndChar

StartChar: nine.salt
Encoding: 1114126 -1 119
Width: 589
Flags: W
HStem: 232.239 119.761<210.126 343.126> 502.098 140.462<210.872 351.783>
VStem: 36.0391 150.961<372.719 475.843> 375 171.039<280.881 472.841>
LayerCount: 2
Fore
SplineSet
283.111328125 502.09765625 m 0
 214.259765625 502.09765625 187.591796875 471.98046875 187 422 c 0
 186.630859375 390.83984375 206.293945312 351.768554688 281 352 c 0
 346.610351562 352.203125 375 380.463867188 375 420 c 0
 375 471.1953125 349 502.09765625 283.111328125 502.09765625 c 0
99 111 m 1
 99 111 186.691265677 125.972295363 273.0390625 165 c 0
 408 226 409.105547723 312.007398061 409.105547723 312.007398061 c 1
 409.105547723 312.007398061 360.6249876 232.109504583 253.0390625 232.239257812 c 4
 115.92573051 232.404622358 35.845703125 315.8125 36.0390625 436 c 0
 36.212890625 543.859375 121.149414062 642.559570312 282.150390625 642.559570312 c 0
 453.75 642.559570312 546.0390625 513.599609375 546.0390625 336 c 0
 546.0390625 203.609375 460.240234375 97.1201171875 328.0390625 48 c 0
 215 6 120 -8 120 -8 c 1
 99 111 l 1
EndSplineSet
Substitution2: "'sups' Superscript lookup 0 subtable" nine.salt.sups
Substitution2: "'sinf' Scientific Inferiors lookup 0 subtable" nine.salt.sinf
Substitution2: "'subs' Subscript lookup 0 subtable" nine.salt.subs
Substitution2: "'tnum' Tabular Numbers in Latin lookup 5-1" nine.stf
Substitution2: "'onum' Oldstyle Figures in Latin lookup 4-1" nine.ssf
Substitution2: "'dnom' Denominators lookup 0 subtable" nine.salt.dnom
Substitution2: "'numr' Numerators lookup 0 subtable" nine.salt.numr
EndChar

StartChar: numbersign
Encoding: 35 35 120
Width: 638
Flags: HW
LayerCount: 2
Fore
SplineSet
563 130.400390625 m 1
 25 130.400390625 l 1
 25 262.400390625 l 1
 563 262.400390625 l 1
 563 130.400390625 l 1
613 350.400390625 m 1
 85 350.400390625 l 1
 85 482.400390625 l 1
 613 482.400390625 l 1
 613 350.400390625 l 1
271 0 m 1
 441 628 l 1
 583 628 l 1
 413 0 l 1
 271 0 l 1
61 0 m 1
 231 628 l 1
 373 628 l 1
 203 0 l 1
 61 0 l 1
EndSplineSet
EndChar

StartChar: cent
Encoding: 162 162 121
Width: 423
Flags: HW
LayerCount: 2
Fore
SplineSet
311 0 m 1
 169 0 l 1
 179 168 l 1
 301 168 l 1
 311 0 l 1
323 400 m 1
 201 400 l 1
 191 588 l 1
 333 588 l 1
 323 400 l 1
28 295.200195312 m 0
 28 443.279296875 129.831054688 516.447265625 263.111328125 516.447265625 c 0
 340.2734375 516.447265625 386.956054688 493.577148438 386.956054688 493.577148438 c 1
 377.1953125 356.079101562 l 1
 377.1953125 356.079101562 320.220703125 379.58203125 263.111328125 379.58203125 c 0
 203.852539062 379.58203125 172.206054688 358.04296875 172.206054688 295.200195312 c 0
 172.206054688 232.357421875 203.852539062 210.817382812 263.111328125 210.817382812 c 0
 318.465820312 210.817382812 375 232 375 232 c 1
 396.404296875 96.552734375 l 1
 396.404296875 96.552734375 340.0546875 73.9521484375 243.111328125 73.9521484375 c 0
 149.831054688 73.9521484375 28 147.120117188 28 295.200195312 c 0
EndSplineSet
EndChar

StartChar: sterling
Encoding: 163 163 122
Width: 493
Flags: HW
LayerCount: 2
Fore
SplineSet
372 220.400390625 m 1
 34 220.400390625 l 1
 34 352.400390625 l 1
 372 352.400390625 l 1
 372 220.400390625 l 1
36 121 m 1
 107 131 l 1
 453 131 l 1
 453 0 l 1
 36 0 l 1
 36 121 l 1
279 286 m 0
 279 117 69.2783203125 76 69.2783203125 76 c 1
 36 121 l 1
 127 156 160.62109375 214 160.62109375 268 c 0
 160.62109375 363 45 375.068359375 45 474 c 0
 45 581.599609375 137.2890625 640.559570312 268.888671875 640.559570312 c 0
 369.5859375 640.559570312 444 592 444 592 c 1
 400.669921875 460 l 1
 400.669921875 460 340.006835938 502.09765625 268.888671875 502.09765625 c 0
 220.046875 502.09765625 181.848632812 493.817382812 181.848632812 460 c 0
 181.848632812 416.182617188 279 383.186523438 279 286 c 0
EndSplineSet
EndChar

StartChar: copyright
Encoding: 169 169 123
Width: 673
Flags: HW
HStem: -12.5596 138.462<242.356 409.421> 502.098 138.462<242.356 409.421>
VStem: 22 136.849<217.23 410.77> 492.929 136.849<217.23 410.77>
LayerCount: 2
Fore
SplineSet
130.4296875 314 m 0
 130.4296875 174.004882812 215.313476562 92.6396484375 336.888671875 92.6396484375 c 0
 458.463867188 92.6396484375 543.34765625 174.004882812 543.34765625 314 c 0
 543.34765625 453.995117188 458.463867188 535.360351562 336.888671875 535.360351562 c 0
 215.313476562 535.360351562 130.4296875 453.995117188 130.4296875 314 c 0
32 314 m 0
 32 511.599609375 165.2890625 640.559570312 336.888671875 640.559570312 c 0
 508.48828125 640.559570312 641.77734375 511.599609375 641.77734375 314 c 0
 641.77734375 116.400390625 508.48828125 -12.5595703125 336.888671875 -12.5595703125 c 0
 165.2890625 -12.5595703125 32 116.400390625 32 314 c 0
182.751953125 315.647460938 m 4
 182.751953125 205.475585938 273.39453125 151.0390625 342.794921875 151.0390625 c 4
 414.919921875 151.0390625 456.84375 167.853515625 456.84375 167.853515625 c 5
 440.919921875 268.625976562 l 5
 440.919921875 268.625976562 398.857421875 252.8671875 357.674804688 252.8671875 c 4
 313.5859375 252.8671875 290.041015625 268.892578125 290.041015625 315.647460938 c 4
 290.041015625 362.40234375 313.5859375 378.427734375 357.674804688 378.427734375 c 4
 400.1640625 378.427734375 442.552734375 360.94140625 442.552734375 360.94140625 c 5
 449.814453125 463.239257812 l 5
 449.814453125 463.239257812 415.083007812 480.255859375 357.674804688 480.255859375 c 4
 258.513671875 480.255859375 182.751953125 425.818359375 182.751953125 315.647460938 c 4
EndSplineSet
EndChar

StartChar: registered
Encoding: 174 174 124
Width: 673
Flags: W
HStem: -12.5596 105.199<239.556 435.902> 389.364 86.2793<317.651 369.545> 535.36 105.199<239.556 435.902>
VStem: 32 98.4297<207.95 420.05> 214.552 103.1<160.356 278.758 302.733 389.364> 543.348 98.4297<207.95 420.05>
LayerCount: 2
Fore
SplineSet
32 314 m 0
 32 511.599609375 166.2890625 640.559570312 337.888671875 640.559570312 c 0
 509.48828125 640.559570312 641.77734375 511.599609375 641.77734375 314 c 0
 641.77734375 116.400390625 509.48828125 -12.5595703125 337.888671875 -12.5595703125 c 0
 166.2890625 -12.5595703125 32 116.400390625 32 314 c 0
130.4296875 314 m 0
 130.4296875 174.004882812 216.313476562 92.6396484375 337.888671875 92.6396484375 c 0
 459.463867188 92.6396484375 543.34765625 174.004882812 543.34765625 314 c 0
 543.34765625 453.995117188 459.463867188 535.360351562 337.888671875 535.360351562 c 0
 216.313476562 535.360351562 130.4296875 453.995117188 130.4296875 314 c 0
331.088867188 389.364257812 m 6
 317.651367188 389.364257812 l 5
 317.651367188 475.643554688 l 5
 355.088867188 475.643554688 l 6
 417.171875 475.643554688 475.4921875 449.291992188 475.4921875 373.30859375 c 4
 475.4921875 300.415039062 417.171875 278.7578125 355.088867188 278.7578125 c 6
 317.651367188 278.7578125 l 5
 317.651367188 359.888671875 l 5
 331.088867188 359.888671875 l 6
 355.717773438 359.888671875 371.044921875 361.515625 371.044921875 374.279296875 c 4
 371.044921875 389.131835938 355.717773438 389.364257812 331.088867188 389.364257812 c 6
214.551757812 160.356445312 m 5
 214.551757812 475.643554688 l 5
 317.651367188 475.643554688 l 5
 317.651367188 160.356445312 l 5
 214.551757812 160.356445312 l 5
489.448242188 160.356445312 m 5
 365.756835938 160.356445312 l 5
 292.798828125 302.733398438 l 5
 338.616210938 340.017578125 l 5
 489.448242188 160.356445312 l 5
EndSplineSet
Substitution2: "'ss08' Style Set 8 lookup 16-1" registered.salt
Substitution2: "'salt' Stylistic Alternatives in Latin lookup 3-1" registered.salt
EndChar

StartChar: degree
Encoding: 176 176 125
Width: 363
VWidth: 999
Flags: HW
LayerCount: 2
Fore
SplineSet
142 546 m 4
 142 513 160 500 182 500 c 4
 204 500 223 513 223 546 c 4
 223 579 204 591 182 591 c 0
 160 591 142 579 142 546 c 4
34 546 m 4
 34 627 88 693 182 693 c 0
 276 693 330 627 330 546 c 4
 330 465 276 398 182 398 c 4
 88 398 34 465 34 546 c 4
EndSplineSet
EndChar

StartChar: dieresis
Encoding: 168 168 126
Width: 461
Flags: HW
LayerCount: 2
Fore
SplineSet
251.88671875 545.334960938 m 4
 251.88671875 602.954101562 290.4609375 640.559570312 340.499023438 640.559570312 c 4
 390.538085938 640.559570312 429.11328125 602.954101562 429.11328125 545.334960938 c 4
 429.11328125 487.71484375 390.538085938 450.110351562 340.499023438 450.110351562 c 4
 290.4609375 450.110351562 251.88671875 487.71484375 251.88671875 545.334960938 c 4
31.88671875 545.334960938 m 0
 31.88671875 602.954101562 70.4609375 640.559570312 120.499023438 640.559570312 c 0
 170.538085938 640.559570312 209.11328125 602.954101562 209.11328125 545.334960938 c 0
 209.11328125 487.71484375 170.538085938 450.110351562 120.499023438 450.110351562 c 0
 70.4609375 450.110351562 31.88671875 487.71484375 31.88671875 545.334960938 c 0
EndSplineSet
EndChar

StartChar: eth
Encoding: 240 240 127
Width: 489
Flags: HW
LayerCount: 2
Fore
SplineSet
444 487 m 1
 139 457 l 1
 126 559 l 1
 430 589 l 1
 444 487 l 1
243.111328125 295.58203125 m 0
 203.852539062 295.58203125 172.206054688 274.04296875 172.206054688 211.200195312 c 0
 172.206054688 148.357421875 203.852539062 126.817382812 243.111328125 126.817382812 c 0
 282.370117188 126.817382812 314.016601562 148.357421875 314.016601562 211.200195312 c 0
 314.016601562 274.04296875 282.370117188 295.58203125 243.111328125 295.58203125 c 0
28 211.200195312 m 0
 28 359.279296875 129.831054688 432.447265625 233.111328125 432.447265625 c 0
 283.751885771 432.447265625 301.30859375 419.279296875 301.30859375 419.279296875 c 1
 268.671875 503.560546875 212.407498478 577.503150564 157.622070312 630.400390625 c 1
 328.221679688 660.400390625 l 1
 328.221679688 660.400390625 461.221679688 459 461.221679688 211.201171875 c 0
 461.221679688 63.1201171875 358.390625 -10.0478515625 243.111328125 -10.0478515625 c 0
 129.831054688 -10.0478515625 28 63.1201171875 28 211.200195312 c 0
EndSplineSet
EndChar

StartChar: germandbls
Encoding: 223 223 128
Width: 539
Flags: HW
LayerCount: 2
Fore
SplineSet
512.345703125 158.959960938 m 0
 512.345703125 50.49609375 434.880859375 -8.0380859375 330.256835938 -8.0380859375 c 0
 264.702148438 -8.0380859375 217.623046875 13.0419921875 217.623046875 13.0419921875 c 1
 234.74609375 136.400390625 l 1
 234.74609375 136.400390625 271.973632812 121.454101562 304.256835938 121.454101562 c 0
 351.6640625 121.454101562 376.981445312 138.685546875 376.981445312 178.959960938 c 0
 376.981445312 219.234375 351.6640625 246.465820312 304.256835938 246.465820312 c 0
 258.569335938 246.465820312 248.22265625 242 248.22265625 242 c 1
 248.22265625 336.206054688 l 1
 248.22265625 336.206054688 251 342 304.256835938 335.958007812 c 0
 406.054731356 324.409028643 512.345703125 277.423828125 512.345703125 158.959960938 c 0
316.016601562 439.3125 m 0
 316.016601562 482.155273438 287.370117188 503.694335938 246.111328125 503.694335938 c 0
 206.852539062 503.694335938 171.599609375 482.155273438 171.599609375 419.3125 c 2
 171.599609375 -0 l 1
 31 0 l 1
 31 419.3125 l 2
 31 567.391601562 132.831054688 640.559570312 246.111328125 640.559570312 c 0
 361.390625 640.559570312 461.221679688 567.391601562 461.221679688 449.3125 c 0
 461.221679688 336.115234375 370.22265625 300 248.22265625 282 c 1
 248.22265625 376.206054688 l 1
 290.87109375 376.272460938 316.016601562 400.188467007 316.016601562 439.3125 c 0
EndSplineSet
EndChar

StartChar: y.salt
Encoding: 1114127 -1 129
Width: 530
Flags: W
HStem: -215.87 146.865<47.3648 152.394> 0 21G<192.781 320.956> 402.4 20G<40.3564 197.111 343.659 500.956>
LayerCount: 2
Fore
SplineSet
350.356445312 422.400390625 m 1
 500.956054688 422.400390625 l 1
 340.956054688 5.376953125 l 2
 293.306640625 -118.817382812 228.356445312 -214 105.844726562 -215.870117188 c 0
 58.6884765625 -216.58984375 31 -209 31 -209 c 1
 47.3564453125 -63 l 1
 47.3564453125 -63 58.7353515625 -69.0048828125 85.8447265625 -69.0048828125 c 0
 115.103515625 -69.0048828125 184.547851562 -63.142578125 234.356445312 76 c 6
 350.356445312 422.400390625 l 1
200.356445312 0 m 1
 40.3564453125 422.400390625 l 1
 190.956054688 422.400390625 l 1
 320.956054688 0 l 1
 200.356445312 0 l 1
EndSplineSet
EndChar

StartChar: section
Encoding: 167 167 130
Width: 437
Flags: HW
LayerCount: 2
Fore
SplineSet
307 274 m 0
 385.102181246 258.06107643 405.978515625 187.31621622 405.978515625 141.19921875 c 0
 405.978515625 23.1201171875 314.146484375 -10.0478515625 180.8671875 -10.0478515625 c 0
 103.705078125 -10.0478515625 27.021484375 12.822265625 27.021484375 12.822265625 c 1
 46.783203125 140.3203125 l 1
 46.783203125 140.3203125 123.7578125 116.817382812 180.8671875 116.817382812 c 0
 240.125 116.817382812 259.771484375 124.356445312 259.771484375 141.19921875 c 0
 259.771484375 156.041992188 233.845703125 157.323242188 214.8671875 159.58203125 c 0
 126.8671875 170.055664062 36.8671875 191.17578125 36.8671875 289.255859375 c 0
 36.8671875 390.911402945 136 430 136 430 c 1
 191 392 l 1
 191 392 173 370 173 336 c 0
 173 301.294921875 220.00000127 291.754770842 307 274 c 0
243 250 m 1
 243 250 274.686523438 261.3515625 274.686523438 296 c 0
 274.686523438 322 252.946289062 327.25390625 222.818359375 333 c 0
 76 361 40.8671875 439.679906554 40.8671875 498.885742188 c 0
 40.8671875 616.96484375 132.697265625 640.1328125 245.978515625 640.1328125 c 0
 343.140625 640.1328125 397.8671875 611.685546875 397.8671875 611.685546875 c 1
 375.8671875 495.685546875 l 1
 375.8671875 495.685546875 333.087890625 513.267578125 265.978515625 513.267578125 c 0
 206.71875 513.267578125 194.8671875 505.528320312 194.8671875 494.685546875 c 0
 194.8671875 484.842773438 199.873046875 478.69921875 228.8671875 476.077148438 c 0
 365.8671875 463.685546875 409.978515625 418.909179688 409.978515625 340.829101562 c 0
 409.978515625 240.430056241 256 208 256 208 c 1
 243 250 l 1
EndSplineSet
EndChar

StartChar: guillemotleft
Encoding: 171 171 131
Width: 582
Flags: HW
LayerCount: 2
Fore
SplineSet
548.221679688 478.400390625 m 1
 548.221679688 336.400390625 l 1
 314 262.400390625 l 1
 314 354.400390625 l 1
 548.221679688 478.400390625 l 1
548.221679688 98.400390625 m 1
 314 222.400390625 l 1
 314 314.400390625 l 1
 548.221679688 240.400390625 l 1
 548.221679688 98.400390625 l 1
268.221679688 478.400390625 m 1
 268.221679688 336.400390625 l 1
 34 262.400390625 l 1
 34 354.400390625 l 1
 268.221679688 478.400390625 l 1
268.221679688 98.400390625 m 1
 34 222.400390625 l 1
 34 314.400390625 l 1
 268.221679688 240.400390625 l 1
 268.221679688 98.400390625 l 1
EndSplineSet
EndChar

StartChar: guillemotright
Encoding: 187 187 132
Width: 582
Flags: HW
LayerCount: 2
Fore
SplineSet
34 478.400390625 m 1
 268.221679688 354.400390625 l 1
 268.221679688 262.400390625 l 1
 34 336.400390625 l 1
 34 478.400390625 l 1
34 98.400390625 m 1
 34 240.400390625 l 1
 268.221679688 314.400390625 l 1
 268.221679688 222.400390625 l 1
 34 98.400390625 l 1
314 478.400390625 m 1
 548.221679688 354.400390625 l 1
 548.221679688 262.400390625 l 1
 314 336.400390625 l 1
 314 478.400390625 l 1
314 98.400390625 m 1
 314 240.400390625 l 1
 548.221679688 314.400390625 l 1
 548.221679688 222.400390625 l 1
 314 98.400390625 l 1
EndSplineSet
EndChar

StartChar: currency
Encoding: 164 164 133
Width: 489
Flags: HW
LayerCount: 2
Fore
SplineSet
74.2099609375 429 m 1
 37.22265625 497 l 1
 151.22265625 562 l 1
 198.544921875 475 l 1
 74.2099609375 429 l 1
401.724609375 175 m 1
 451.22265625 84 l 1
 337.22265625 19 l 1
 276.301757812 131 l 1
 401.724609375 175 l 1
243.111328125 69.9521484375 m 0
 129.831054688 69.9521484375 28 143.120117188 28 291.200195312 c 0
 28 439.279296875 129.831054688 512.447265625 243.111328125 512.447265625 c 0
 356.391601562 512.447265625 458.22265625 439.279296875 458.22265625 291.200195312 c 0
 458.22265625 143.120117188 356.391601562 69.9521484375 243.111328125 69.9521484375 c 0
243.111328125 375.58203125 m 0
 203.852539062 375.58203125 172.206054688 354.04296875 172.206054688 291.200195312 c 0
 172.206054688 228.357421875 203.852539062 206.817382812 243.111328125 206.817382812 c 0
 282.370117188 206.817382812 314.016601562 228.357421875 314.016601562 291.200195312 c 0
 314.016601562 354.04296875 282.370117188 375.58203125 243.111328125 375.58203125 c 0
412.012695312 429 m 1
 287.677734375 475 l 1
 335 562 l 1
 449 497 l 1
 412.012695312 429 l 1
84.498046875 175 m 1
 209.920898438 131 l 1
 149 19 l 1
 35 84 l 1
 84.498046875 175 l 1
EndSplineSet
EndChar

StartChar: ampersand
Encoding: 38 38 134
Width: 614
Flags: HW
HStem: -10.0479 132.255<174.042 300.799> 502.098 138.462<237.402 419.848>
VStem: 26 144.206<128.741 186.261> 83 136.849<368.796 482.196>
LayerCount: 2
Fore
SplineSet
241.981445312 307.875 m 1xe0
 269 238 l 0
 186 214 170.206054688 197.940429688 170.206054688 169.200195312 c 0
 170.206054688 140.884765625 197.459960938 122.20703125 232 122.20703125 c 0
 272 122.20703125 346 141 441 391 c 1
 568.20703125 335 l 1
 459 113 371.356445312 -10.0478515625 218.111328125 -10.0478515625 c 0
 93.8310546875 -10.0478515625 26 58.1201171875 26 136.200195312 c 0
 26 285.224609375 199 303 241.981445312 307.875 c 1xe0
589.000976562 0 m 1
 589.000976562 0 571 -10.0478515625 511.111328125 -10.0478515625 c 0
 399.830078125 -10.0478515625 348 39 276.888671875 122.440429688 c 4
 222.120117188 186.705078125 83 336.400390625 83 454 c 0
 83 571.599609375 175.2890625 640.559570312 306.888671875 640.559570312 c 0
 427.5859375 640.559570312 482 602 482 602 c 1
 438.669921875 470 l 1
 438.669921875 470 398.006835938 502.09765625 306.888671875 502.09765625 c 0
 248.046875 502.09765625 219.848632812 473.817382812 219.848632812 440 c 0xd0
 219.848632812 398.182617188 245.33203125 334.637695312 296.888671875 270.90234375 c 0
 384.715820312 162.328125 419.1569661 101.087678368 577.850585938 120 c 1
 589.000976562 0 l 1
EndSplineSet
Substitution2: "'ss05' Style Set 5 lookup 13-1" ampersand.alt
Substitution2: "'salt' Stylistic Alternatives in Latin lookup 3-1" ampersand.alt
EndChar

StartChar: underscore
Encoding: 95 95 135
Width: 754
Flags: HW
LayerCount: 2
Fore
SplineSet
709 -132 m 5
 48 -132 l 1
 48 0 l 1
 709 0 l 5
 709 -132 l 5
EndSplineSet
EndChar

StartChar: asciitilde
Encoding: 126 126 136
Width: 472
VWidth: 999
Flags: HW
LayerCount: 2
Fore
SplineSet
429 282 m 1
 429 282 381 214 307 214 c 0
 244 214 223 253 177 253 c 0
 139 253 108 219 108 219 c 1
 43 332 l 1
 43 332 96 382 165 382 c 0
 227 382 253 344 295 344 c 0
 338 344 360 374 360 374 c 1
 429 282 l 1
EndSplineSet
EndChar

StartChar: brokenbar
Encoding: 166 166 137
Width: 192
Flags: HW
LayerCount: 2
Fore
SplineSet
157 340 m 1
 35 340 l 1
 35 708 l 1
 157 708 l 1
 157 340 l 1
157 -80 m 1
 35 -80 l 1
 35 260 l 5
 157 260 l 5
 157 -80 l 1
EndSplineSet
EndChar

StartChar: uni00AD
Encoding: 173 173 138
Width: 370
Flags: HW
LayerCount: 2
Fore
SplineSet
344 230.400390625 m 1
 26 230.400390625 l 1
 26 362.400390625 l 1
 344 362.400390625 l 1
 344 230.400390625 l 1
EndSplineSet
EndChar

StartChar: logicalnot
Encoding: 172 172 139
Width: 370
Flags: HW
LayerCount: 2
Fore
SplineSet
344 362.400390625 m 1
 344 174.400390625 l 5
 212 174.400390625 l 5
 212 352.400390625 l 1
 344 362.400390625 l 1
334 230.400390625 m 1
 26 230.400390625 l 1
 26 362.400390625 l 1
 344 362.400390625 l 1
 334 230.400390625 l 1
EndSplineSet
EndChar

StartChar: plusminus
Encoding: 177 177 140
Width: 466
Flags: HW
LayerCount: 2
Fore
SplineSet
299 335.400390625 m 1
 299 147.400390625 l 5
 167 147.400390625 l 5
 167 335.400390625 l 1
 299 335.400390625 l 1
432 97.400390625 m 5
 34 97.400390625 l 5
 34 229.400390625 l 5
 432 229.400390625 l 5
 432 97.400390625 l 5
299 575.400390625 m 1
 299 427.400390625 l 1
 167 427.400390625 l 1
 167 575.400390625 l 1
 299 575.400390625 l 1
432 310.400390625 m 1
 34 310.400390625 l 1
 34 442.400390625 l 1
 432 442.400390625 l 1
 432 310.400390625 l 1
EndSplineSet
EndChar

StartChar: circumflex
Encoding: 710 710 141
Width: 382
VWidth: 999
Flags: HW
LayerCount: 2
Fore
SplineSet
352 485 m 1
 230 475 l 1
 120 633 l 5
 262 633 l 5
 352 485 l 1
30 485 m 1
 120 633 l 5
 262 633 l 5
 152 475 l 1
 30 485 l 1
EndSplineSet
EndChar

StartChar: caron
Encoding: 711 711 142
Width: 382
VWidth: 999
Flags: HW
LayerCount: 2
Fore
SplineSet
30 623 m 1
 152 633 l 1
 262 475 l 5
 120 475 l 5
 30 623 l 1
352 623 m 1
 262 475 l 5
 120 475 l 5
 230 633 l 1
 352 623 l 1
EndSplineSet
EndChar

StartChar: breve
Encoding: 728 728 143
Width: 431
VWidth: 999
Flags: HW
LayerCount: 2
Fore
SplineSet
216 600 m 4
 299 600 330 630 330 630 c 5
 399 558 l 5
 399 558 340 470 216 470 c 4
 92 470 32 558 32 558 c 5
 101 630 l 5
 101 630 133 600 216 600 c 4
EndSplineSet
EndChar

StartChar: dotaccent
Encoding: 729 729 144
Width: 244
VWidth: 999
Flags: HW
LayerCount: 2
Fore
SplineSet
34 546 m 0
 34 604 72 641 122 641 c 0
 172 641 211 604 211 546 c 0
 211 488 172 451 122 451 c 0
 72 451 34 488 34 546 c 0
EndSplineSet
EndChar

StartChar: ring
Encoding: 730 730 145
Width: 343
VWidth: 999
Flags: HW
LayerCount: 2
Fore
SplineSet
142 546 m 4
 142 513 155 500 172 500 c 4
 189 500 203 513 203 546 c 4
 203 579 189 591 172 591 c 4
 155 591 142 579 142 546 c 4
34 546 m 0
 34 627 88 693 172 693 c 0
 256 693 310 627 310 546 c 0
 310 465 256 398 172 398 c 0
 88 398 34 465 34 546 c 0
EndSplineSet
EndChar

StartChar: ogonek
Encoding: 731 731 146
Width: 365
VWidth: 999
Flags: HW
LayerCount: 2
Fore
SplineSet
42 -109 m 4
 42 -44 87.013671875 -11.5849609375 152 15 c 4
 196 33 230 36 230 36 c 5
 295 20 l 5
 295 20 249.180664062 2.94140625 217 -19 c 4
 195 -34 181 -56 181 -80 c 4
 181 -105 193 -138 238 -138 c 4
 278 -138 296 -127 296 -127 c 5
 324 -229 l 5
 324 -229 271 -246 202 -246 c 4
 120 -246 42 -193 42 -109 c 4
EndSplineSet
EndChar

StartChar: tilde
Encoding: 732 732 147
Width: 448
VWidth: 999
Flags: HW
LayerCount: 2
Fore
SplineSet
417 538 m 1
 417 538 369 470 295 470 c 0
 232 470 211 509 165 509 c 0
 127 509 96 475 96 475 c 1
 31 587 l 1
 31 587 84 638 153 638 c 0
 215 638 241 600 283 600 c 0
 326 600 348 630 348 630 c 1
 417 538 l 1
EndSplineSet
EndChar

StartChar: hungarumlaut
Encoding: 733 733 148
Width: 502
VWidth: 999
Flags: HW
LayerCount: 2
Fore
SplineSet
240 485 m 1
 330 633 l 1
 472 623 l 1
 362 475 l 1
 240 485 l 1
30 485 m 1
 120 633 l 1
 262 623 l 1
 152 475 l 1
 30 485 l 1
EndSplineSet
EndChar

StartChar: gravecomb
Encoding: 768 768 149
Width: 0
VWidth: 999
Flags: HW
LayerCount: 2
Fore
SplineSet
116 485 m 5
 -6 475 l 5
 -116 623 l 5
 26 633 l 5
 116 485 l 5
EndSplineSet
EndChar

StartChar: acutecomb
Encoding: 769 769 150
Width: 0
VWidth: 999
Flags: HW
LayerCount: 2
Fore
SplineSet
-116 485 m 5
 -26 633 l 5
 116 623 l 5
 6 475 l 5
 -116 485 l 5
EndSplineSet
EndChar

StartChar: uni0302
Encoding: 770 770 151
Width: 0
VWidth: 999
Flags: HW
LayerCount: 2
Fore
SplineSet
161 485 m 1
 39 475 l 1
 -71 633 l 5
 71 633 l 5
 161 485 l 1
-161 485 m 1
 -71 633 l 5
 71 633 l 5
 -39 475 l 1
 -161 485 l 1
EndSplineSet
EndChar

StartChar: tildecomb
Encoding: 771 771 152
Width: 0
VWidth: 999
Flags: HW
LayerCount: 2
Fore
SplineSet
193 538 m 5
 193 538 145 470 71 470 c 4
 8 470 -12 509 -58 509 c 4
 -96 509 -128 475 -128 475 c 5
 -193 587 l 5
 -193 587 -140 638 -71 638 c 4
 -9 638 17 600 59 600 c 4
 102 600 124 630 124 630 c 5
 193 538 l 5
EndSplineSet
EndChar

StartChar: uni0304
Encoding: 772 772 153
Width: 0
VWidth: 999
Flags: HW
LayerCount: 2
Fore
SplineSet
145 496 m 1
 -145 496 l 1
 -145 628 l 1
 145 628 l 1
 145 496 l 1
EndSplineSet
EndChar

StartChar: uni0306
Encoding: 774 774 154
Width: 0
VWidth: 999
Flags: HW
LayerCount: 2
Fore
SplineSet
0 600 m 4
 83 600 115 630 115 630 c 5
 184 558 l 5
 184 558 124 470 0 470 c 4
 -124 470 -184 558 -184 558 c 5
 -115 630 l 5
 -115 630 -83 600 0 600 c 4
EndSplineSet
EndChar

StartChar: uni0307
Encoding: 775 775 155
Width: 0
VWidth: 999
Flags: HW
LayerCount: 2
Fore
SplineSet
-89 546 m 0
 -89 604 -50 641 0 641 c 0
 50 641 89 604 89 546 c 0
 89 488 50 451 0 451 c 0
 -50 451 -89 488 -89 546 c 0
EndSplineSet
EndChar

StartChar: uni0308
Encoding: 776 776 156
Width: 0
VWidth: 999
Flags: HW
LayerCount: 2
Fore
SplineSet
21 546 m 4
 21 604 60 641 110 641 c 4
 160 641 198 604 198 546 c 4
 198 488 160 451 110 451 c 4
 60 451 21 488 21 546 c 4
-198 546 m 0
 -198 604 -160 641 -110 641 c 0
 -60 641 -21 604 -21 546 c 0
 -21 488 -60 451 -110 451 c 0
 -160 451 -198 488 -198 546 c 0
EndSplineSet
EndChar

StartChar: hookabovecomb
Encoding: 777 777 157
Width: 0
VWidth: 999
Flags: HW
LayerCount: 2
Fore
SplineSet
141 546 m 4
 141 481 98 443 31 422 c 4
 -22 405 -56 404 -56 404 c 5
 -63 513 l 1
 -63 513 -37 516 -23 520 c 0
 -8 524 12 531 12 545 c 0
 12 559 0 575 -45 575 c 0
 -85 575 -103 564 -103 564 c 1
 -141 666 l 5
 -141 666 -88 683 -19 683 c 4
 63 683 141 630 141 546 c 4
EndSplineSet
EndChar

StartChar: uni030A
Encoding: 778 778 158
Width: 0
VWidth: 999
Flags: HW
LayerCount: 2
Fore
SplineSet
-30 546 m 4
 -30 513 -17 500 0 500 c 4
 17 500 30 513 30 546 c 4
 30 579 17 591 0 591 c 4
 -17 591 -30 579 -30 546 c 4
-138 546 m 0
 -138 627 -84 693 0 693 c 0
 84 693 138 627 138 546 c 0
 138 465 84 398 0 398 c 0
 -84 398 -138 465 -138 546 c 0
EndSplineSet
EndChar

StartChar: uni030B
Encoding: 779 779 159
Width: 0
VWidth: 999
Flags: HW
LayerCount: 2
Fore
SplineSet
-11 485 m 1
 79 633 l 1
 221 623 l 1
 111 475 l 1
 -11 485 l 1
-221 485 m 1
 -131 633 l 1
 11 623 l 1
 -99 475 l 1
 -221 485 l 1
EndSplineSet
EndChar

StartChar: uni030C
Encoding: 780 780 160
Width: 0
VWidth: 999
Flags: HW
LayerCount: 2
Fore
SplineSet
-161 623 m 1
 -39 633 l 1
 71 475 l 5
 -71 475 l 5
 -161 623 l 1
161 623 m 1
 71 475 l 5
 -71 475 l 5
 39 633 l 1
 161 623 l 1
EndSplineSet
EndChar

StartChar: uni030F
Encoding: 783 783 161
Width: 0
VWidth: 999
Flags: HW
LayerCount: 2
Fore
SplineSet
11 485 m 1
 -111 475 l 1
 -221 623 l 1
 -79 633 l 1
 11 485 l 1
221 485 m 1
 99 475 l 1
 -11 623 l 1
 131 633 l 1
 221 485 l 1
EndSplineSet
EndChar

StartChar: uni0311
Encoding: 785 785 162
Width: 0
VWidth: 999
Flags: HW
LayerCount: 2
Fore
SplineSet
0 500 m 0
 -83 500 -115 470 -115 470 c 1
 -184 542 l 1
 -184 542 -124 630 0 630 c 0
 124 630 184 542 184 542 c 1
 115 470 l 1
 115 470 83 500 0 500 c 0
EndSplineSet
EndChar

StartChar: uni0326
Encoding: 806 806 163
Width: 0
VWidth: 999
Flags: HW
LayerCount: 2
Fore
SplineSet
-89 -56 m 0
 -89 4 -50 30 0 30 c 0
 50 30 89 4 89 -56 c 0
 89 -170 -9 -246 -9 -246 c 1
 -70 -201 l 1
 3 -138 l 1
 -44 -134 -89 -107 -89 -56 c 0
EndSplineSet
EndChar

StartChar: uni0327
Encoding: 807 807 164
Width: 0
VWidth: 999
Flags: HW
LayerCount: 2
Fore
SplineSet
23 32 m 1
 1 -68 l 1
 -39 -59 l 1
 -46 -101 l 1
 -100 -68 l 1
 -87 32 l 1
 23 32 l 1
141 -125 m 0
 141 -209 63 -243 -19 -243 c 0
 -88 -243 -141 -225 -141 -225 c 1
 -113 -127 l 1
 -113 -127 -95 -138 -55 -138 c 0
 -10 -138 2 -122 2 -108 c 0
 2 -94 -7 -87 -23 -87 c 0
 -41 -87 -46 -101 -46 -101 c 1
 -43 -59 l 1
 -43 -59 -27 -24 31 -24 c 0
 101 -24 141 -60 141 -125 c 0
EndSplineSet
EndChar

StartChar: uni0328
Encoding: 808 808 165
Width: 0
VWidth: 999
Flags: HW
LayerCount: 2
Fore
SplineSet
-141 -109 m 4
 -141 -44 -95.9863157822 -11.5853110018 -31 15 c 4
 13 33 47 36 47 36 c 5
 112 20 l 5
 112 20 66.1804678428 2.9412280746 34 -19 c 4
 12 -34 -2 -56 -2 -80 c 4
 -2 -105 10 -138 55 -138 c 4
 95 -138 113 -127 113 -127 c 5
 141 -229 l 5
 141 -229 88 -246 19 -246 c 4
 -63 -246 -141 -193 -141 -109 c 4
EndSplineSet
EndChar

StartChar: quotesingle
Encoding: 39 39 166
Width: 255
Flags: HW
LayerCount: 2
Fore
SplineSet
76 380 m 5
 56 628 l 1
 198 628 l 1
 178 380 l 5
 76 380 l 5
EndSplineSet
EndChar

StartChar: quotedbl
Encoding: 34 34 167
Width: 457
Flags: HW
LayerCount: 2
Fore
SplineSet
278 380 m 5
 258 628 l 5
 400 628 l 5
 380 380 l 5
 278 380 l 5
76 380 m 1
 56 628 l 1
 198 628 l 1
 178 380 l 1
 76 380 l 1
EndSplineSet
EndChar

StartChar: asterisk
Encoding: 42 42 168
Width: 415
Flags: HW
LayerCount: 2
Fore
SplineSet
122.250976562 502.829101562 m 5
 71.009765625 582.733398438 l 5
 169.390625 639.533203125 l 5
 207.400390625 551.990234375 l 5
 245.41015625 639.533203125 l 5
 343.791015625 582.733398438 l 5
 292.549804688 502.829101562 l 5
 381.80078125 510.467773438 l 5
 381.80078125 396.868164062 l 5
 292.549804688 404.506835938 l 5
 343.791015625 324.602539062 l 5
 245.41015625 267.802734375 l 5
 207.400390625 355.345703125 l 5
 169.390625 267.802734375 l 5
 71.009765625 324.602539062 l 5
 122.250976562 404.506835938 l 5
 33 396.868164062 l 5
 33 510.467773438 l 5
 122.250976562 502.829101562 l 5
EndSplineSet
EndChar

StartChar: zero.numr
Encoding: 1114128 -1 169
Width: 429
Flags: HW
LayerCount: 2
Fore
SplineSet
170.71484375 420 m 0
 170.71484375 361.83984375 180.78515625 326.9296875 215.764648438 326.9296875 c 0
 250.745117188 326.9296875 260.28515625 361.83984375 260.28515625 420 c 0
 260.28515625 478.16015625 250.745117188 513.0703125 215.764648438 513.0703125 c 0
 180.78515625 513.0703125 170.71484375 478.16015625 170.71484375 420 c 0
28 420 m 0
 28 556 94 644 216 644 c 0
 338 644 403 556 403 420 c 0
 403 284 338 196 216 196 c 0
 94 196 28 284 28 420 c 0
EndSplineSet
Substitution2: "Single Substitution lookup 25 subtable" zero.dnom
Substitution2: "Single Substitution lookup 24 subtable" zero.dnom
EndChar

StartChar: one.numr
Encoding: 1114129 -1 170
Width: 336
Flags: HW
LayerCount: 2
Fore
SplineSet
145 470 m 5
 89.1552734375 422.884765625 l 1
 23 544 l 1
 145 630 l 1
 145 470 l 5
145 211 m 1
 145 630 l 1
 302 630 l 1
 302 211 l 1
 145 211 l 1
EndSplineSet
Substitution2: "Single Substitution lookup 25 subtable" one.dnom
Substitution2: "Single Substitution lookup 24 subtable" one.dnom
EndChar

StartChar: two.numr
Encoding: 1114130 -1 171
Width: 379
Flags: HW
LayerCount: 2
Fore
SplineSet
31 352 m 1
 80 359 l 1
 347 359 l 1
 347 211 l 1
 31 211 l 1
 31 352 l 1
161 444 m 0
 177 450 201 453 201 466 c 0
 201 475 185 484 143 484 c 0
 89 484 57 468 57 468 c 1
 38 602 l 1
 38 602 96 638 173 638 c 0
 278 638 349 600 349 523 c 0
 349 453 317.369140625 422.814453125 246 397 c 0
 199 380 178 364 170 337 c 1
 166 233 l 1
 31 352 l 1
 46 406 98.75 420.65625 161 444 c 0
EndSplineSet
Substitution2: "Single Substitution lookup 25 subtable" two.dnom
Substitution2: "Single Substitution lookup 24 subtable" two.dnom
EndChar

StartChar: three.numr
Encoding: 1114131 -1 172
Width: 377
Flags: HW
LayerCount: 2
Fore
SplineSet
155 445 m 1
 319 441 351 365 351 318 c 0
 351 237 273 196 167 196 c 0
 90 196 25 240 25 240 c 1
 60 364 l 1
 60 364 98 351 128 351 c 0
 161 351 198 352 198 366 c 0
 198 383 175 377 155 377 c 1
 155 445 l 1
155 415 m 1
 155 468 l 1
 172 466 191 465 191 476 c 0
 191 485 176 489 143 489 c 0
 114 489 71 481 71 481 c 5
 45 607 l 1
 45 607 90 644 167 644 c 0
 273 644 344 603 344 522 c 0
 344 441 248 403 155 415 c 1
EndSplineSet
Substitution2: "Single Substitution lookup 25 subtable" three.dnom
Substitution2: "Single Substitution lookup 24 subtable" three.dnom
EndChar

StartChar: four.numr
Encoding: 1114132 -1 173
Width: 415
Flags: HW
LayerCount: 2
Fore
SplineSet
386 277 m 1
 31 277 l 1
 31 427 l 1
 386 427 l 1
 386 277 l 1
192 482 m 1
 151 427 l 1
 31 427 l 1
 192 630 l 1
 192 482 l 1
192 211 m 1
 192 630 l 1
 349 630 l 1
 349 211 l 1
 192 211 l 1
EndSplineSet
Substitution2: "Single Substitution lookup 25 subtable" four.dnom
Substitution2: "Single Substitution lookup 24 subtable" four.dnom
EndChar

StartChar: five.numr
Encoding: 1114133 -1 174
Width: 380
Flags: HW
LayerCount: 2
Fore
SplineSet
59 630 m 1
 202 630 l 1
 171 425 l 1
 89 405 l 1
 34 439 l 1
 59 630 l 1
59 630 m 1
 330 630 l 1
 330 482 l 1
 113 482 l 1
 59 630 l 1
70 389 m 1
 34 439 l 0
 101 416 l 5
 151 465 353 494 353 346 c 0
 353 240 279 203 174 203 c 0
 98 203 26 239 26 239 c 1
 54 383 l 1
 54 383 90 357 144 357 c 0
 176 357 197 360 197 378 c 0
 197 393 179 414 70 389 c 1
EndSplineSet
Substitution2: "Single Substitution lookup 25 subtable" five.dnom
Substitution2: "Single Substitution lookup 24 subtable" five.dnom
EndChar

StartChar: six.numr
Encoding: 1114134 -1 175
Width: 425
Flags: W
HStem: 203 118.68<187.17 251.982> 368.32 112.21<185.753 289.282> 511.27 132.73<191.7 325.231>
LayerCount: 2
Fore
SplineSet
177.530273438 448.73046875 m 1
 184.419921875 464.629882812 199.259765625 480.530273438 251.58984375 480.530273438 c 0
 326.1796875 480.530273438 392 432 392 349 c 0
 392 274 331 203 216 203 c 0
 94 203 28 284 28 420 c 0
 28 556 93 644 230 644 c 0
 355 644 401 592 401 592 c 1
 342.469726562 477.490234375 l 1
 342.469726562 477.490234375 304.450195312 511.26953125 254.76953125 511.26953125 c 0
 195.549804688 511.26953125 178.059570312 486.360351562 177.530273438 448.73046875 c 1
220.059570312 321.6796875 m 0
 240.73046875 321.6796875 252.389648438 331.219726562 252.389648438 346.58984375 c 0
 252.389648438 356.129882812 245.5 368.3203125 219 368.3203125 c 0
 196.740234375 368.3203125 185.610351562 359.309570312 185.610351562 347.120117188 c 0
 185.610351562 329.099609375 202.040039062 321.6796875 220.059570312 321.6796875 c 0
EndSplineSet
Substitution2: "Single Substitution lookup 25 subtable" six.dnom
Substitution2: "Single Substitution lookup 24 subtable" six.dnom
Substitution2: "'salt' Stylistic Alternatives in Latin lookup 3-1" six.salt.numr
EndChar

StartChar: seven.numr
Encoding: 1114135 -1 176
Width: 368
Flags: HW
LayerCount: 2
Fore
SplineSet
343 481 m 1
 25 481 l 1
 25 630 l 1
 343 630 l 1
 343 481 l 1
62 211 m 5
 76 442 198 493 198 493 c 1
 343 481 l 1
 343 481 239 445 226 211 c 5
 62 211 l 5
EndSplineSet
Substitution2: "Single Substitution lookup 25 subtable" seven.dnom
Substitution2: "Single Substitution lookup 24 subtable" seven.dnom
EndChar

StartChar: eight.numr
Encoding: 1114136 -1 177
Width: 414
Flags: HW
LayerCount: 2
Fore
SplineSet
175.96484375 497.169921875 m 0
 175.96484375 489.219726562 185.504882812 481.799804688 207.764648438 481.799804688 c 0
 230.025390625 481.799804688 239.565429688 488.690429688 239.565429688 497.169921875 c 0
 239.565429688 507.240234375 230.025390625 515.719726562 207.764648438 515.719726562 c 0
 185.504882812 515.719726562 175.96484375 507.240234375 175.96484375 497.169921875 c 0
48 528 m 0
 48 600 109 644 208 644 c 0
 307 644 368 600 368 528 c 0
 368 449 307 414 208 414 c 0
 109 414 48 450 48 528 c 0
166.424804688 357.599609375 m 0
 166.424804688 344.879882812 177.5546875 334.280273438 207.764648438 334.280273438 c 0
 237.974609375 334.280273438 248.575195312 344.349609375 248.575195312 357.599609375 c 0
 248.575195312 368.200195312 237.974609375 379.330078125 207.764648438 379.330078125 c 0
 177.5546875 379.330078125 166.424804688 368.200195312 166.424804688 357.599609375 c 0
28 332 m 0
 28 413 96 454 208 454 c 0
 320 454 388 413 388 332 c 0
 388 251 320 203 208 203 c 0
 96 203 28 252 28 332 c 0
EndSplineSet
Substitution2: "Single Substitution lookup 25 subtable" eight.dnom
Substitution2: "Single Substitution lookup 24 subtable" eight.dnom
EndChar

StartChar: nine.numr
Encoding: 1114137 -1 178
Width: 415
Flags: W
HStem: 203 132.73<79.3312 225.3> 366.47 112.21<127.718 231.247> 525.32 118.68<165.018 229.83>
LayerCount: 2
Fore
SplineSet
239.469726562 398.26953125 m 1
 232.580078125 382.370117188 217.740234375 366.469726562 165.41015625 366.469726562 c 0
 90.8203125 366.469726562 25 415 25 498 c 0
 25 573 86 644 201 644 c 0
 323 644 389 563 389 427 c 0
 389 291 324 203 187 203 c 0
 102 203 63 222 63 222 c 1
 81.5302734375 346.509765625 l 1
 81.5302734375 346.509765625 112.549804688 335.73046875 162.23046875 335.73046875 c 0
 221.450195312 335.73046875 238.940429688 360.639648438 239.469726562 398.26953125 c 1
196.940429688 525.3203125 m 0
 176.26953125 525.3203125 164.610351562 515.780273438 164.610351562 500.41015625 c 0
 164.610351562 490.870117188 171.5 478.6796875 198 478.6796875 c 0
 220.259765625 478.6796875 231.389648438 487.690429688 231.389648438 499.879882812 c 0
 231.389648438 517.900390625 214.959960938 525.3203125 196.940429688 525.3203125 c 0
EndSplineSet
Substitution2: "Single Substitution lookup 25 subtable" nine.dnom
Substitution2: "Single Substitution lookup 24 subtable" nine.dnom
Substitution2: "'salt' Stylistic Alternatives in Latin lookup 3-1" nine.salt.numr
EndChar

StartChar: zero.dnom
Encoding: 1114138 -1 179
Width: 429
Flags: W
HStem: -15 130.93<182.319 249.313> 302.07 130.93<182.319 249.313>
VStem: 28 142.715<125.507 292.493> 260.285 142.715<125.08 292.92>
LayerCount: 2
Fore
SplineSet
170.71484375 209 m 0
 170.71484375 150.83984375 180.78515625 115.9296875 215.764648438 115.9296875 c 0
 250.745117188 115.9296875 260.28515625 150.83984375 260.28515625 209 c 0
 260.28515625 267.16015625 250.745117188 302.0703125 215.764648438 302.0703125 c 0
 180.78515625 302.0703125 170.71484375 267.16015625 170.71484375 209 c 0
28 209 m 0
 28 345 94 433 216 433 c 0
 338 433 403 345 403 209 c 0
 403 73 338 -15 216 -15 c 0
 94 -15 28 73 28 209 c 0
EndSplineSet
EndChar

StartChar: one.dnom
Encoding: 1114139 -1 180
Width: 336
Flags: HW
LayerCount: 2
Fore
SplineSet
147 259 m 5
 91.1552734375 211.884765625 l 1
 25 333 l 1
 147 419 l 1
 147 259 l 5
147 0 m 1
 147 419 l 1
 304 419 l 1
 304 0 l 1
 147 0 l 1
EndSplineSet
EndChar

StartChar: two.dnom
Encoding: 1114140 -1 181
Width: 379
Flags: HW
LayerCount: 2
Fore
SplineSet
28 141 m 1
 77 148 l 1
 344 148 l 1
 344 0 l 1
 28 0 l 1
 28 141 l 1
158 233 m 0
 174 239 198 242 198 255 c 0
 198 264 182 273 140 273 c 0
 86 273 54 257 54 257 c 1
 35 391 l 1
 35 391 93 427 170 427 c 0
 275 427 346 389 346 312 c 0
 346 242 314.369140625 211.814453125 243 186 c 0
 196 169 175 153 167 126 c 1
 163 22 l 1
 28 141 l 1
 43 195 95.75 209.65625 158 233 c 0
EndSplineSet
EndChar

StartChar: three.dnom
Encoding: 1114141 -1 182
Width: 377
Flags: HW
LayerCount: 2
Fore
SplineSet
154 234 m 1
 318 230 350 154 350 107 c 0
 350 26 272 -15 166 -15 c 0
 89 -15 24 29 24 29 c 1
 59 153 l 1
 59 153 97 140 127 140 c 0
 160 140 197 141 197 155 c 0
 197 172 174 166 154 166 c 1
 154 234 l 1
154 204 m 1
 154 257 l 1
 171 255 190 254 190 265 c 0
 190 274 175 278 142 278 c 0
 113 278 70 270 70 270 c 5
 44 396 l 1
 44 396 89 433 166 433 c 0
 272 433 343 392 343 311 c 0
 343 230 247 192 154 204 c 1
EndSplineSet
EndChar

StartChar: four.dnom
Encoding: 1114142 -1 183
Width: 415
Flags: HW
LayerCount: 2
Fore
SplineSet
384 66 m 1
 29 66 l 1
 29 216 l 1
 384 216 l 1
 384 66 l 1
190 271 m 1
 149 216 l 1
 29 216 l 1
 190 419 l 1
 190 271 l 1
190 0 m 1
 190 419 l 1
 347 419 l 1
 347 0 l 1
 190 0 l 1
EndSplineSet
EndChar

StartChar: five.dnom
Encoding: 1114143 -1 184
Width: 380
Flags: HW
LayerCount: 2
Fore
SplineSet
58 419 m 1
 201 419 l 1
 170 214 l 1
 88 194 l 1
 33 228 l 1
 58 419 l 1
58 419 m 1
 329 419 l 1
 329 271 l 1
 112 271 l 1
 58 419 l 1
69 178 m 1
 33 228 l 0
 100 205 l 5
 150 254 352 283 352 135 c 0
 352 29 278 -8 173 -8 c 0
 97 -8 25 28 25 28 c 1
 53 172 l 1
 53 172 89 146 143 146 c 0
 175 146 196 149 196 167 c 0
 196 182 178 203 69 178 c 1
EndSplineSet
EndChar

StartChar: six.dnom
Encoding: 1114144 -1 185
Width: 425
Flags: HW
LayerCount: 2
Fore
SplineSet
177.530273438 237.73046875 m 1
 184.419921875 253.629882812 199.259765625 269.530273438 251.58984375 269.530273438 c 0
 326.1796875 269.530273438 392 221 392 138 c 0
 392 63 331 -8 216 -8 c 0
 94 -8 28 73 28 209 c 0
 28 345 93 433 230 433 c 0
 355 433 401 381 401 381 c 1
 342.469726562 266.490234375 l 1
 342.469726562 266.490234375 304.450195312 300.26953125 254.76953125 300.26953125 c 0
 195.549804688 300.26953125 178.059570312 275.360351562 177.530273438 237.73046875 c 1
220.059570312 110.6796875 m 0
 240.73046875 110.6796875 252.389648438 120.219726562 252.389648438 135.58984375 c 0
 252.389648438 145.129882812 245.5 157.3203125 219 157.3203125 c 0
 196.740234375 157.3203125 185.610351562 148.309570312 185.610351562 136.120117188 c 0
 185.610351562 118.099609375 202.040039062 110.6796875 220.059570312 110.6796875 c 0
EndSplineSet
Substitution2: "'salt' Stylistic Alternatives in Latin lookup 3-1" six.salt.dnom
EndChar

StartChar: seven.dnom
Encoding: 1114145 -1 186
Width: 368
Flags: HW
LayerCount: 2
Fore
SplineSet
349 270 m 1
 31 270 l 1
 31 419 l 1
 349 419 l 1
 349 270 l 1
68 0 m 5
 82 231 204 282 204 282 c 1
 349 270 l 1
 349 270 245 234 232 0 c 5
 68 0 l 5
EndSplineSet
EndChar

StartChar: eight.dnom
Encoding: 1114146 -1 187
Width: 414
Flags: HW
LayerCount: 2
Fore
SplineSet
173.96484375 286.169921875 m 0
 173.96484375 278.219726562 183.504882812 270.799804688 205.764648438 270.799804688 c 0
 228.025390625 270.799804688 237.565429688 277.690429688 237.565429688 286.169921875 c 0
 237.565429688 296.240234375 228.025390625 304.719726562 205.764648438 304.719726562 c 0
 183.504882812 304.719726562 173.96484375 296.240234375 173.96484375 286.169921875 c 0
46 317 m 0
 46 389 107 433 206 433 c 0
 305 433 366 389 366 317 c 0
 366 238 305 203 206 203 c 0
 107 203 46 239 46 317 c 0
164.424804688 146.599609375 m 0
 164.424804688 133.879882812 175.5546875 123.280273438 205.764648438 123.280273438 c 0
 235.974609375 123.280273438 246.575195312 133.349609375 246.575195312 146.599609375 c 0
 246.575195312 157.200195312 235.974609375 168.330078125 205.764648438 168.330078125 c 0
 175.5546875 168.330078125 164.424804688 157.200195312 164.424804688 146.599609375 c 0
26 121 m 0
 26 202 94 243 206 243 c 0
 318 243 386 202 386 121 c 0
 386 40 318 -8 206 -8 c 0
 94 -8 26 41 26 121 c 0
EndSplineSet
EndChar

StartChar: nine.dnom
Encoding: 1114147 -1 188
Width: 415
Flags: W
HStem: -8 132.73<83.3312 229.3> 155.47 112.21<131.718 235.247> 314.32 118.68<169.018 233.83>
LayerCount: 2
Fore
SplineSet
243.469726562 187.26953125 m 1
 236.580078125 171.370117188 221.740234375 155.469726562 169.41015625 155.469726562 c 0
 94.8203125 155.469726562 29 204 29 287 c 0
 29 362 90 433 205 433 c 0
 327 433 393 352 393 216 c 0
 393 80 328 -8 191 -8 c 0
 106 -8 67 11 67 11 c 1
 85.5302734375 135.509765625 l 1
 85.5302734375 135.509765625 116.549804688 124.73046875 166.23046875 124.73046875 c 0
 225.450195312 124.73046875 242.940429688 149.639648438 243.469726562 187.26953125 c 1
200.940429688 314.3203125 m 0
 180.26953125 314.3203125 168.610351562 304.780273438 168.610351562 289.41015625 c 0
 168.610351562 279.870117188 175.5 267.6796875 202 267.6796875 c 0
 224.259765625 267.6796875 235.389648438 276.690429688 235.389648438 288.879882812 c 0
 235.389648438 306.900390625 218.959960938 314.3203125 200.940429688 314.3203125 c 0
EndSplineSet
Substitution2: "'salt' Stylistic Alternatives in Latin lookup 3-1" nine.salt.dnom
EndChar

StartChar: zero.osf
Encoding: 1114148 -1 189
Width: 488
Flags: HW
LayerCount: 2
Fore
SplineSet
244.111328125 -10.0478515625 m 0
 130.831054688 -10.0478515625 29 63.1201171875 29 231.200195312 c 0
 29 399.279296875 130.831054688 472.447265625 244.111328125 472.447265625 c 0
 357.391601562 472.447265625 459.22265625 399.279296875 459.22265625 231.200195312 c 0
 459.22265625 63.1201171875 357.391601562 -10.0478515625 244.111328125 -10.0478515625 c 0
244.111328125 335.58203125 m 0
 204.852539062 335.58203125 173.206054688 314.04296875 173.206054688 231.200195312 c 0
 173.206054688 148.357421875 204.852539062 126.817382812 244.111328125 126.817382812 c 0
 283.370117188 126.817382812 315.016601562 148.357421875 315.016601562 231.200195312 c 0
 315.016601562 314.04296875 283.370117188 335.58203125 244.111328125 335.58203125 c 0
EndSplineSet
Substitution2: "'tnum' Tabular Numbers in Latin lookup 5-1" zero.tosf
EndChar

StartChar: one.osf
Encoding: 1114149 -1 190
Width: 372
Flags: HW
LayerCount: 2
Fore
SplineSet
195 310.397460938 m 1
 97 230.397460938 l 1
 23 342.397460938 l 1
 195 464.397460938 l 1
 195 310.397460938 l 1
195 0 m 1
 195 464.397460938 l 1
 337 464.397460938 l 1
 337 0 l 1
 195 0 l 1
EndSplineSet
Substitution2: "'tnum' Tabular Numbers in Latin lookup 5-1" one.tosf
EndChar

StartChar: two.osf
Encoding: 1114150 -1 191
Width: 448
Flags: HW
LayerCount: 2
Fore
SplineSet
31 121 m 1
 102 131 l 1
 418 131 l 1
 418 0 l 1
 31 0 l 1
 31 121 l 1
229.163085938 283.297851562 m 0
 261.96875 297.350585938 271.8125 302.915039062 271.8125 316.485351562 c 0
 271.8125 330.055664062 253.095703125 341.013671875 214.463867188 341.013671875 c 0
 144.715820312 341.013671875 80.0908203125 290.385742188 80.0908203125 290.385742188 c 1
 31.533203125 408.456054688 l 1
 31.533203125 408.456054688 130.623046875 472.447265625 238.111328125 472.447265625 c 0
 344.231445312 472.447265625 415.833984375 421.17578125 415.833984375 338.85546875 c 0
 415.833984375 242.536132812 344.58984375 206.755859375 273.111328125 181.1640625 c 0
 200.719726562 155.245117188 176 143 165 101 c 1
 158 30 l 1
 31 121 l 1
 76 250 183.541992188 263.754882812 229.163085938 283.297851562 c 0
EndSplineSet
Substitution2: "'tnum' Tabular Numbers in Latin lookup 5-1" two.tosf
EndChar

StartChar: three.osf
Encoding: 1114151 -1 192
Width: 455
Flags: HW
LayerCount: 2
Fore
SplineSet
184.09375 203.297851562 m 1
 321.930664062 203.297851562 428.30078125 178.477539062 428.30078125 42.158203125 c 0
 428.30078125 -70.162109375 336.698242188 -131.43359375 230.578125 -131.43359375 c 0
 123.08984375 -131.43359375 24 -67.4423828125 24 -67.4423828125 c 1
 72.5576171875 50.6279296875 l 1
 72.5576171875 50.6279296875 137.182617188 0 206.930664062 0 c 0
 259.5625 0 284.279296875 20.9580078125 284.279296875 64.5283203125 c 0
 284.279296875 118.098632812 224.930664062 138.1640625 184.041992188 131.1640625 c 0
 184.09375 203.297851562 l 1
184.041992188 161.1640625 m 1
 184.09375 263.297851562 l 0
 241.930664062 256.297851562 266.743164062 272.915039062 266.743164062 300.485351562 c 0
 266.743164062 324.055664062 248.026367188 341.013671875 209.39453125 341.013671875 c 0
 139.646484375 341.013671875 75.021484375 290.385742188 75.021484375 290.385742188 c 1
 26.4638671875 408.456054688 l 1
 26.4638671875 408.456054688 125.553710938 472.447265625 233.041992188 472.447265625 c 0
 339.162109375 472.447265625 410.764648438 401.17578125 410.764648438 318.85546875 c 0
 410.764648438 192.536132812 286.930664062 161.1640625 184.041992188 161.1640625 c 1
EndSplineSet
Substitution2: "'tnum' Tabular Numbers in Latin lookup 5-1" three.tosf
EndChar

StartChar: four.osf
Encoding: 1114152 -1 193
Width: 503
Flags: HW
LayerCount: 2
Fore
SplineSet
475 0 m 1
 31 0 l 1
 31 132 l 1
 475 132 l 1
 475 0 l 1
262 282.397460938 m 5
 161 132 l 1
 31 132 l 1
 262 464.397460938 l 5
 262 282.397460938 l 5
262 -122.879882812 m 5
 262 464.397460938 l 5
 404 464.397460938 l 5
 404 -122.879882812 l 5
 262 -122.879882812 l 5
EndSplineSet
Substitution2: "'tnum' Tabular Numbers in Latin lookup 5-1" four.tosf
EndChar

StartChar: five.osf
Encoding: 1114153 -1 194
Width: 474
Flags: HW
LayerCount: 2
Fore
SplineSet
173.09375 203.297851562 m 1
 173.09375 203.297851562 195.930664062 248.432617188 280.930664062 248.432617188 c 0
 373.109375 248.432617188 447.30078125 194.426757812 447.30078125 72.158203125 c 0
 447.30078125 -70.162109375 335.698242188 -131.43359375 229.578125 -131.43359375 c 0
 122.08984375 -131.43359375 23 -67.4423828125 23 -67.4423828125 c 1
 71.5576171875 50.6279296875 l 1
 71.5576171875 50.6279296875 136.182617188 0 205.930664062 0 c 0
 258.5625 0 303.279296875 10.9580078125 303.279296875 74.5283203125 c 0
 303.279296875 118.739257812 279.083984375 140.03125 240.930664062 140.03125 c 0
 197.930664062 140.03125 183.041992188 121.1640625 183.041992188 121.1640625 c 0
 173.09375 203.297851562 l 1
81 464.397460938 m 1
 205 464.397460938 l 1
 183.041992188 121.1640625 l 1
 68.2646484375 143.21875 l 1
 81 464.397460938 l 1
81 464.397460938 m 1
 425 464.397460938 l 1
 425 333.397460938 l 1
 162 333.397460938 l 1
 81 464.397460938 l 1
EndSplineSet
Substitution2: "'tnum' Tabular Numbers in Latin lookup 5-1" five.tosf
EndChar

StartChar: six.osf
Encoding: 1114154 -1 195
Width: 481
Flags: W
HStem: -12.5596 138.641<198.4 309.465> 236 121.761<199.627 306.47> 426 21G<403.187 408.814> 453.098 137.462<209.409 389.011>
VStem: 29 135.318<277.842 403.124> 319.58 135.781<139.72 221.319>
LayerCount: 2
Fore
SplineSet
164.318359375 277.841796875 m 1
 164.318359375 277.841796875 172.724609375 357.893554688 276.0390625 357.760742188 c 0
 388.575195312 357.616210938 455.521484375 294.1875 455.361328125 174 c 0
 455.215820312 66.140625 384.208007812 -12.5595703125 249.612304688 -12.5595703125 c 0
 106.154296875 -12.5595703125 29 116.400390625 29 284 c 0
 29 471.599609375 106.154296875 590.559570312 266.33203125 590.559570312 c 0
 383.955078125 590.559570312 438.640625 552 438.640625 552 c 1
 403.186523438 426 l 1
 403.186523438 426 341.556640625 453.09765625 273.7421875 453.09765625 c 0
 183.7890625 453.09765625 165.153320312 378.251953125 164.318359375 277.841796875 c 1
253.5078125 126.081054688 m 4
 294.638671875 126.081054688 319.168945312 142.01953125 319.580078125 177 c 0
 319.946296257 208.158986873 305.397460938 236.2421875 253.186523438 236 c 0
 209.427734375 235.796875 188.188476562 218.536132812 188.188476562 179 c 0
 188.188476562 140.8046875 218.336914062 126.081054688 253.5078125 126.081054688 c 4
EndSplineSet
Substitution2: "'salt' Stylistic Alternatives in Latin lookup 3-1" six.ssf
Substitution2: "'tnum' Tabular Numbers in Latin lookup 5-1" six.tosf
EndChar

StartChar: seven.osf
Encoding: 1114155 -1 196
Width: 443
Flags: HW
LayerCount: 2
Fore
SplineSet
416 332.397460938 m 5
 28 332.397460938 l 5
 28 464.397460938 l 5
 416 464.397460938 l 5
 416 332.397460938 l 5
90 -122.879882812 m 5
 110 222.120117188 274 332.397460938 274 332.397460938 c 5
 416 332.397460938 l 5
 416 332.397460938 262 239.120117188 242 -122.879882812 c 5
 90 -122.879882812 l 5
EndSplineSet
Substitution2: "'tnum' Tabular Numbers in Latin lookup 5-1" seven.tosf
EndChar

StartChar: eight.osf
Encoding: 1114156 -1 197
Width: 485
Flags: HW
LayerCount: 2
Fore
SplineSet
187.532226562 409.65625 m 0
 187.532226562 382.856445312 204.393554688 359.368164062 243.572265625 359.368164062 c 0
 282.749023438 359.368164062 299.611328125 381.220703125 299.611328125 409.65625 c 0
 299.611328125 444.091796875 282.749023438 464.944335938 243.572265625 464.944335938 c 0
 206.393554688 464.944335938 187.532226562 444.091796875 187.532226562 409.65625 c 0
51.337890625 429.65625 m 4
 51.337890625 533.49609375 124.791992188 589.559570312 243.681640625 589.559570312 c 0
 362.571289062 589.559570312 436.025390625 533.49609375 436.025390625 429.65625 c 4
 436.025390625 335.81640625 362.571289062 284.752929688 243.681640625 284.752929688 c 0
 124.791992188 284.752929688 51.337890625 337.452148438 51.337890625 429.65625 c 4
171.780273438 189 m 0
 171.780273438 157 191.181640625 115.90234375 243.572265625 115.90234375 c 0
 295.9609375 115.90234375 314.700195312 155.182617188 314.700195312 189 c 0
 314.700195312 222.817382812 295.9609375 258.09765625 243.572265625 258.09765625 c 0
 191.181640625 258.09765625 171.780273438 222.817382812 171.780273438 189 c 0
28 172 m 0
 28 269.599609375 109.616210938 336.559570312 243.681640625 336.559570312 c 0
 377.747070312 336.559570312 459.36328125 269.599609375 459.36328125 172 c 0
 459.36328125 54.400390625 377.747070312 -12.5595703125 243.681640625 -12.5595703125 c 0
 109.616210938 -12.5595703125 28 56.2177734375 28 172 c 0
EndSplineSet
Substitution2: "'tnum' Tabular Numbers in Latin lookup 5-1" eight.tosf
EndChar

StartChar: nine.osf
Encoding: 1114157 -1 198
Width: 481
Flags: W
HStem: -131.434 137.462<91.9591 271.615> 102.127 121.761<174.891 281.735> 333.807 138.641<172.841 283.098>
VStem: 26 135.781<238.569 320.168> 317.043 135.318<56.3833 182.046>
LayerCount: 2
Fore
SplineSet
317.04296875 182.045898438 m 1
 317.04296875 182.045898438 308.63671875 101.994140625 205.322265625 102.126953125 c 0
 92.7861328125 102.271484375 25.83984375 165.700195312 26 285.887695312 c 0
 26.1455078125 393.747070312 97.1533203125 472.447265625 231.749023438 472.447265625 c 0
 375.20703125 472.447265625 452.361328125 343.487304688 452.361328125 175.887695312 c 0
 452.361328125 -11.7119140625 374.815429688 -131.43359375 214.637695312 -131.43359375 c 0
 97.0146484375 -131.43359375 42.3291015625 -92.8740234375 42.3291015625 -92.8740234375 c 1
 77.783203125 33.1259765625 l 1
 77.783203125 33.1259765625 139.413085938 6.0283203125 207.227539062 6.0283203125 c 0
 297.180664062 6.0283203125 316.208007812 81.6357421875 317.04296875 182.045898438 c 1
228.853515625 333.806640625 m 4
 187.72265625 333.806640625 162.192382812 312.868164062 161.78125 282.887695312 c 0
 161.353515625 251.729492188 175.963867188 223.645507812 228.174804688 223.887695312 c 0
 271.93359375 224.090820312 293.172851562 241.3515625 293.172851562 280.887695312 c 0
 293.172851562 319.083007812 264.024414062 333.806640625 228.853515625 333.806640625 c 4
EndSplineSet
Substitution2: "'salt' Stylistic Alternatives in Latin lookup 3-1" nine.ssf
Substitution2: "'tnum' Tabular Numbers in Latin lookup 5-1" nine.tosf
EndChar

StartChar: dotlessi
Encoding: 305 305 199
Width: 215
Flags: W
HStem: 0 21G<36.1133 176.713> 402.4 20G<36.1133 176.713>
VStem: 36.1133 140.6<0 422.4>
LayerCount: 2
Fore
SplineSet
36.11328125 0 m 5
 36.11328125 422.400390625 l 5
 176.712890625 422.400390625 l 5
 176.712890625 0 l 5
 36.11328125 0 l 5
EndSplineSet
EndChar

StartChar: uni0237
Encoding: 567 567 200
Width: 215
Flags: HW
LayerCount: 2
Fore
SplineSet
36.11328125 422.400390625 m 1
 176.712890625 422.400390625 l 1
 176.712890625 5.376953125 l 2
 176.712890625 -152.702148438 74.8818359375 -215.870117188 -38.3984375 -215.870117188 c 0
 -85.560546875 -215.870117188 -102.243164062 -209 -102.243164062 -209 c 1
 -92.482421875 -70.501953125 l 1
 -92.482421875 -70.501953125 -75.5078125 -79.0048828125 -38.3984375 -79.0048828125 c 0
 0.8603515625 -79.0048828125 36.11328125 -67.4658203125 36.11328125 5.376953125 c 2
 36.11328125 422.400390625 l 1
EndSplineSet
EndChar

StartChar: fraction
Encoding: 8260 8260 201
Width: 250
Flags: HW
HStem: 0 21G<-38 8.67606> 608 20G<241.324 288>
LayerCount: 2
Fore
SplineSet
-106 60 m 1
 254 628 l 1
 356 568 l 1
 -4 0 l 1
 -106 60 l 1
EndSplineSet
EndChar

StartChar: zero.tf
Encoding: 1114158 -1 202
Width: 600
Flags: HW
LayerCount: 2
Fore
SplineSet
178.848632812 314 m 0
 178.848632812 200.182617188 207.046875 125.90234375 305.888671875 125.90234375 c 0
 404.73046875 125.90234375 432.928710938 200.182617188 432.928710938 314 c 4
 432.928710938 427.817382812 404.73046875 502.09765625 305.888671875 502.09765625 c 0
 207.046875 502.09765625 178.848632812 427.817382812 178.848632812 314 c 0
42 314 m 0
 42 511.599609375 134.2890625 640.559570312 305.888671875 640.559570312 c 0
 477.48828125 640.559570312 569.77734375 511.599609375 569.77734375 314 c 4
 569.77734375 116.400390625 477.48828125 -12.5595703125 305.888671875 -12.5595703125 c 0
 134.2890625 -12.5595703125 42 116.400390625 42 314 c 0
EndSplineSet
EndChar

StartChar: one.tf
Encoding: 1114159 -1 203
Width: 600
Flags: HW
LayerCount: 2
Fore
SplineSet
239 474 m 1
 141 394 l 1
 67 506 l 1
 239 628 l 1
 239 474 l 1
239 0 m 1
 239 628 l 1
 381 628 l 1
 381 0 l 1
 239 0 l 1
54.111328125 131 m 5
 551.111328125 131 l 5
 551.111328125 0 l 5
 54.111328125 0 l 5
 54.111328125 131 l 5
EndSplineSet
EndChar

StartChar: two.tf
Encoding: 1114160 -1 204
Width: 600
Flags: HW
LayerCount: 2
Fore
SplineSet
74.111328125 121 m 1
 145.111328125 131 l 1
 531.111328125 131 l 1
 531.111328125 0 l 1
 74.111328125 0 l 1
 74.111328125 121 l 1
310 363.90234375 m 0
 376.94921875 392.581054688 397.040039062 416.182617188 397.040039062 450 c 0
 397.040039062 483.817382812 358.841796875 502.09765625 280 502.09765625 c 0
 198.881835938 502.09765625 128.21875 460 128.21875 460 c 1
 84.888671875 592 l 1
 84.888671875 592 169.302734375 640.559570312 280 640.559570312 c 0
 431.599609375 640.559570312 533.888671875 581.599609375 533.888671875 464 c 0
 533.888671875 326.400390625 432.111328125 261 330 224.440429688 c 0
 226.583007812 187.413085938 219.111328125 143 208.111328125 101 c 1
 201.111328125 30 l 1
 74.111328125 121 l 1
 119.111328125 290 216.89453125 324.018554688 310 363.90234375 c 0
EndSplineSet
EndChar

StartChar: three.tf
Encoding: 1114161 -1 205
Width: 600
Flags: HW
LayerCount: 2
Fore
SplineSet
263.888671875 357 m 5
 492.888671875 351 538.111328125 231.743164062 538.111328125 164.143554688 c 4
 538.111328125 46.5439453125 425.822265625 -12.416015625 274.22265625 -12.416015625 c 4
 163.525390625 -12.416015625 69.888671875 45 69.888671875 45 c 5
 122.44140625 168.143554688 l 5
 122.44140625 168.143554688 193.104492188 126.045898438 274.22265625 126.045898438 c 4
 353.064453125 126.045898438 401.262695312 154.326171875 401.262695312 188.143554688 c 4
 401.262695312 241.9609375 330.888671875 267 263.888671875 267 c 5
 263.888671875 357 l 5
263.888671875 317 m 1
 263.888671875 387 l 1
 327.888671875 387 391.817382812 401.182617188 391.817382812 445 c 0
 391.817382812 478.817382812 353.619140625 502.09765625 274.77734375 502.09765625 c 0
 193.659179688 502.09765625 152.99609375 470 152.99609375 470 c 1
 99.666015625 592 l 1
 99.666015625 592 164.080078125 640.559570312 274.77734375 640.559570312 c 0
 426.376953125 640.559570312 528.666015625 581.599609375 528.666015625 464 c 0
 528.666015625 346.400390625 394.888671875 301 263.888671875 317 c 1
EndSplineSet
EndChar

StartChar: four.tf
Encoding: 1114162 -1 206
Width: 600
Flags: HW
LayerCount: 2
Fore
SplineSet
561 145 m 5
 47 145 l 5
 47 277 l 5
 561 277 l 5
 561 145 l 5
318 446 m 1
 197 277 l 5
 47 277 l 5
 318 628 l 1
 318 446 l 1
318 0 m 1
 318 628 l 1
 460 628 l 1
 460 0 l 1
 318 0 l 1
EndSplineSet
EndChar

StartChar: five.tf
Encoding: 1114163 -1 207
Width: 600
Flags: HW
LayerCount: 2
Fore
SplineSet
117.166992188 628.0546875 m 1
 241.166992188 628.0546875 l 1
 194.944335938 321 l 1
 80.1669921875 343.0546875 l 1
 117.166992188 628.0546875 l 1
117.166992188 628.0546875 m 1
 511.166992188 628.0546875 l 1
 511.166992188 497.0546875 l 1
 198.166992188 497.0546875 l 1
 117.166992188 628.0546875 l 1
132.944335938 261 m 1
 80.1669921875 343.0546875 l 0
 179.944335938 356 l 1
 250.944335938 441 541.055664062 442.590820312 541.055664062 212 c 0
 541.055664062 74.400390625 433.655273438 -12.5048828125 282.055664062 -12.5048828125 c 0
 171.358398438 -12.5048828125 66.9443359375 36.0546875 66.9443359375 36.0546875 c 1
 110.274414062 168.0546875 l 1
 110.274414062 168.0546875 200.9375 125.95703125 282.055664062 125.95703125 c 0
 360.897460938 125.95703125 399.095703125 164.237304688 399.095703125 218.0546875 c 0
 399.095703125 271.872070312 352.944335938 346 132.944335938 261 c 1
EndSplineSet
EndChar

StartChar: six.tf
Encoding: 1114164 -1 208
Width: 600
Flags: W
HStem: -12.5596 138.641<251.156 385.381> 276 121.761<244.464 390.05> 502.098 138.462<258.461 434.937>
VStem: 49 136.864<317.842 417.513> 412 147<149.946 252.473>
LayerCount: 2
Fore
SplineSet
185.864257812 317.841796875 m 1
 204.14453125 357.598632812 244.302734375 397.881835938 332 397.760742188 c 0
 479.11328125 397.557617188 559.193359375 314.1875 559 194 c 0
 558.826171875 86.140625 473.889648438 -12.5595703125 312.888671875 -12.5595703125 c 0
 141.2890625 -12.5595703125 49 116.400390625 49 314 c 0
 49 511.599609375 141.2890625 640.559570312 332.888671875 640.559570312 c 0
 473.5859375 640.559570312 544 572 544 572 c 1
 475 455 l 1
 475 455 424.006835938 502.09765625 342.888671875 502.09765625 c 0
 235.290039062 502.09765625 186.862304688 428.251953125 185.864257812 317.841796875 c 1
320.322265625 126.081054688 m 4
 379.173828125 126.081054688 411.408203125 156.01953125 412 206 c 4
 412.369140625 237.16015625 391.706054688 276.2421875 317 276 c 4
 254.390625 275.796875 224 247.536132812 224 208 c 4
 224 149.8046875 270 126.081054688 320.322265625 126.081054688 c 4
EndSplineSet
Substitution2: "'salt' Stylistic Alternatives in Latin lookup 3-1" six.stf
EndChar

StartChar: seven.tf
Encoding: 1114165 -1 209
Width: 600
Flags: HW
LayerCount: 2
Fore
SplineSet
543 496 m 5
 65 496 l 5
 65 628 l 5
 543 628 l 5
 543 496 l 5
178 0 m 5
 198 345 401 496 401 496 c 5
 543 496 l 5
 543 496 350 362 330 0 c 5
 178 0 l 5
EndSplineSet
EndChar

StartChar: eight.tf
Encoding: 1114166 -1 210
Width: 600
Flags: HW
LayerCount: 2
Fore
SplineSet
219.6640625 455.65625 m 0
 219.6640625 428.856445312 245.041992188 404.368164062 304 404.368164062 c 0
 362.958007812 404.368164062 388.3359375 427.220703125 388.3359375 455.65625 c 0
 388.3359375 489.091796875 362.958007812 515.944335938 304 515.944335938 c 0
 245.041992188 515.944335938 219.6640625 489.091796875 219.6640625 455.65625 c 0
86.5 474.65625 m 0
 86.5 578.49609375 169.560546875 640.559570312 304 640.559570312 c 0
 438.439453125 640.559570312 521.5 578.49609375 521.5 474.65625 c 0
 521.5 360.81640625 438.439453125 309.752929688 304 309.752929688 c 0
 169.560546875 309.752929688 86.5 362.452148438 86.5 474.65625 c 0
195.959960938 202 m 0
 195.959960938 160 225.158203125 125.90234375 304 125.90234375 c 0
 382.841796875 125.90234375 411.040039062 158.182617188 411.040039062 202 c 0
 411.040039062 235.817382812 382.841796875 272.09765625 304 272.09765625 c 0
 225.158203125 272.09765625 195.959960938 235.817382812 195.959960938 202 c 0
60.111328125 184 m 0
 60.111328125 301.599609375 152.400390625 360.559570312 304 360.559570312 c 0
 455.599609375 360.559570312 547.888671875 301.599609375 547.888671875 184 c 0
 547.888671875 66.400390625 455.599609375 -12.5595703125 304 -12.5595703125 c 0
 152.400390625 -12.5595703125 60.111328125 68.2177734375 60.111328125 184 c 0
EndSplineSet
EndChar

StartChar: nine.tf
Encoding: 1114167 -1 211
Width: 600
Flags: HW
LayerCount: 2
Fore
SplineSet
422.140625 317.645507812 m 1
 422.140625 317.645507812 382.908203125 230.119140625 276 230.239257812 c 0
 128.88671875 230.404296875 48.806640625 313.8125 49 434 c 0
 49.173828125 541.859375 134.110351562 640.559570312 295.111328125 640.559570312 c 0
 466.7109375 640.559570312 559 511.599609375 559 314 c 0
 559 116.400390625 466.7109375 -12.5595703125 275.111328125 -12.5595703125 c 0
 164.4140625 -12.5595703125 97.326171875 9.4755859375 97.326171875 9.4755859375 c 1
 110.041015625 146.905273438 l 1
 110.041015625 146.905273438 163.993164062 125.90234375 255.111328125 125.90234375 c 0
 393.953125 125.90234375 422.151367188 207 422.151367188 314 c 0
 422.151367188 315.22265625 422.140625 317.645507812 422.140625 317.645507812 c 1
292.111328125 502.09765625 m 4
 223.259765625 502.09765625 196.591796875 471.98046875 196 422 c 4
 195.630859375 390.83984375 215.293945312 351.768554688 290 352 c 4
 355.610351562 352.203125 384 380.463867188 384 420 c 4
 384 471.1953125 358 502.09765625 292.111328125 502.09765625 c 4
EndSplineSet
Substitution2: "'salt' Stylistic Alternatives in Latin lookup 3-1" nine.stf
EndChar

StartChar: zero.tosf
Encoding: 1114168 -1 212
Width: 600
Flags: HW
LayerCount: 2
Fore
SplineSet
176.959960938 235 m 4
 176.959960938 168.182617188 215.158203125 125.90234375 304 125.90234375 c 0
 392.841796875 125.90234375 431.040039062 168.182617188 431.040039062 235 c 4
 431.040039062 302.817382812 390.953125 333.985351562 302.111328125 333.985351562 c 0
 213.26953125 333.985351562 176.959960938 302.817382812 176.959960938 235 c 4
40.111328125 235 m 4
 40.111328125 386.599609375 130.51171875 472.447265625 302.111328125 472.447265625 c 0
 473.7109375 472.447265625 567.888671875 386.599609375 567.888671875 235 c 4
 567.888671875 84.400390625 475.599609375 -12.5595703125 304 -12.5595703125 c 0
 132.400390625 -12.5595703125 40.111328125 84.400390625 40.111328125 235 c 4
EndSplineSet
EndChar

StartChar: one.tosf
Encoding: 1114169 -1 213
Width: 600
Flags: HW
LayerCount: 2
Fore
SplineSet
74.111328125 131 m 1
 531.111328125 131 l 5
 531.111328125 0 l 5
 74.111328125 0 l 1
 74.111328125 131 l 1
249 310.397460938 m 1
 151 230.397460938 l 1
 77 342.397460938 l 1
 249 464.397460938 l 1
 249 310.397460938 l 1
249 0 m 1
 249 464.397460938 l 1
 391 464.397460938 l 1
 391 0 l 1
 249 0 l 1
EndSplineSet
EndChar

StartChar: two.tosf
Encoding: 1114170 -1 214
Width: 600
Flags: HW
LayerCount: 2
Fore
SplineSet
70.5 121 m 5
 141.5 131 l 5
 537.5 131 l 1
 537.5 0 l 1
 70.5 0 l 5
 70.5 121 l 5
308.663085938 283.297851562 m 0
 372.333241951 295.989468153 391.3125 302.915039062 391.3125 316.485351562 c 0
 391.3125 330.055664062 402.595703125 341.013671875 293.963867188 341.013671875 c 0
 164.215820312 341.013671875 119.590820312 290.385742188 119.590820312 290.385742188 c 5
 71.033203125 408.456054688 l 5
 71.033203125 408.456054688 150.123046875 472.447265625 317.611328125 472.447265625 c 0
 483.731445312 472.447265625 535.333984375 421.17578125 535.333984375 338.85546875 c 0
 535.333984375 242.536132812 481 214 392.611328125 191.1640625 c 0
 271.90234375 159.977539062 215.5 163 204.5 101 c 5
 197.5 30 l 5
 70.5 121 l 5
 117.783203125 250.575195312 199.433361084 261.524671238 308.663085938 283.297851562 c 0
EndSplineSet
EndChar

StartChar: three.tosf
Encoding: 1114171 -1 215
Width: 600
Flags: HW
LayerCount: 2
Fore
SplineSet
263.888671875 212 m 1
 492.888671875 206 538.111328125 133.743164062 538.111328125 46.1435546875 c 0
 538.111328125 -71.4560546875 425.822265625 -132.416015625 274.22265625 -132.416015625 c 0
 163.525390625 -132.416015625 69.888671875 -75 69.888671875 -75 c 1
 122.44140625 48.1435546875 l 1
 122.44140625 48.1435546875 193.104492188 6.0458984375 274.22265625 6.0458984375 c 0
 353.064453125 6.0458984375 401.262695312 16.326171875 401.262695312 70.1435546875 c 0
 401.262695312 133.9609375 330.888671875 142 263.888671875 142 c 1
 263.888671875 212 l 1
263.888671875 172 m 1
 263.888671875 262 l 1
 327.888671875 262 391.817382812 264.182617188 391.817382812 298 c 0
 391.817382812 321.817382812 353.953125 333.985351562 275.111328125 333.985351562 c 0
 193.993164062 333.985351562 152.99609375 303 152.99609375 303 c 1
 99.666015625 425 l 1
 99.666015625 425 164.4140625 472.447265625 275.111328125 472.447265625 c 0
 426.7109375 472.447265625 528.666015625 434.599609375 528.666015625 317 c 0
 528.666015625 199.400390625 394.888671875 156 263.888671875 172 c 1
EndSplineSet
EndChar

StartChar: four.tosf
Encoding: 1114172 -1 216
Width: 600
Flags: HW
LayerCount: 2
Fore
SplineSet
561 0 m 1
 47 0 l 1
 47 132 l 1
 561 132 l 1
 561 0 l 1
317 282.397460938 m 1
 197 132 l 1
 47 132 l 1
 317 464.397460938 l 1
 317 282.397460938 l 1
317 -122.879882812 m 5
 317 464.397460938 l 1
 459 464.397460938 l 1
 459 -122.879882812 l 5
 317 -122.879882812 l 5
EndSplineSet
EndChar

StartChar: five.tosf
Encoding: 1114173 -1 217
Width: 600
Flags: HW
LayerCount: 2
Fore
SplineSet
115 464.397460938 m 1
 239 464.397460938 l 1
 197.888671875 161.192382812 l 1
 83.111328125 183.247070312 l 1
 115 464.397460938 l 1
115 464.397460938 m 1
 509 464.397460938 l 1
 509 333.397460938 l 1
 196 333.397460938 l 1
 115 464.397460938 l 1
135.888671875 101.192382812 m 1
 83.111328125 183.247070312 l 0
 182.888671875 196.192382812 l 1
 253.888671875 281.192382812 544 302.783203125 544 72.1923828125 c 0
 544 -65.4072265625 436.599609375 -132.3125 285 -132.3125 c 0
 174.302734375 -132.3125 69.888671875 -83.7529296875 69.888671875 -83.7529296875 c 1
 113.21875 48.2470703125 l 1
 113.21875 48.2470703125 203.881835938 6.1494140625 285 6.1494140625 c 0
 363.841796875 6.1494140625 402.040039062 24.4296875 402.040039062 78.2470703125 c 0
 402.040039062 132.064453125 355.888671875 186.192382812 135.888671875 101.192382812 c 1
EndSplineSet
EndChar

StartChar: six.tosf
Encoding: 1114174 -1 218
Width: 600
Flags: W
HStem: -12.5596 138.641<244.609 395.66> 245 121.761<242.046 395.999> 452.098 138.462<243.022 434.937>
VStem: 49 136.864<304.788 391.43> 412 147<144.474 226.743>
LayerCount: 2
Fore
SplineSet
185.864257812 297.841796875 m 1
 204.14453125 337.598632812 244.302734375 366.881835938 332 366.760742188 c 4
 479.11328125 366.557617188 559.193359375 294.1875 559 174 c 0
 558.826171875 66.140625 473.889648438 -12.5595703125 312.888671875 -12.5595703125 c 0
 141.2890625 -12.5595703125 49 116.400390625 49 314 c 0
 49 471.599609375 141.2890625 590.559570312 332.888671875 590.559570312 c 0
 473.5859375 590.559570312 544 522 544 522 c 1
 475 405 l 1
 475 405 424.006835938 452.09765625 342.888671875 452.09765625 c 0
 235.290039062 452.09765625 186.862304688 408.251953125 185.864257812 297.841796875 c 1
320.322265625 126.081054688 m 0
 379.173828125 126.081054688 411.408203125 146.01953125 412 186 c 0
 412.46121913 217.158929366 391.706054688 245.2421875 317 245 c 4
 254.390625 244.796875 224 219.536132812 224 188 c 0
 224 146.8046875 270 126.081054688 320.322265625 126.081054688 c 0
EndSplineSet
Substitution2: "'salt' Stylistic Alternatives in Latin lookup 3-1" six.tssf
EndChar

StartChar: seven.tosf
Encoding: 1114175 -1 219
Width: 600
Flags: HW
LayerCount: 2
Fore
SplineSet
538 332.397460938 m 1
 70 332.397460938 l 1
 70 464.397460938 l 1
 538 464.397460938 l 1
 538 332.397460938 l 1
172 -122.879882812 m 1
 192 222.120117188 396 332.397460938 396 332.397460938 c 5
 538 332.397460938 l 1
 538 332.397460938 344 239.120117188 324 -122.879882812 c 1
 172 -122.879882812 l 1
EndSplineSet
EndChar

StartChar: eight.tosf
Encoding: 1114176 -1 220
Width: 600
Flags: HW
LayerCount: 2
Fore
SplineSet
219.6640625 409.65625 m 0
 219.6640625 382.856445312 255.041992188 364.368164062 304 364.368164062 c 0
 352.958007812 364.368164062 388.3359375 381.220703125 388.3359375 409.65625 c 0
 388.3359375 443.091796875 352.958007812 455.944335938 304 455.944335938 c 0
 255.041992188 455.944335938 219.6640625 443.091796875 219.6640625 409.65625 c 0
86.5 424.65625 m 0
 86.5 528.49609375 169.560546875 590.559570312 304 590.559570312 c 0
 438.439453125 590.559570312 521.5 528.49609375 521.5 424.65625 c 0
 521.5 310.81640625 438.439453125 294.752929688 304 294.752929688 c 0
 169.560546875 294.752929688 86.5 312.452148438 86.5 424.65625 c 0
195.959960938 198 m 0
 195.959960938 156 235.158203125 135.90234375 304 135.90234375 c 0
 372.841796875 135.90234375 411.040039062 154.182617188 411.040039062 198 c 0
 411.040039062 231.817382812 372.841796875 252.09765625 304 252.09765625 c 0
 235.158203125 252.09765625 195.959960938 231.817382812 195.959960938 198 c 0
60.111328125 184 m 0
 60.111328125 301.599609375 152.400390625 325.559570312 304 325.559570312 c 0
 455.599609375 325.559570312 547.888671875 301.599609375 547.888671875 184 c 0
 547.888671875 66.400390625 455.599609375 -12.5595703125 304 -12.5595703125 c 0
 152.400390625 -12.5595703125 60.111328125 68.2177734375 60.111328125 184 c 0
EndSplineSet
EndChar

StartChar: nine.tosf
Encoding: 1114177 -1 221
Width: 600
Flags: W
HStem: -132.4 138.462<165.063 357.057> 91.3984 124.483<210.38 366.256> 334.801 138.641<212.34 363.391>
VStem: 49 147<233.96 316.408> 422.136 136.864<71.1094 156.094>
LayerCount: 2
Fore
SplineSet
422.135742188 163.040039062 m 1
 403.85546875 123.283203125 355.697265625 91.27734375 268 91.3984375 c 4
 120.88671875 91.6015625 48.806640625 166.694335938 49 286.881835938 c 0
 49.173828125 394.741210938 134.110351562 473.44140625 295.111328125 473.44140625 c 0
 466.7109375 473.44140625 559 344.481445312 559 146.881835938 c 0
 559 -10.7177734375 458.7109375 -132.400390625 267.111328125 -132.400390625 c 4
 126.4140625 -132.400390625 56 -63.8408203125 56 -63.8408203125 c 5
 125 53.1591796875 l 5
 125 53.1591796875 175.993164062 6.0615234375 257.111328125 6.0615234375 c 4
 364.709960938 6.0615234375 421.137695312 52.6298828125 422.135742188 163.040039062 c 1
287.677734375 334.80078125 m 0
 228.826171875 334.80078125 196.591796875 314.862304688 196 274.881835938 c 0
 195.5390625 243.72265625 216.293945312 215.639648438 291 215.881835938 c 0
 353.609375 216.084960938 384 241.345703125 384 272.881835938 c 0
 384 314.077148438 338 334.80078125 287.677734375 334.80078125 c 0
EndSplineSet
Substitution2: "'salt' Stylistic Alternatives in Latin lookup 3-1" nine.tssf
EndChar

StartChar: e.salt
Encoding: 1114178 -1 222
Width: 466
Flags: HW
LayerCount: 2
Fore
SplineSet
454.221679688 169 m 5
 50.2216796875 169 l 1
 50.2216796875 251 l 1
 366.221679688 251 l 5
 454.221679688 169 l 5
172.206054688 211 m 0
 172.284179688 148.311523438 183.915039062 126.817382812 273.111328125 126.817382812 c 0
 348.465820312 126.817382812 395 148 395 148 c 1
 426.404296875 22.552734375 l 1
 426.404296875 22.552734375 370.0546875 -10.0478515625 253.111328125 -10.0478515625 c 0
 129.873046875 -10.0478515625 28.109375 63.0537109375 28 211 c 0
 27.890625 359.079101562 137.831054688 432.247070312 241.111328125 432.247070312 c 0
 346.390625 432.247070312 454.221679688 357.079101562 454.221679688 169 c 5
 310 169 l 5
 320 278 277.370117188 295.381835938 241.111328125 295.381835938 c 0
 206.852539062 295.381835938 172.206054688 273.842773438 172.206054688 211 c 0
EndSplineSet
EndChar

StartChar: Euro
Encoding: 8364 8364 223
Width: 493
Flags: HW
LayerCount: 2
Fore
SplineSet
348.029296875 173.400390625 m 1
 30.029296875 173.400390625 l 5
 30.029296875 285.400390625 l 1
 348.029296875 285.400390625 l 1
 348.029296875 173.400390625 l 1
348.029296875 337.400390625 m 1
 30.029296875 337.400390625 l 1
 30.029296875 449.400390625 l 1
 348.029296875 449.400390625 l 1
 348.029296875 337.400390625 l 1
62.029296875 314 m 0
 62.029296875 511.599609375 144.318359375 640.559570312 315.91796875 640.559570312 c 0
 396.615234375 640.559570312 443.703125 618.524414062 443.703125 618.524414062 c 1
 430.98828125 481.094726562 l 1
 430.98828125 481.094726562 397.037109375 502.09765625 335.91796875 502.09765625 c 0
 217.076171875 502.09765625 198.877929688 427.817382812 198.877929688 314 c 0
 198.877929688 200.182617188 217.076171875 125.90234375 335.91796875 125.90234375 c 0
 397.010742188 125.90234375 434.931640625 146.872070312 434.931640625 146.872070312 c 1
 462.970703125 9.2666015625 l 1
 462.970703125 9.2666015625 396.34375 -12.5595703125 315.91796875 -12.5595703125 c 0
 144.318359375 -12.5595703125 62.029296875 116.400390625 62.029296875 314 c 0
EndSplineSet
EndChar

StartChar: Euro.varAlt01
Encoding: 1114179 -1 224
Width: 493
Flags: HW
LayerCount: 2
Fore
SplineSet
348.029296875 173.400390625 m 1
 30.029296875 173.400390625 l 1
 30.029296875 285.400390625 l 1
 348.029296875 285.400390625 l 1
 348.029296875 173.400390625 l 1
348.029296875 337.400390625 m 1
 30.029296875 337.400390625 l 1
 30.029296875 449.400390625 l 1
 348.029296875 449.400390625 l 1
 348.029296875 337.400390625 l 1
201.480190276 253 m 1
 209.59149399 174.372772202 239.918044112 125.90234375 335.91796875 125.90234375 c 0
 397.010742188 125.90234375 434.931640625 146.872070312 434.931640625 146.872070312 c 1
 462.970703125 9.2666015625 l 1
 462.970703125 9.2666015625 396.34375 -12.5595703125 315.91796875 -12.5595703125 c 0
 162.680141112 -12.5595703125 80.6623401705 90.2785846664 64.864473769 253 c 1
 201.480190276 253 l 1
64.4015390586 370 m 1
 78.9958993275 535.611939172 161.116467346 640.559570312 315.91796875 640.559570312 c 0
 396.615234375 640.559570312 443.703125 618.524414062 443.703125 618.524414062 c 1
 430.98828125 481.094726562 l 1
 430.98828125 481.094726562 397.037109375 502.09765625 335.91796875 502.09765625 c 0
 237.899339137 502.09765625 208.345108647 451.567303825 200.99755774 370 c 1
 64.4015390586 370 l 1
EndSplineSet
EndChar

StartChar: lira
Encoding: 8356 8356 225
Width: 493
Flags: HW
LayerCount: 2
Fore
SplineSet
372 170.400390625 m 5
 34 170.400390625 l 5
 34 282.400390625 l 5
 372 282.400390625 l 5
 372 170.400390625 l 5
372 320.400390625 m 5
 34 320.400390625 l 5
 34 422.400390625 l 5
 372 422.400390625 l 5
 372 320.400390625 l 5
36 121 m 1
 107 131 l 1
 453 131 l 1
 453 0 l 1
 36 0 l 1
 36 121 l 1
279 286 m 0
 279 117 69.2783203125 76 69.2783203125 76 c 1
 36 121 l 1
 127 156 160.62109375 214 160.62109375 268 c 0
 160.62109375 363 45 375.068359375 45 474 c 0
 45 581.599609375 137.2890625 640.559570312 268.888671875 640.559570312 c 0
 369.5859375 640.559570312 444 592 444 592 c 1
 400.669921875 460 l 1
 400.669921875 460 340.006835938 502.09765625 268.888671875 502.09765625 c 0
 220.046875 502.09765625 181.848632812 493.817382812 181.848632812 460 c 0
 181.848632812 416.182617188 279 383.186523438 279 286 c 0
EndSplineSet
EndChar

StartChar: ampersand.alt
Encoding: 1114180 -1 226
Width: 614
Flags: W
HStem: -10.0479 132.255<173.977 305.717> 502.098 138.462<237.402 419.848>
VStem: 26 144.206<130.106 186.185> 83 136.849<368.796 482.196>
LayerCount: 2
Fore
SplineSet
218.111328125 -10.0478515625 m 0xe0
 123.831054688 -10.0478515625 26 38.1201171875 26 136.200195312 c 0
 26 225.224609375 95.291015625 281.375976562 241.981445312 307.875 c 0
 417.666992188 339.61328125 535.09375 386.422851562 535.09375 386.422851562 c 1
 565.248046875 257.095703125 l 1
 565.248046875 257.095703125 438.76171875 226.669921875 298.81640625 208.439453125 c 0
 211 197 170.206054688 187.940429688 170.206054688 159.200195312 c 0
 170.206054688 130.884765625 197.459960938 122.20703125 232 122.20703125 c 0
 262 122.20703125 308.473632812 132.112304688 331 192 c 1
 429.20703125 150 l 1
 415 111 371.356445312 -10.0478515625 218.111328125 -10.0478515625 c 0xe0
589.000976562 0 m 1
 589.000976562 0 571 -10.0478515625 511.111328125 -10.0478515625 c 0
 399.830078125 -10.0478515625 354.244140625 64.7177734375 276.888671875 142.440429688 c 0
 217.32421875 202.287109375 83 336.400390625 83 454 c 0
 83 571.599609375 175.2890625 640.559570312 306.888671875 640.559570312 c 0
 427.5859375 640.559570312 482 602 482 602 c 1
 438.669921875 470 l 1
 438.669921875 470 398.006835938 502.09765625 306.888671875 502.09765625 c 0
 248.046875 502.09765625 219.848632812 473.817382812 219.848632812 440 c 0xd0
 219.848632812 398.182617188 238.415039062 358.357421875 296.888671875 300.90234375 c 0
 417.452148438 182.439453125 436 96 577.850585938 120 c 1
 589.000976562 0 l 1
EndSplineSet
EndChar

StartChar: IJ
Encoding: 306 306 227
Width: 664
Flags: HW
HStem: 0 132<43 99 241 297> 30 102<99 241> 496 132<43 99 241 297> 496 102<99 241>
VStem: 43 254<0 132 496 628> 99 142<30 598>
LayerCount: 2
Fore
SplineSet
297 220 m 1x88
 43 220 l 1
 43 352 l 1
 297 352 l 1
 297 220 l 1x88
297 496 m 1x28
 43 496 l 1
 43 628 l 1
 297 628 l 1
 297 496 l 1x28
99 250 m 1x54
 99 598 l 1
 241 598 l 1
 241 250 l 1
 99 250 l 1x54
477.928710938 314 m 2
 476.927734375 598 l 1
 614.927734375 598 l 1
 614.776367188 334 l 2
 614.611239363 46.0000291669 432.684570312 -12.6298828125 296.888671875 -12.55859375 c 0
 133.123046875 -12.47265625 33 80 33 80 c 1
 63 200 l 1
 143 123 478.951171875 44.365234375 477.928710938 314 c 2
614.927734375 496 m 1
 360.927734375 496 l 1
 360.927734375 628 l 1
 614.927734375 628 l 1
 614.927734375 496 l 1
EndSplineSet
EndChar

StartChar: ij
Encoding: 307 307 228
Width: 445
Flags: HW
LayerCount: 2
Fore
SplineSet
29 571.5625 m 0
 29 609.181640625 47.57421875 646.787109375 107.612304688 646.787109375 c 0
 167.651367188 646.787109375 186.2265625 609.181640625 186.2265625 571.5625 c 0
 186.2265625 533.942382812 167.651367188 496.337890625 107.612304688 496.337890625 c 0
 47.57421875 496.337890625 29 533.942382812 29 571.5625 c 0
38.11328125 0 m 1
 38.11328125 422.400390625 l 1
 178.712890625 422.400390625 l 1
 178.712890625 0 l 1
 38.11328125 0 l 1
259 571.5625 m 0
 259 609.181640625 277.57421875 646.787109375 337.612304688 646.787109375 c 0
 397.651367188 646.787109375 416.2265625 609.181640625 416.2265625 571.5625 c 0
 416.2265625 533.942382812 397.651367188 496.337890625 337.612304688 496.337890625 c 0
 277.57421875 496.337890625 259 533.942382812 259 571.5625 c 0
268.11328125 422.400390625 m 1
 408.712890625 422.400390625 l 1
 408.712890625 45.376953125 l 2
 408.712890625 -152.702148438 296.881835938 -215.870117188 143.6015625 -215.870117188 c 0
 66.439453125 -215.870117188 29.7568359375 -209 29.7568359375 -209 c 1
 39.517578125 -70.501953125 l 1
 39.517578125 -70.501953125 76.4921875 -79.0048828125 143.6015625 -79.0048828125 c 0
 222.860351562 -79.0048828125 268.11328125 -67.4658203125 268.11328125 45.376953125 c 2
 268.11328125 422.400390625 l 1
EndSplineSet
EndChar

StartChar: kgreenlandic
Encoding: 312 312 229
Width: 530
Flags: HW
LayerCount: 2
Fore
SplineSet
497 422.400390625 m 5
 123 53 l 4
 63 124 l 5
 315 422.400390625 l 5
 497 422.400390625 l 5
507 0 m 5
 325 0 l 5
 180 226 l 5
 269 279 l 5
 507 0 l 5
33 422.400390625 m 1
 173.599609375 422.400390625 l 1
 173.599609375 0 l 1
 33 0 l 1
 33 422.400390625 l 1
EndSplineSet
EndChar

StartChar: quoteright
Encoding: 8217 8217 230
Width: 271
Flags: HW
LayerCount: 2
Fore
SplineSet
46.88671875 545.334960938 m 4
 46.88671875 602.954101562 85.4609375 640.559570312 135.498046875 640.559570312 c 4
 185.5390625 640.559570312 224.11328125 602.954101562 224.11328125 545.334960938 c 4
 224.11328125 464.5625 130.720703125 367.75 130.720703125 367.75 c 5
 65.83984375 406.38671875 l 5
 118.509765625 454.40234375 l 5
 71.484375 458.879882812 46.88671875 499.322265625 46.88671875 545.334960938 c 4
EndSplineSet
EndChar

StartChar: quoteleft
Encoding: 8216 8216 231
Width: 271
Flags: HW
LayerCount: 2
Fore
SplineSet
224.11328125 462.974609375 m 4
 224.11328125 405.35546875 185.5390625 367.75 135.501953125 367.75 c 4
 85.4609375 367.75 46.88671875 405.35546875 46.88671875 462.974609375 c 4
 46.88671875 543.747070312 140.279296875 640.559570312 140.279296875 640.559570312 c 5
 205.16015625 601.922851562 l 5
 152.490234375 553.907226562 l 5
 199.515625 549.4296875 224.11328125 508.987304688 224.11328125 462.974609375 c 4
EndSplineSet
EndChar

StartChar: quotedblright
Encoding: 8221 8221 232
Width: 493
Flags: HW
LayerCount: 2
Fore
SplineSet
268.88671875 545.334960938 m 4
 268.88671875 602.954101562 307.4609375 640.559570312 357.498046875 640.559570312 c 4
 407.5390625 640.559570312 446.11328125 602.954101562 446.11328125 545.334960938 c 4
 446.11328125 464.5625 352.720703125 367.75 352.720703125 367.75 c 5
 287.83984375 406.38671875 l 5
 340.509765625 454.40234375 l 5
 293.484375 458.879882812 268.88671875 499.322265625 268.88671875 545.334960938 c 4
46.88671875 545.334960938 m 0
 46.88671875 602.954101562 85.4609375 640.559570312 135.498046875 640.559570312 c 0
 185.5390625 640.559570312 224.11328125 602.954101562 224.11328125 545.334960938 c 0
 224.11328125 464.5625 130.720703125 367.75 130.720703125 367.75 c 1
 65.83984375 406.38671875 l 1
 118.509765625 454.40234375 l 1
 71.484375 458.879882812 46.88671875 499.322265625 46.88671875 545.334960938 c 0
EndSplineSet
EndChar

StartChar: quotedblleft
Encoding: 8220 8220 233
Width: 493
Flags: HW
LayerCount: 2
Fore
SplineSet
224.11328125 462.974609375 m 4
 224.11328125 405.35546875 185.5390625 367.75 135.501953125 367.75 c 4
 85.4609375 367.75 46.88671875 405.35546875 46.88671875 462.974609375 c 4
 46.88671875 543.747070312 140.279296875 640.559570312 140.279296875 640.559570312 c 5
 205.16015625 601.922851562 l 5
 152.490234375 553.907226562 l 5
 199.515625 549.4296875 224.11328125 508.987304688 224.11328125 462.974609375 c 4
446.11328125 462.974609375 m 0
 446.11328125 405.35546875 407.5390625 367.75 357.501953125 367.75 c 0
 307.4609375 367.75 268.88671875 405.35546875 268.88671875 462.974609375 c 0
 268.88671875 543.747070312 362.279296875 640.559570312 362.279296875 640.559570312 c 1
 427.16015625 601.922851562 l 1
 374.490234375 553.907226562 l 1
 421.515625 549.4296875 446.11328125 508.987304688 446.11328125 462.974609375 c 0
EndSplineSet
EndChar

StartChar: quotereversed
Encoding: 8219 8219 234
Width: 271
Flags: HW
LayerCount: 2
Fore
SplineSet
46.88671875 462.974609375 m 4
 46.88671875 508.987304688 71.484375 549.4296875 118.509765625 553.907226562 c 5
 65.83984375 601.922851562 l 5
 130.720703125 640.559570312 l 5
 130.720703125 640.559570312 224.11328125 543.747070312 224.11328125 462.974609375 c 4
 224.11328125 405.35546875 185.5390625 367.75 135.498046875 367.75 c 4
 85.4609375 367.75 46.88671875 405.35546875 46.88671875 462.974609375 c 4
EndSplineSet
EndChar

StartChar: uni201F
Encoding: 8223 8223 235
Width: 493
Flags: HW
LayerCount: 2
Fore
SplineSet
268.88671875 462.974609375 m 4
 268.88671875 508.987304688 293.484375 549.4296875 340.509765625 553.907226562 c 5
 287.83984375 601.922851562 l 5
 352.720703125 640.559570312 l 5
 352.720703125 640.559570312 446.11328125 543.747070312 446.11328125 462.974609375 c 4
 446.11328125 405.35546875 407.5390625 367.75 357.498046875 367.75 c 4
 307.4609375 367.75 268.88671875 405.35546875 268.88671875 462.974609375 c 4
46.88671875 462.974609375 m 0
 46.88671875 508.987304688 71.484375 549.4296875 118.509765625 553.907226562 c 1
 65.83984375 601.922851562 l 1
 130.720703125 640.559570312 l 1
 130.720703125 640.559570312 224.11328125 543.747070312 224.11328125 462.974609375 c 0
 224.11328125 405.35546875 185.5390625 367.75 135.498046875 367.75 c 0
 85.4609375 367.75 46.88671875 405.35546875 46.88671875 462.974609375 c 0
EndSplineSet
EndChar

StartChar: uni203D
Encoding: 8253 8253 240
Width: 541
Flags: HW
LayerCount: 2
Fore
SplineSet
202.22265625 230 m 1
 182.22265625 698 l 5
 324.22265625 698 l 5
 304.22265625 230 l 1
 202.22265625 230 l 1
207.22265625 368 m 1
 207.22265625 368 364.151367188 340.182617188 364.151367188 434 c 0
 364.151367188 487.817382812 325.953125 502.09765625 247.111328125 502.09765625 c 0
 165.993164062 502.09765625 75.330078125 460 75.330078125 460 c 1
 32 592 l 1
 32 592 136.4140625 640.559570312 247.111328125 640.559570312 c 0
 398.7109375 640.559570312 506.111328125 563.654296875 506.111328125 446.0546875 c 0
 506.111328125 328.455078125 395.22265625 262 257.22265625 283 c 0
 207.22265625 368 l 1
165.22265625 91.5625 m 0
 165.22265625 149.181640625 203.796875 186.787109375 253.834960938 186.787109375 c 0
 303.874023438 186.787109375 342.44921875 149.181640625 342.44921875 91.5625 c 0
 342.44921875 33.9423828125 303.874023438 -3.662109375 253.834960938 -3.662109375 c 0
 203.796875 -3.662109375 165.22265625 33.9423828125 165.22265625 91.5625 c 0
EndSplineSet
EndChar

StartChar: franc
Encoding: 8355 8355 241
Width: 493
Flags: HW
LayerCount: 2
Fore
SplineSet
335 56 m 5
 36 56 l 5
 36 188 l 5
 335 188 l 5
 335 56 l 5
405 265 m 1
 86 265 l 1
 86 397 l 1
 405 397 l 1
 405 265 l 1
472 496 m 1
 66 496 l 1
 66 628 l 1
 472 628 l 1
 472 496 l 1
66 0 m 1
 66 598 l 1
 208 598 l 1
 208 0 l 1
 66 0 l 1
EndSplineSet
EndChar

StartChar: uni20B9
Encoding: 8377 8377 242
Width: 493
Flags: HW
LayerCount: 2
Fore
SplineSet
445.5 489.538085938 m 1
 50.5 489.538085938 l 1
 50.5 628 l 1
 445.5 628 l 1
 445.5 489.538085938 l 1
442.5 0 m 1
 260.5 0 l 1
 60.5 296 l 0
 60.5 296 l 1
 149.5 349 l 1
 442.5 0 l 1
191.5 489.538085938 m 2
 50.5 489.538085938 l 1
 50.5 528 l 1
 191.5 528 l 2
 312.099609375 528 425.388671875 507.040039062 425.388671875 379.440429688 c 0
 425.388671875 257.840820312 312.099609375 230 191.5 230 c 2
 50.5 230 l 1
 50.5 358.461914062 l 1
 191.5 358.461914062 l 2
 239.341796875 358.461914062 288.540039062 361.623046875 288.540039062 419.440429688 c 0
 288.540039062 483.2578125 239.341796875 489.538085938 191.5 489.538085938 c 2
EndSplineSet
EndChar

StartChar: uni20BA
Encoding: 8378 8378 243
Width: 493
Flags: HW
LayerCount: 2
Fore
SplineSet
263.611328125 270.400390625 m 5
 25.611328125 230.400390625 l 5
 25.611328125 342.400390625 l 5
 263.611328125 382.400390625 l 5
 263.611328125 270.400390625 l 5
263.611328125 440.400390625 m 5
 25.611328125 400.400390625 l 5
 25.611328125 502.400390625 l 5
 263.611328125 542.400390625 l 5
 263.611328125 440.400390625 l 5
459.388671875 274 m 1
 459.3203125 116.400390625 385.2109375 0 213.611328125 0 c 2
 71.611328125 0 l 1
 70.611328125 628 l 1
 208.611328125 628 l 1
 208.459960938 126 l 1
 215.5 125.90234375 l 2
 317.611328125 125.90234375 322.749023438 200.18359375 322.541015625 274 c 1
 459.388671875 274 l 1
EndSplineSet
EndChar

StartChar: uni20BA.varAlt01
Encoding: 1114181 -1 244
Width: 493
Flags: HW
LayerCount: 2
Fore
SplineSet
263.611328125 270.400390625 m 1
 25.611328125 230.400390625 l 1
 25.611328125 342.400390625 l 1
 263.611328125 382.400390625 l 1
 263.611328125 270.400390625 l 1
263.611328125 440.400390625 m 1
 25.611328125 400.400390625 l 1
 25.611328125 502.400390625 l 1
 263.611328125 542.400390625 l 1
 263.611328125 440.400390625 l 1
459.388671875 274 m 1
 459.3203125 116.400390625 385.2109375 0 213.611328125 0 c 2
 71.611328125 0 l 1
 71.08984375 317.51953125 l 1
 208.526367188 347.294921875 l 1
 208.459960938 126 l 1
 215.5 125.90234375 l 2
 317.611328125 125.90234375 322.749023438 200.18359375 322.541015625 274 c 1
 459.388671875 274 l 1
70.9274169296 429.496230741 m 1
 70.611328125 628 l 1
 208.611328125 628 l 1
 208.557617188 459.298828125 l 1
 70.9274169296 429.496230741 l 1
EndSplineSet
EndChar

StartChar: b.salt
Encoding: 1114182 -1 245
Width: 496
Flags: HW
LayerCount: 2
Fore
SplineSet
33 0 m 5
 33 645.400390625 l 5
 173.599609375 645.400390625 l 5
 173.599609375 0 l 5
 33 0 l 5
280.110351562 -10.0478515625 m 0
 166.830078125 -10.0478515625 135 63.1201171875 135 211.200195312 c 0
 135 359.279296875 166.830078125 432.447265625 280.110351562 432.447265625 c 0
 393.390625 432.447265625 465.221679688 359.279296875 465.221679688 211.200195312 c 0
 465.221679688 63.1201171875 393.390625 -10.0478515625 280.110351562 -10.0478515625 c 0
250.110351562 295.58203125 m 0
 210.8515625 295.58203125 179.205078125 274.04296875 179.205078125 211.200195312 c 0
 179.205078125 148.357421875 210.8515625 126.817382812 250.110351562 126.817382812 c 0
 289.369140625 126.817382812 321.015625 148.357421875 321.015625 211.200195312 c 0
 321.015625 274.04296875 289.369140625 295.58203125 250.110351562 295.58203125 c 0
EndSplineSet
EndChar

StartChar: d.salt
Encoding: 1114183 -1 246
Width: 496
Flags: HW
LayerCount: 2
Fore
SplineSet
324.622070312 0 m 1
 324.622070312 645.400390625 l 1
 465.221679688 645.400390625 l 1
 465.221679688 0 l 1
 324.622070312 0 l 1
248.111328125 295.58203125 m 0
 208.852539062 295.58203125 177.206054688 274.04296875 177.206054688 211.200195312 c 0
 177.206054688 148.357421875 208.852539062 126.817382812 248.111328125 126.817382812 c 0
 287.370117188 126.817382812 319.016601562 148.357421875 319.016601562 211.200195312 c 0
 319.016601562 274.04296875 287.370117188 295.58203125 248.111328125 295.58203125 c 0
218.111328125 -10.0478515625 m 0
 104.831054688 -10.0478515625 33 63.1201171875 33 211.200195312 c 0
 33 359.279296875 104.831054688 432.447265625 218.111328125 432.447265625 c 0
 331.391601562 432.447265625 363.221679688 359.279296875 363.221679688 211.200195312 c 0
 363.221679688 63.1201171875 331.391601562 -10.0478515625 218.111328125 -10.0478515625 c 0
EndSplineSet
EndChar

StartChar: p.salt
Encoding: 1114184 -1 247
Width: 496
Flags: HW
LayerCount: 2
Fore
SplineSet
280.110351562 -10.0478515625 m 0
 166.830078125 -10.0478515625 135 63.1201171875 135 211.200195312 c 0
 135 359.279296875 166.830078125 432.447265625 280.110351562 432.447265625 c 0
 393.390625 432.447265625 465.221679688 359.279296875 465.221679688 211.200195312 c 0
 465.221679688 63.1201171875 393.390625 -10.0478515625 280.110351562 -10.0478515625 c 0
250.110351562 295.58203125 m 0
 210.8515625 295.58203125 179.205078125 274.04296875 179.205078125 211.200195312 c 0
 179.205078125 148.357421875 210.8515625 126.817382812 250.110351562 126.817382812 c 0
 289.369140625 126.817382812 321.015625 148.357421875 321.015625 211.200195312 c 0
 321.015625 274.04296875 289.369140625 295.58203125 250.110351562 295.58203125 c 0
33 -193 m 5
 33 422.400390625 l 5
 173.599609375 422.400390625 l 5
 173.599609375 -193 l 5
 33 -193 l 5
EndSplineSet
EndChar

StartChar: q.salt
Encoding: 1114185 -1 248
Width: 497
Flags: HW
LayerCount: 2
Fore
SplineSet
324.622070312 -193 m 1
 324.622070312 422.400390625 l 1
 465.221679688 422.400390625 l 1
 465.221679688 -193 l 1
 324.622070312 -193 l 1
248.111328125 295.58203125 m 0
 208.852539062 295.58203125 177.206054688 274.04296875 177.206054688 211.200195312 c 0
 177.206054688 148.357421875 208.852539062 126.817382812 248.111328125 126.817382812 c 0
 287.370117188 126.817382812 319.016601562 148.357421875 319.016601562 211.200195312 c 0
 319.016601562 274.04296875 287.370117188 295.58203125 248.111328125 295.58203125 c 0
218.111328125 -10.0478515625 m 0
 104.831054688 -10.0478515625 33 63.1201171875 33 211.200195312 c 0
 33 359.279296875 104.831054688 432.447265625 218.111328125 432.447265625 c 0
 331.391601562 432.447265625 363.221679688 359.279296875 363.221679688 211.200195312 c 0
 363.221679688 63.1201171875 331.391601562 -10.0478515625 218.111328125 -10.0478515625 c 0
EndSplineSet
EndChar

StartChar: six.salt.numr
Encoding: 1114186 -1 249
Width: 425
Flags: W
HStem: 203 118.68<187.17 251.982> 368.32 112.21<190.318 298.885> 529.27 132.73<245.063 330.779>
VStem: 28 157.61<323.437 450.578>
LayerCount: 2
Fore
SplineSet
177.530273438 448.73046875 m 1
 177.530273438 448.73046875 209.259765625 480.530273438 261.58984375 480.530273438 c 0
 336.1796875 480.530273438 392 432 392 349 c 0
 392 274 331 203 216 203 c 0
 94 203 28 284 28 420 c 0
 28 576 193 653 330 662 c 0
 344.76953125 529.26953125 l 1
 190 515 177.530273438 448.73046875 177.530273438 448.73046875 c 1
220.059570312 321.6796875 m 0
 240.73046875 321.6796875 252.389648438 331.219726562 252.389648438 346.58984375 c 0
 252.389648438 356.129882812 245.5 368.3203125 219 368.3203125 c 0
 196.740234375 368.3203125 185.610351562 359.309570312 185.610351562 347.120117188 c 0
 185.610351562 329.099609375 202.040039062 321.6796875 220.059570312 321.6796875 c 0
EndSplineSet
Substitution2: "Single Substitution lookup 24 subtable" six.salt.dnom
Substitution2: "Single Substitution lookup 25 subtable" six.salt.dnom
EndChar

StartChar: nine.salt.numr
Encoding: 1114187 -1 250
Width: 415
Flags: W
HStem: 185 132.73<86.2211 171.937> 366.47 112.21<118.115 226.682> 525.32 118.68<165.018 229.83>
VStem: 231.39 157.61<396.422 523.563>
LayerCount: 2
Fore
SplineSet
239.469726562 398.26953125 m 1
 239.469726562 398.26953125 207.740234375 366.469726562 155.41015625 366.469726562 c 0
 80.8203125 366.469726562 25 415 25 498 c 0
 25 573 86 644 201 644 c 0
 323 644 389 563 389 427 c 0
 389 271 224 194 87 185 c 0
 72.23046875 317.73046875 l 1
 227 332 239.469726562 398.26953125 239.469726562 398.26953125 c 1
196.940429688 525.3203125 m 0
 176.26953125 525.3203125 164.610351562 515.780273438 164.610351562 500.41015625 c 0
 164.610351562 490.870117188 171.5 478.6796875 198 478.6796875 c 0
 220.259765625 478.6796875 231.389648438 487.690429688 231.389648438 499.879882812 c 0
 231.389648438 517.900390625 214.959960938 525.3203125 196.940429688 525.3203125 c 0
EndSplineSet
Substitution2: "Single Substitution lookup 24 subtable" nine.salt.dnom
Substitution2: "Single Substitution lookup 25 subtable" nine.salt.dnom
EndChar

StartChar: six.salt.dnom
Encoding: 1114188 -1 251
Width: 425
Flags: HW
LayerCount: 2
Fore
SplineSet
176.530273438 237.729492188 m 5
 176.530273438 237.729492188 208.259765625 269.529296875 260.58984375 269.529296875 c 4
 335.1796875 269.529296875 391 220.999023438 391 137.999023438 c 4
 391 62.9990234375 330 -8.0009765625 215 -8.0009765625 c 4
 93 -8.0009765625 27 72.9990234375 27 208.999023438 c 4
 27 364.999023438 192 441.999023438 329 450.999023438 c 4
 343.76953125 318.268554688 l 5
 189 303.999023438 176.530273438 237.729492188 176.530273438 237.729492188 c 5
219.059570312 110.678710938 m 4
 239.73046875 110.678710938 251.389648438 120.21875 251.389648438 135.588867188 c 4
 251.389648438 145.12890625 244.5 157.319335938 218 157.319335938 c 4
 195.740234375 157.319335938 184.610351562 148.30859375 184.610351562 136.119140625 c 4
 184.610351562 118.098632812 201.040039062 110.678710938 219.059570312 110.678710938 c 4
EndSplineSet
EndChar

StartChar: nine.salt.dnom
Encoding: 1114189 -1 252
Width: 415
Flags: W
HStem: -26 132.73<90.2211 175.937> 155.47 112.21<122.115 230.682> 314.32 118.68<169.018 233.83>
VStem: 235.39 157.61<185.422 312.563>
LayerCount: 2
Fore
SplineSet
243.469726562 187.26953125 m 1
 243.469726562 187.26953125 211.740234375 155.469726562 159.41015625 155.469726562 c 0
 84.8203125 155.469726562 29 204 29 287 c 0
 29 362 90 433 205 433 c 0
 327 433 393 352 393 216 c 0
 393 60 228 -17 91 -26 c 0
 76.23046875 106.73046875 l 1
 231 121 243.469726562 187.26953125 243.469726562 187.26953125 c 1
200.940429688 314.3203125 m 0
 180.26953125 314.3203125 168.610351562 304.780273438 168.610351562 289.41015625 c 0
 168.610351562 279.870117188 175.5 267.6796875 202 267.6796875 c 0
 224.259765625 267.6796875 235.389648438 276.690429688 235.389648438 288.879882812 c 0
 235.389648438 306.900390625 218.959960938 314.3203125 200.940429688 314.3203125 c 0
EndSplineSet
EndChar

StartChar: six.ssf
Encoding: 1114190 -1 253
Width: 481
Flags: W
HStem: -12.5596 138.641<208.151 303.209> 276 121.761<222.614 300.358> 608.387 20G<422.331 423.525>
VStem: 29 135.318<297.842 400.183> 319.58 135.781<143.058 254.142>
LayerCount: 2
Fore
SplineSet
273.7421875 473.09765625 m 4
 191.1015625 447.411132812 165.153320312 378.251953125 164.318359375 297.841796875 c 1
 164.318359375 297.841796875 192.724650026 397.922107923 296.0390625 397.760742188 c 0
 388.575195312 397.616210938 455.496432469 334.187526382 455.361328125 194 c 0
 455.238104888 66.1405972391 384.208007812 -12.5595703125 249.612304688 -12.5595703125 c 0
 106.154296875 -12.5595703125 29 116.400390625 29 284 c 0
 29 471.599609375 129 567 266.33203125 610.559570312 c 4
 351.546875 637.588867188 422.331054688 628.38671875 422.331054688 628.38671875 c 5
 430.194335938 496.681640625 l 5
 430.194335938 496.681640625 365.415533979 501.591748144 273.7421875 473.09765625 c 4
255.5078125 126.081054688 m 0
 296.638671875 126.081054688 319.168945312 155.01953125 319.580078125 197 c 0
 319.885237947 228.159644673 305.397460938 276.2421875 253.186523438 276 c 0
 209.427734375 275.796875 188.188476562 238.536132812 188.188476562 199 c 0
 188.188476562 150.8046875 220.336914062 126.081054688 255.5078125 126.081054688 c 0
EndSplineSet
Substitution2: "'tnum' Tabular Numbers in Latin lookup 5-1" six.tssf
EndChar

StartChar: nine.ssf
Encoding: 1114191 -1 254
Width: 481
Flags: W
HStem: 102.127 121.761<174.891 281.735> 333.807 138.641<172.366 282.688>
VStem: 26 135.781<238.569 320.168> 317.043 135.318<74.0543 182.046>
LayerCount: 2
Fore
SplineSet
217.227539062 0.0283203125 m 4
 284.352539062 25.4345703125 316.208007812 81.6357421875 317.04296875 182.045898438 c 1
 317.04296875 182.045898438 308.63671875 101.994140625 205.322265625 102.126953125 c 0
 92.7861328125 102.271484375 25.83984375 165.700195312 26 285.887695312 c 0
 26.1455078125 393.747070312 97.1533203125 472.447265625 231.749023438 472.447265625 c 0
 375.20703125 472.447265625 452.361328125 343.487304688 452.361328125 175.887695312 c 0
 452.361328125 -11.7119140625 353.767578125 -93.931640625 224.637695312 -137.43359375 c 4
 125 -171 58.638671875 -167.260742188 58.638671875 -167.260742188 c 5
 50.775390625 -35.5556640625 l 5
 50.775390625 -35.5556640625 121.48828125 -36.2080078125 217.227539062 0.0283203125 c 4
225.853515625 333.806640625 m 0
 184.72265625 333.806640625 162.192382812 312.868164062 161.78125 282.887695312 c 0
 161.353515625 251.729492188 175.963867188 223.645507812 228.174804688 223.887695312 c 0
 271.93359375 224.090820312 293.172851562 241.3515625 293.172851562 280.887695312 c 0
 293.172851562 319.083007812 261.024414062 333.806640625 225.853515625 333.806640625 c 0
EndSplineSet
Substitution2: "'tnum' Tabular Numbers in Latin lookup 5-1" nine.tssf
EndChar

StartChar: six.stf
Encoding: 1114192 -1 255
Width: 600
Flags: W
HStem: -12.5596 138.641<240.953 378.631> 276 121.761<250.931 382.483>
VStem: 45 171<156.993 354.324> 404 151<154.157 252.477>
LayerCount: 2
Fore
SplineSet
309.322265625 126.081054688 m 0
 368.173828125 126.081054688 403.408203125 156.01953125 404 206 c 0
 404.369140625 237.16015625 384.706054688 276.2421875 310 276 c 0
 247.390625 275.796875 216 247.536132812 216 208 c 0
 216 149.8046875 259 126.081054688 309.322265625 126.081054688 c 0
492 529 m 5
 492 529 394.877929688 508.833984375 308 471 c 4
 184 417 181.93359375 317.994140625 181.93359375 317.994140625 c 1
 181.93359375 317.994140625 230.415039062 397.900390625 348 397.760742188 c 0
 475.11328125 397.609375 555.193359375 314.1875 555 194 c 0
 554.826171875 86.140625 469.889648438 -12.5595703125 308.888671875 -12.5595703125 c 0
 137.2890625 -12.5595703125 45 116.400390625 45 294 c 0
 45 426.390625 114 531 243 588 c 4
 356.946289062 638.348632812 460 657 460 657 c 5
 492 529 l 5
EndSplineSet
EndChar

StartChar: nine.stf
Encoding: 1114193 -1 256
Width: 600
Flags: W
HStem: 232.239 119.761<219.087 352.087> 502.098 140.462<219.833 360.744>
VStem: 45 150.961<372.719 475.843> 383.961 171.039<280.881 472.841>
LayerCount: 2
Fore
SplineSet
292.072265625 502.09765625 m 0
 223.220703125 502.09765625 196.552734375 471.98046875 195.9609375 422 c 0
 195.591796875 390.83984375 215.254882812 351.768554688 289.9609375 352 c 0
 355.571289062 352.203125 383.9609375 380.463867188 383.9609375 420 c 0
 383.9609375 471.1953125 357.9609375 502.09765625 292.072265625 502.09765625 c 0
107.9609375 111 m 1
 107.9609375 111 195.65234375 125.97265625 282 165 c 0
 416.9609375 226 418.06640625 312.0078125 418.06640625 312.0078125 c 1
 418.06640625 312.0078125 369.5859375 232.109375 262 232.239257812 c 4
 124.88671875 232.404296875 44.806640625 315.8125 45 436 c 0
 45.173828125 543.859375 130.110351562 642.559570312 291.111328125 642.559570312 c 0
 462.7109375 642.559570312 555 513.599609375 555 336 c 0
 555 203.609375 469.201171875 97.1201171875 337 48 c 0
 223.9609375 6 128.9609375 -8 128.9609375 -8 c 1
 107.9609375 111 l 1
EndSplineSet
EndChar

StartChar: six.tssf
Encoding: 1114194 -1 257
Width: 600
Flags: W
HStem: -12.5596 138.641<249.603 391.957> 265 121.761<244.464 390.049>
VStem: 49 136.864<297.842 366.122> 412 147<146.784 245.931>
LayerCount: 2
Fore
SplineSet
299 596 m 0
 401 639 494.888671875 647.09765625 494.888671875 647.09765625 c 1
 526.888671875 519.09765625 l 1
 526.888671875 519.09765625 412.551757812 491.243164062 342.888671875 468.09765625 c 0
 256.591796875 439.42578125 186.862304688 378.251953125 185.864257812 297.841796875 c 1
 204.14453125 337.598632812 244.302734375 386.881835938 332 386.760742188 c 0
 479.11328125 386.557617188 559.17695347 314.187523333 559 184 c 0
 558.839803165 66.1406038929 473.889648438 -12.5595703125 312.888671875 -12.5595703125 c 0
 141.2890625 -12.5595703125 49 86.400390625 49 284 c 0
 49 441.599609375 155.224609375 535.388671875 299 596 c 0
320.322265625 126.081054688 m 0
 379.173828125 126.081054688 411.551967917 146.01803578 412 196 c 0
 412.368956725 237.160404572 391.706054688 265.2421875 317 265 c 0
 254.390625 264.796875 224 239.536132812 224 198 c 0
 224 146.8046875 270 126.081054688 320.322265625 126.081054688 c 0
EndSplineSet
EndChar

StartChar: nine.tssf
Encoding: 1114195 -1 258
Width: 600
Flags: W
HStem: 91.3984 124.483<210.38 366.256> 334.801 138.641<212.34 363.391>
VStem: 49 147<233.96 316.408> 422.136 136.864<92.9738 163.04>
LayerCount: 2
Fore
SplineSet
277.111328125 -130.400390625 m 0
 150.506835938 -164.194335938 99.9354560498 -160.894323037 98.5224609375 -161.227539062 c 1
 90.6591796875 -29.5224609375 l 1
 90.6591796875 -29.5224609375 174 -30 257.111328125 -3.9384765625 c 0
 338.461977757 21.570944474 421.137695312 72.6298828125 422.135742188 163.040039062 c 1
 403.85546875 123.283203125 355.697265625 91.27734375 268 91.3984375 c 0
 120.88671875 91.6015625 48.806640625 166.694335938 49 286.881835938 c 0
 49.173828125 394.741210938 134.110351562 473.44140625 295.111328125 473.44140625 c 0
 466.7109375 473.44140625 559 344.481445312 559 176.881835938 c 0
 559 19.2822265625 407.049804688 -95.7158203125 277.111328125 -130.400390625 c 0
287.677734375 334.80078125 m 0
 228.826171875 334.80078125 196.591796875 314.862304688 196 274.881835938 c 0
 195.5390625 243.72265625 216.293945312 215.639648438 291 215.881835938 c 0
 353.609375 216.084960938 384 241.345703125 384 272.881835938 c 0
 384 314.077148438 338 334.80078125 287.677734375 334.80078125 c 0
EndSplineSet
EndChar

StartChar: uni1E9E
Encoding: 7838 7838 259
Width: 619
Flags: HW
LayerCount: 2
Fore
SplineSet
368.22265625 282 m 1
 300.22265625 363.206054688 l 0
 405.111328125 467.694335938 l 0
 405.111328125 467.694335938 389 511.866210938 297 511.866210938 c 0
 218.704101562 511.866210938 171.599609375 474.646484375 171.599609375 369.3125 c 6
 171.599609375 -0 l 1
 31 0 l 1
 31 379.3125 l 2
 31 567.391601562 132.831054688 640.559570312 286.111328125 640.559570312 c 0
 441.390625 640.559570312 539.221679688 577.391601562 559.221679688 459.3125 c 0
 368.22265625 282 l 1
592.345703125 173.959960938 m 0
 592.345703125 65.49609375 514.880859375 -8.0380859375 390.256835938 -8.0380859375 c 0
 304.702148438 -8.0380859375 257.623046875 13.0419921875 257.623046875 13.0419921875 c 1
 274.74609375 136.400390625 l 1
 274.74609375 136.400390625 311.973632812 121.454101562 364.256835938 121.454101562 c 0
 421.6640625 121.454101562 456.981445312 143.685546875 456.981445312 193.959960938 c 0
 456.981445312 244.234375 421.6640625 266.465820312 384.256835938 266.465820312 c 0
 338.569335938 266.465820312 328.22265625 262 328.22265625 262 c 1
 300.22265625 363.206054688 l 1
 354.256835938 335.958007812 l 0
 480 378 592.345703125 292.423828125 592.345703125 173.959960938 c 0
EndSplineSet
EndChar

StartChar: alpha
Encoding: 945 945 260
Width: 578
Flags: HW
LayerCount: 2
Fore
SplineSet
241.111328125 295.58203125 m 0
 201.852539062 295.58203125 170.206054688 274.04296875 170.206054688 211.200195312 c 0
 170.206054688 148.357421875 201.852539062 126.817382812 241.111328125 126.817382812 c 0
 280.370117188 126.817382812 312.016601562 148.357421875 312.016601562 211.200195312 c 0
 312.016601562 274.04296875 280.370117188 295.58203125 241.111328125 295.58203125 c 0
211.111328125 -10.0478515625 m 0
 97.8310546875 -10.0478515625 26 63.1201171875 26 211.200195312 c 0
 26 359.279296875 97.8310546875 432.447265625 211.111328125 432.447265625 c 0
 324.391601562 432.447265625 356.221679688 359.279296875 356.221679688 211.200195312 c 0
 356.221679688 63.1201171875 324.391601562 -10.0478515625 211.111328125 -10.0478515625 c 0
539 122 m 1
 552.622070312 20 l 1
 552.622070312 20 528.21875 -10.0458984375 463.111328125 -10.0478515625 c 0
 349.219726562 -10.05078125 331.37890625 106.522460938 312.016601562 211.200195312 c 1
 320.373357036 285.716281738 335.757122639 358.210260829 362.622070312 427.400390625 c 1
 503.221679688 417.400390625 l 1
 472.172838006 345.550062025 457.991992644 277.752617019 446.221679688 211.200195312 c 1
 455.284179688 122.561523438 485.1796875 118.09765625 514 118.09765625 c 0
 528 118.09765625 539 122 539 122 c 1
EndSplineSet
EndChar

